<svg xmlns="http://www.w3.org/2000/svg" viewBox="0 0 1024 1024" width="1024" height="1024">
  <rect width="1024" height="1024" fill="white"/>
  <path d="M 990.0,1005.5 L 34.0,1005.5 L 30.0,1003.5 L 28.0,1003.5 L 22.5,999.0 L 18.5,992.0 L 18.5,988.0 L 17.5,987.0 L 17.5,35.0 L 18.5,34.0 L 18.5,30.0 L 20.5,26.0 L 26.0,20.5 L 30.0,18.5 L 33.0,18.5 L 34.0,17.5 L 990.0,17.5 L 991.0,18.5 L 993.0,18.5 L 997.0,20.5 L 1002.5,26.0 L 1004.5,30.0 L 1004.5,33.0 L 1005.5,34.0 L 1005.5,989.0 L 1004.5,990.0 L 1004.5,993.0 L 1002.5,997.0 L 997.0,1002.5 L 993.0,1004.5 L 991.0,1004.5 L 990.0,1005.5 Z M 990.5,998.0 L 992.0,997.5 L 997.5,992.0 L 997.5,990.0 L 998.5,989.0 L 998.0,890.5 L 713.0,890.5 L 712.0,889.5 L 706.0,888.5 L 700.0,885.5 L 693.5,879.0 L 690.5,873.0 L 690.5,870.0 L 689.5,869.0 L 689.5,854.0 L 688.5,853.0 L 688.5,683.0 L 689.5,682.0 L 689.5,676.0 L 690.5,675.0 L 690.5,672.0 L 691.5,671.0 L 692.5,666.0 L 695.5,660.0 L 699.5,655.0 L 699.5,654.0 L 706.0,647.5 L 707.0,647.5 L 710.0,644.5 L 713.0,643.5 L 715.0,641.5 L 717.0,641.5 L 720.0,639.5 L 722.0,639.5 L 726.0,637.5 L 731.0,637.5 L 732.0,636.5 L 734.5,636.0 L 734.5,582.0 L 735.5,581.0 L 735.5,575.0 L 736.5,574.0 L 736.5,570.0 L 737.5,569.0 L 738.5,562.0 L 740.5,559.0 L 740.5,557.0 L 744.5,549.0 L 746.5,547.0 L 748.5,543.0 L 761.0,530.5 L 762.0,530.5 L 765.0,527.5 L 768.0,526.5 L 770.0,524.5 L 776.0,521.5 L 781.0,520.5 L 782.0,519.5 L 790.0,518.5 L 791.0,517.5 L 799.0,517.5 L 800.0,516.5 L 998.5,516.0 L 998.5,34.0 L 996.5,30.0 L 992.0,25.5 L 990.0,24.5 L 34.0,24.5 L 33.0,25.5 L 31.0,25.5 L 26.5,30.0 L 25.5,34.0 L 24.5,35.0 L 24.5,988.0 L 25.5,989.0 L 26.5,993.0 L 30.0,996.5 L 34.0,998.5 L 990.5,998.0 Z M 245.0,890.5 L 241.0,890.5 L 235.5,887.0 L 233.5,883.0 L 233.5,881.0 L 232.5,880.0 L 232.5,878.0 L 231.5,877.0 L 231.5,874.0 L 229.5,870.0 L 229.5,866.0 L 227.0,863.5 L 224.0,863.5 L 222.0,862.5 L 219.5,860.0 L 215.5,852.0 L 215.5,850.0 L 213.5,846.0 L 212.5,841.0 L 210.5,838.0 L 208.5,830.0 L 206.5,827.0 L 205.5,822.0 L 203.5,819.0 L 201.5,811.0 L 200.5,810.0 L 200.5,808.0 L 199.5,807.0 L 199.5,805.0 L 198.5,804.0 L 196.5,796.0 L 195.5,795.0 L 195.5,793.0 L 194.5,792.0 L 194.5,790.0 L 193.5,789.0 L 191.5,781.0 L 190.5,780.0 L 189.5,775.0 L 188.0,772.5 L 184.5,776.0 L 182.5,780.0 L 179.5,783.0 L 179.5,784.0 L 176.5,787.0 L 176.5,788.0 L 173.5,791.0 L 173.5,792.0 L 169.5,796.0 L 169.5,797.0 L 166.5,800.0 L 166.5,801.0 L 162.5,805.0 L 162.5,806.0 L 158.5,810.0 L 158.5,811.0 L 154.5,815.0 L 154.5,816.0 L 149.5,821.0 L 149.5,822.0 L 145.5,826.0 L 145.5,827.0 L 140.5,832.0 L 140.5,833.0 L 136.5,837.0 L 136.5,838.0 L 130.0,844.5 L 126.0,845.5 L 123.5,847.0 L 126.5,855.0 L 128.0,856.5 L 132.0,857.5 L 139.0,861.5 L 142.5,865.0 L 142.5,866.0 L 145.5,870.0 L 145.5,872.0 L 146.5,873.0 L 145.5,880.0 L 141.0,884.5 L 139.0,885.5 L 113.0,885.5 L 112.0,884.5 L 108.0,884.5 L 107.0,883.5 L 105.0,883.5 L 103.0,881.5 L 99.0,879.5 L 85.5,864.0 L 85.5,863.0 L 73.5,848.0 L 73.5,847.0 L 69.5,842.0 L 68.5,838.0 L 67.5,837.0 L 67.5,833.0 L 71.5,826.0 L 81.0,816.5 L 82.5,816.0 L 82.5,809.0 L 84.5,805.0 L 88.5,801.0 L 88.5,800.0 L 91.5,797.0 L 91.5,796.0 L 94.5,793.0 L 94.5,792.0 L 97.5,789.0 L 97.5,788.0 L 101.5,784.0 L 101.5,783.0 L 113.5,768.0 L 115.5,764.0 L 121.5,757.0 L 125.5,750.0 L 128.5,747.0 L 128.5,746.0 L 133.5,740.0 L 133.5,739.0 L 135.5,737.0 L 139.5,730.0 L 144.5,724.0 L 148.5,716.0 L 149.5,710.0 L 150.5,709.0 L 150.5,706.0 L 151.5,705.0 L 151.5,702.0 L 152.5,701.0 L 152.5,698.0 L 153.5,697.0 L 153.5,693.0 L 150.5,689.0 L 133.5,655.0 L 130.5,649.0 L 130.5,647.0 L 128.5,644.0 L 128.5,642.0 L 126.5,639.0 L 124.5,631.0 L 123.5,630.0 L 123.5,627.0 L 122.5,626.0 L 121.5,617.0 L 120.5,616.0 L 120.5,608.0 L 113.5,601.0 L 113.5,600.0 L 111.5,598.0 L 99.5,574.0 L 99.5,572.0 L 96.5,567.0 L 96.5,565.0 L 91.5,555.0 L 90.5,550.0 L 89.5,549.0 L 88.5,544.0 L 87.5,543.0 L 87.5,541.0 L 86.5,540.0 L 86.5,537.0 L 85.5,536.0 L 85.5,533.0 L 84.5,532.0 L 84.5,529.0 L 83.5,528.0 L 83.5,523.0 L 82.5,522.0 L 82.5,501.0 L 83.5,500.0 L 83.5,494.0 L 84.5,493.0 L 84.5,489.0 L 85.5,488.0 L 86.5,479.0 L 87.5,478.0 L 87.5,475.0 L 88.5,474.0 L 88.5,470.0 L 89.5,469.0 L 89.5,466.0 L 91.5,462.0 L 91.5,459.0 L 93.5,455.0 L 93.5,452.0 L 94.5,451.0 L 96.5,443.0 L 97.5,442.0 L 98.5,437.0 L 99.5,436.0 L 99.5,434.0 L 101.5,431.0 L 102.5,426.0 L 112.5,406.0 L 114.5,404.0 L 116.5,400.0 L 127.0,389.5 L 128.0,389.5 L 136.0,383.5 L 154.0,374.5 L 156.0,374.5 L 157.0,373.5 L 162.0,372.5 L 163.0,371.5 L 166.0,371.5 L 168.5,369.0 L 168.5,365.0 L 169.5,364.0 L 169.5,349.0 L 167.5,345.0 L 165.5,343.0 L 159.5,331.0 L 159.5,329.0 L 157.5,326.0 L 157.5,324.0 L 153.0,323.5 L 152.0,322.5 L 148.0,321.5 L 142.5,316.0 L 139.5,310.0 L 139.5,298.0 L 140.5,297.0 L 140.5,295.0 L 144.5,290.0 L 147.5,288.0 L 146.5,287.0 L 146.5,279.0 L 145.5,278.0 L 145.5,275.0 L 144.5,274.0 L 144.5,266.0 L 143.5,265.0 L 143.5,255.0 L 144.5,254.0 L 144.5,248.0 L 145.5,247.0 L 145.5,244.0 L 146.5,243.0 L 146.5,240.0 L 152.5,229.0 L 162.0,219.5 L 163.0,219.5 L 168.0,215.5 L 174.0,212.5 L 176.0,212.5 L 179.0,210.5 L 182.0,210.5 L 183.0,209.5 L 185.0,209.5 L 186.0,208.5 L 190.0,208.5 L 191.0,207.5 L 196.0,207.5 L 197.0,206.5 L 215.0,206.5 L 216.0,207.5 L 220.0,207.5 L 221.0,208.5 L 227.0,209.5 L 233.0,212.5 L 236.0,215.5 L 237.0,215.5 L 245.5,225.0 L 251.5,237.0 L 251.5,239.0 L 254.0,242.5 L 260.0,242.5 L 261.0,243.5 L 265.0,243.5 L 266.0,244.5 L 270.0,244.5 L 271.0,245.5 L 276.0,246.5 L 280.0,248.5 L 285.5,254.0 L 286.5,256.0 L 286.5,263.0 L 281.0,268.5 L 277.0,270.5 L 275.0,270.5 L 274.0,271.5 L 271.0,271.5 L 270.0,272.5 L 260.0,272.5 L 257.5,274.0 L 257.5,312.0 L 256.5,313.0 L 256.5,320.0 L 255.5,321.0 L 255.5,325.0 L 254.5,326.0 L 254.5,329.0 L 253.5,330.0 L 253.5,333.0 L 252.5,334.0 L 251.5,339.0 L 249.5,342.0 L 249.5,344.0 L 246.5,350.0 L 242.5,355.0 L 242.5,356.0 L 238.0,360.5 L 237.0,360.5 L 230.0,365.5 L 222.0,367.5 L 220.5,369.0 L 221.0,373.5 L 238.0,381.5 L 240.0,383.5 L 243.0,384.5 L 248.0,388.5 L 249.0,388.5 L 257.5,396.0 L 257.5,397.0 L 262.5,403.0 L 267.5,413.0 L 267.5,415.0 L 269.5,418.0 L 270.5,423.0 L 272.5,427.0 L 272.5,430.0 L 274.5,434.0 L 274.5,437.0 L 275.5,438.0 L 275.5,441.0 L 276.5,442.0 L 276.5,446.0 L 277.5,447.0 L 277.5,450.0 L 278.5,451.0 L 278.5,454.0 L 279.5,455.0 L 279.5,458.0 L 280.5,459.0 L 280.5,462.0 L 281.5,463.0 L 281.5,466.0 L 282.5,467.0 L 282.5,470.0 L 283.5,471.0 L 283.5,474.0 L 284.5,476.0 L 286.0,476.5 L 294.0,470.5 L 297.0,469.5 L 299.0,467.5 L 305.0,464.5 L 315.0,457.5 L 323.0,453.5 L 325.0,453.5 L 326.0,452.5 L 330.0,452.5 L 331.5,451.0 L 335.5,442.0 L 352.0,424.5 L 356.0,422.5 L 359.0,422.5 L 361.0,423.5 L 364.5,427.0 L 364.5,434.0 L 361.5,440.0 L 362.0,440.5 L 367.0,440.5 L 368.0,439.5 L 371.0,439.5 L 372.0,438.5 L 374.0,438.5 L 378.0,436.5 L 383.0,435.5 L 384.0,434.5 L 391.0,434.5 L 396.5,439.0 L 396.5,441.0 L 398.0,442.5 L 401.5,444.0 L 403.5,448.0 L 402.5,454.0 L 398.5,459.0 L 398.5,461.0 L 399.5,462.0 L 398.5,466.0 L 395.0,470.5 L 394.0,470.5 L 391.0,473.5 L 383.0,477.5 L 381.0,477.5 L 378.0,479.5 L 376.0,479.5 L 375.0,480.5 L 365.0,481.5 L 364.0,482.5 L 353.0,482.5 L 351.5,484.0 L 351.5,486.0 L 348.5,492.0 L 334.0,506.5 L 333.0,506.5 L 323.0,515.5 L 322.0,515.5 L 316.0,520.5 L 313.0,521.5 L 302.0,529.5 L 297.0,531.5 L 295.0,533.5 L 291.0,535.5 L 289.0,535.5 L 288.0,536.5 L 283.0,537.5 L 282.0,538.5 L 267.0,538.5 L 259.0,534.5 L 257.5,535.0 L 258.5,537.0 L 258.5,550.0 L 259.5,551.0 L 259.5,567.0 L 258.5,568.0 L 258.5,575.0 L 257.5,576.0 L 256.5,582.0 L 252.5,587.0 L 252.5,593.0 L 251.5,594.0 L 251.5,607.0 L 250.5,608.0 L 250.5,617.0 L 249.5,618.0 L 248.5,633.0 L 247.5,634.0 L 247.5,640.0 L 246.5,641.0 L 246.5,646.0 L 245.5,647.0 L 244.5,658.0 L 243.5,659.0 L 243.5,663.0 L 242.5,664.0 L 242.5,669.0 L 241.5,670.0 L 241.5,674.0 L 240.5,675.0 L 239.5,683.0 L 238.5,684.0 L 238.5,688.0 L 237.5,689.0 L 237.5,692.0 L 236.5,693.0 L 236.5,699.0 L 239.5,705.0 L 240.5,710.0 L 241.5,711.0 L 241.5,713.0 L 243.5,717.0 L 243.5,720.0 L 244.5,721.0 L 244.5,723.0 L 246.5,727.0 L 246.5,730.0 L 247.5,731.0 L 248.5,736.0 L 250.5,740.0 L 250.5,743.0 L 252.5,747.0 L 252.5,750.0 L 253.5,751.0 L 253.5,753.0 L 255.5,757.0 L 255.5,760.0 L 256.5,761.0 L 256.5,764.0 L 257.5,765.0 L 258.5,771.0 L 260.5,775.0 L 260.5,778.0 L 262.5,782.0 L 262.5,785.0 L 263.5,786.0 L 264.5,791.0 L 265.5,792.0 L 265.5,795.0 L 266.5,796.0 L 267.5,802.0 L 269.5,806.0 L 269.5,809.0 L 271.5,813.0 L 271.5,816.0 L 272.5,817.0 L 272.5,819.0 L 274.5,823.0 L 275.5,829.0 L 276.5,830.0 L 276.5,833.0 L 277.5,834.0 L 277.5,841.0 L 296.0,841.5 L 297.0,842.5 L 306.0,842.5 L 307.0,843.5 L 309.0,843.5 L 315.0,846.5 L 317.5,849.0 L 319.5,853.0 L 319.5,858.0 L 318.5,860.0 L 314.0,864.5 L 303.0,870.5 L 301.0,870.5 L 296.0,873.5 L 294.0,873.5 L 289.0,876.5 L 287.0,876.5 L 284.0,878.5 L 279.0,879.5 L 276.0,881.5 L 274.0,881.5 L 270.0,883.5 L 265.0,884.5 L 262.0,886.5 L 259.0,886.5 L 258.0,887.5 L 252.0,888.5 L 251.0,889.5 L 246.0,889.5 L 245.0,890.5 Z M 178.5,258.0 L 185.0,254.5 L 187.0,254.5 L 190.0,252.5 L 192.0,252.5 L 195.0,250.5 L 197.0,250.5 L 198.0,249.5 L 200.0,249.5 L 201.0,248.5 L 203.0,248.5 L 207.0,246.5 L 210.0,246.5 L 211.0,245.5 L 214.0,245.5 L 215.0,244.5 L 218.0,244.5 L 219.0,243.5 L 224.0,243.5 L 225.0,242.5 L 232.0,242.5 L 233.0,241.5 L 245.5,241.0 L 239.5,228.0 L 235.5,224.0 L 235.5,223.0 L 234.0,222.5 L 230.0,218.5 L 224.0,215.5 L 218.0,214.5 L 217.0,213.5 L 196.0,213.5 L 195.0,214.5 L 191.0,214.5 L 187.0,216.5 L 182.5,221.0 L 177.5,231.0 L 177.5,235.0 L 176.5,236.0 L 176.5,258.0 L 178.5,258.0 Z M 152.5,272.0 L 156.0,269.5 L 161.0,267.5 L 163.0,265.5 L 170.0,262.5 L 171.5,261.0 L 171.5,254.0 L 170.5,253.0 L 170.5,241.0 L 171.5,240.0 L 171.5,233.0 L 172.5,232.0 L 173.5,226.0 L 177.5,219.0 L 177.0,218.5 L 171.0,221.5 L 164.0,227.5 L 163.0,227.5 L 156.5,235.0 L 152.5,243.0 L 151.5,251.0 L 150.5,252.0 L 150.5,270.0 L 151.5,272.0 L 152.5,272.0 Z M 550.0,890.5 L 545.0,890.5 L 544.0,889.5 L 542.0,889.5 L 538.5,886.0 L 536.5,882.0 L 536.5,880.0 L 535.5,879.0 L 535.5,874.0 L 534.5,873.0 L 534.5,856.0 L 533.5,855.0 L 533.5,853.0 L 528.0,852.5 L 526.0,851.5 L 524.5,850.0 L 521.5,844.0 L 521.5,842.0 L 520.5,841.0 L 520.5,839.0 L 518.5,835.0 L 518.5,833.0 L 516.5,830.0 L 516.5,828.0 L 514.5,824.0 L 514.5,822.0 L 513.5,821.0 L 511.5,813.0 L 510.5,812.0 L 510.5,810.0 L 507.5,804.0 L 507.5,802.0 L 506.5,801.0 L 506.5,799.0 L 504.5,795.0 L 503.5,790.0 L 501.5,787.0 L 501.5,784.0 L 499.5,780.0 L 498.5,774.0 L 497.5,773.0 L 497.5,771.0 L 496.5,770.0 L 496.0,767.5 L 485.5,778.0 L 485.5,779.0 L 438.0,826.5 L 434.0,828.5 L 429.0,827.5 L 428.0,826.5 L 426.5,828.0 L 426.5,835.0 L 427.5,836.0 L 427.5,839.0 L 428.5,840.0 L 428.5,843.0 L 429.5,844.0 L 430.5,850.0 L 433.0,853.5 L 437.0,855.5 L 443.5,862.0 L 445.5,866.0 L 445.5,875.0 L 441.0,880.5 L 439.0,881.5 L 429.0,881.5 L 428.0,880.5 L 424.0,880.5 L 423.0,879.5 L 420.0,879.5 L 419.0,878.5 L 414.0,877.5 L 410.0,874.5 L 409.0,874.5 L 398.5,864.0 L 398.5,863.0 L 395.5,860.0 L 395.5,859.0 L 385.5,845.0 L 384.5,842.0 L 380.5,837.0 L 376.5,829.0 L 376.5,820.0 L 378.5,818.0 L 378.5,817.0 L 384.0,811.5 L 385.0,811.5 L 390.0,807.5 L 401.5,802.0 L 400.5,800.0 L 400.5,794.0 L 401.5,792.0 L 404.5,789.0 L 404.5,788.0 L 407.5,785.0 L 407.5,784.0 L 411.5,780.0 L 411.5,779.0 L 415.5,775.0 L 415.5,774.0 L 419.5,770.0 L 419.5,769.0 L 422.5,766.0 L 422.5,765.0 L 425.5,762.0 L 425.5,761.0 L 429.5,757.0 L 429.5,756.0 L 438.5,745.0 L 438.5,744.0 L 442.5,740.0 L 442.5,739.0 L 446.5,735.0 L 446.5,734.0 L 450.5,730.0 L 450.5,729.0 L 454.5,725.0 L 454.5,724.0 L 458.5,719.0 L 459.5,717.0 L 459.5,714.0 L 460.5,713.0 L 460.5,710.0 L 461.5,709.0 L 461.5,706.0 L 462.5,705.0 L 462.5,702.0 L 463.5,701.0 L 463.5,697.0 L 464.5,696.0 L 448.5,664.0 L 446.5,662.0 L 445.5,658.0 L 441.5,651.0 L 441.5,649.0 L 439.5,646.0 L 439.5,644.0 L 438.5,643.0 L 438.5,641.0 L 436.5,637.0 L 436.5,635.0 L 435.5,634.0 L 435.5,631.0 L 434.5,630.0 L 434.5,625.0 L 433.5,624.0 L 433.5,617.0 L 432.5,616.0 L 432.5,598.0 L 433.5,597.0 L 433.5,590.0 L 434.5,589.0 L 434.5,586.0 L 433.0,585.5 L 431.5,583.0 L 431.5,576.0 L 432.5,575.0 L 432.5,572.0 L 433.5,571.0 L 433.5,568.0 L 434.5,567.0 L 435.5,562.0 L 437.5,558.0 L 437.5,554.0 L 436.5,553.0 L 436.5,549.0 L 435.5,548.0 L 434.5,540.0 L 433.5,539.0 L 433.5,534.0 L 432.5,533.0 L 432.5,512.0 L 433.5,511.0 L 433.5,500.0 L 434.5,499.0 L 434.5,492.0 L 429.5,488.0 L 429.5,481.0 L 430.5,480.0 L 430.5,476.0 L 431.5,475.0 L 431.5,472.0 L 432.5,471.0 L 433.5,463.0 L 434.5,462.0 L 434.5,459.0 L 436.5,455.0 L 436.5,452.0 L 437.5,451.0 L 438.5,446.0 L 440.5,443.0 L 441.5,438.0 L 447.5,426.0 L 449.5,424.0 L 451.5,420.0 L 462.0,409.5 L 463.0,409.5 L 465.0,407.5 L 469.5,405.0 L 461.0,404.5 L 460.0,403.5 L 457.0,403.5 L 453.0,400.5 L 452.0,400.5 L 446.5,393.0 L 446.5,391.0 L 445.5,390.0 L 445.5,383.0 L 438.0,379.5 L 431.5,373.0 L 429.5,369.0 L 429.5,364.0 L 428.5,363.0 L 428.5,361.0 L 429.5,360.0 L 429.5,356.0 L 433.5,348.0 L 429.5,344.0 L 425.5,337.0 L 425.5,325.0 L 430.5,316.0 L 435.0,311.5 L 436.5,311.0 L 436.5,308.0 L 434.5,304.0 L 434.5,293.0 L 437.5,287.0 L 443.0,281.5 L 444.0,281.5 L 448.0,278.5 L 450.5,278.0 L 450.5,273.0 L 449.5,272.0 L 450.5,270.0 L 450.5,266.0 L 454.5,259.0 L 457.0,256.5 L 464.0,252.5 L 470.0,251.5 L 471.5,250.0 L 471.5,248.0 L 474.5,244.0 L 474.5,243.0 L 480.0,237.5 L 486.0,234.5 L 488.0,234.5 L 489.0,233.5 L 500.0,233.5 L 504.0,235.5 L 507.0,235.5 L 511.0,231.5 L 517.0,228.5 L 530.0,228.5 L 531.0,229.5 L 533.0,229.5 L 539.0,232.5 L 545.5,239.0 L 548.0,243.5 L 552.0,242.5 L 553.0,241.5 L 566.0,241.5 L 567.0,242.5 L 572.0,243.5 L 574.0,245.5 L 575.0,245.5 L 581.5,252.0 L 582.5,256.0 L 583.5,257.0 L 583.5,261.0 L 584.5,262.0 L 584.5,264.0 L 588.0,264.5 L 589.0,265.5 L 593.0,266.5 L 595.0,268.5 L 596.0,268.5 L 602.5,275.0 L 605.5,281.0 L 605.5,293.0 L 604.5,294.0 L 603.5,298.0 L 605.0,299.5 L 606.0,299.5 L 612.5,306.0 L 616.5,313.0 L 616.5,316.0 L 617.5,317.0 L 617.5,326.0 L 616.5,327.0 L 616.5,330.0 L 611.5,338.0 L 614.5,341.0 L 616.5,345.0 L 616.5,347.0 L 617.5,348.0 L 617.5,351.0 L 618.5,352.0 L 618.5,360.0 L 617.5,361.0 L 617.5,364.0 L 615.5,368.0 L 609.0,374.5 L 605.5,376.0 L 605.5,387.0 L 604.5,388.0 L 604.5,392.0 L 602.5,396.0 L 599.5,399.0 L 599.0,400.5 L 598.0,400.5 L 593.0,404.5 L 591.0,404.5 L 590.0,405.5 L 586.0,405.5 L 585.0,406.5 L 583.0,406.5 L 582.0,405.5 L 578.0,405.5 L 576.0,404.5 L 574.5,406.0 L 573.5,409.0 L 570.0,412.5 L 569.0,412.5 L 565.0,415.5 L 557.5,417.0 L 557.5,418.0 L 560.5,421.0 L 561.5,424.0 L 563.5,426.0 L 567.5,434.0 L 568.5,439.0 L 570.5,442.0 L 570.5,445.0 L 571.5,446.0 L 572.5,451.0 L 573.5,452.0 L 573.5,455.0 L 574.5,456.0 L 574.5,459.0 L 575.5,460.0 L 575.5,463.0 L 576.5,464.0 L 577.5,471.0 L 578.5,472.0 L 578.5,476.0 L 579.5,477.0 L 579.5,481.0 L 580.5,482.0 L 580.5,488.0 L 578.0,490.5 L 574.5,492.0 L 574.5,495.0 L 575.5,496.0 L 575.5,503.0 L 576.5,504.0 L 576.5,511.0 L 577.5,512.0 L 577.5,517.0 L 578.5,518.0 L 578.5,521.0 L 580.5,525.0 L 582.5,533.0 L 584.5,536.0 L 584.5,538.0 L 585.5,539.0 L 585.5,541.0 L 586.5,542.0 L 587.5,547.0 L 588.5,548.0 L 588.5,550.0 L 590.5,554.0 L 590.5,556.0 L 591.5,557.0 L 592.5,562.0 L 593.5,563.0 L 593.5,565.0 L 595.5,568.0 L 596.5,573.0 L 599.5,579.0 L 606.5,589.0 L 610.5,597.0 L 610.5,599.0 L 612.5,602.0 L 612.5,604.0 L 613.5,605.0 L 613.5,608.0 L 614.5,609.0 L 614.5,616.0 L 615.5,617.0 L 615.5,620.0 L 614.5,621.0 L 614.5,629.0 L 613.5,630.0 L 612.5,636.0 L 608.0,641.5 L 606.0,641.5 L 605.0,642.5 L 603.0,641.5 L 600.0,641.5 L 595.0,645.5 L 592.0,645.5 L 590.0,644.5 L 586.0,640.5 L 582.0,640.5 L 578.5,638.0 L 577.5,636.0 L 577.5,618.0 L 575.5,615.0 L 575.5,613.0 L 573.5,610.0 L 573.5,608.0 L 571.5,604.0 L 570.5,590.0 L 562.5,574.0 L 561.0,572.5 L 560.5,574.0 L 561.5,575.0 L 561.5,588.0 L 558.5,591.0 L 558.5,612.0 L 557.5,613.0 L 557.5,628.0 L 556.5,629.0 L 556.5,637.0 L 555.5,638.0 L 555.5,644.0 L 554.5,645.0 L 554.5,651.0 L 553.5,652.0 L 552.5,663.0 L 551.5,664.0 L 551.5,668.0 L 550.5,669.0 L 550.5,673.0 L 549.5,674.0 L 549.5,678.0 L 548.5,679.0 L 548.5,683.0 L 547.5,684.0 L 547.5,688.0 L 546.5,689.0 L 546.5,692.0 L 545.5,693.0 L 545.5,696.0 L 544.5,697.0 L 543.5,703.0 L 544.5,704.0 L 544.5,707.0 L 545.5,708.0 L 545.5,711.0 L 546.5,712.0 L 546.5,716.0 L 547.5,717.0 L 547.5,720.0 L 548.5,721.0 L 548.5,724.0 L 549.5,725.0 L 550.5,734.0 L 551.5,735.0 L 552.5,743.0 L 553.5,744.0 L 553.5,747.0 L 554.5,748.0 L 554.5,752.0 L 555.5,753.0 L 555.5,756.0 L 556.5,757.0 L 556.5,761.0 L 557.5,762.0 L 557.5,766.0 L 558.5,767.0 L 558.5,771.0 L 559.5,772.0 L 559.5,775.0 L 560.5,776.0 L 561.5,784.0 L 562.5,785.0 L 562.5,789.0 L 563.5,790.0 L 563.5,794.0 L 564.5,795.0 L 564.5,798.0 L 565.5,799.0 L 566.5,808.0 L 567.5,809.0 L 567.5,812.0 L 568.5,813.0 L 569.5,822.0 L 570.5,823.0 L 570.5,826.0 L 571.5,827.0 L 571.5,832.0 L 572.5,833.0 L 572.5,835.0 L 568.5,840.0 L 568.5,842.0 L 572.0,844.5 L 574.0,844.5 L 575.0,845.5 L 579.0,845.5 L 580.0,846.5 L 600.0,847.5 L 601.0,848.5 L 607.0,848.5 L 608.0,849.5 L 611.0,849.5 L 615.0,851.5 L 619.5,856.0 L 620.5,858.0 L 620.5,864.0 L 619.5,866.0 L 614.0,870.5 L 610.0,871.5 L 600.0,876.5 L 598.0,876.5 L 594.0,878.5 L 592.0,878.5 L 589.0,880.5 L 581.0,882.5 L 580.0,883.5 L 577.0,883.5 L 573.0,885.5 L 570.0,885.5 L 569.0,886.5 L 562.0,887.5 L 561.0,888.5 L 557.0,888.5 L 556.0,889.5 L 551.0,889.5 L 550.0,890.5 Z M 211.5,265.0 L 214.0,264.5 L 215.0,263.5 L 217.0,263.5 L 222.0,260.5 L 224.0,260.5 L 232.0,256.5 L 234.0,254.5 L 236.0,254.5 L 241.0,251.5 L 243.0,251.5 L 246.0,249.5 L 249.5,249.0 L 230.0,248.5 L 229.0,249.5 L 223.0,249.5 L 222.0,250.5 L 218.0,250.5 L 217.0,251.5 L 214.0,251.5 L 210.0,253.5 L 207.0,253.5 L 204.0,255.5 L 202.0,255.5 L 196.0,258.5 L 191.0,259.5 L 184.5,263.0 L 187.0,264.5 L 192.0,264.5 L 193.0,265.5 L 211.5,265.0 Z M 264.5,266.0 L 271.0,265.5 L 272.0,264.5 L 277.0,263.5 L 280.5,259.0 L 279.5,257.0 L 277.0,254.5 L 275.0,253.5 L 272.0,253.5 L 271.0,252.5 L 261.0,252.5 L 260.0,253.5 L 256.0,253.5 L 254.5,255.0 L 254.5,258.0 L 255.5,259.0 L 255.5,263.0 L 256.5,264.0 L 256.5,266.0 L 264.5,266.0 Z M 208.5,385.0 L 213.5,382.0 L 213.5,380.0 L 214.5,379.0 L 214.5,369.0 L 207.0,368.5 L 206.0,367.5 L 202.0,367.5 L 198.0,365.5 L 196.0,365.5 L 192.0,362.5 L 191.0,362.5 L 188.5,360.0 L 188.5,357.0 L 190.0,355.5 L 192.0,355.5 L 196.0,358.5 L 200.0,359.5 L 201.0,360.5 L 203.0,360.5 L 204.0,361.5 L 211.0,361.5 L 212.0,362.5 L 214.0,362.5 L 215.0,361.5 L 221.0,361.5 L 222.0,360.5 L 225.0,360.5 L 231.0,357.5 L 238.5,350.0 L 238.5,349.0 L 240.5,347.0 L 245.5,337.0 L 246.5,331.0 L 247.5,330.0 L 247.5,327.0 L 248.5,326.0 L 248.5,323.0 L 249.5,322.0 L 249.5,317.0 L 250.5,316.0 L 250.5,308.0 L 251.5,307.0 L 251.5,285.0 L 246.0,282.5 L 234.0,282.5 L 233.5,279.0 L 236.0,277.5 L 247.0,277.5 L 250.0,279.5 L 250.5,279.0 L 250.5,268.0 L 249.5,267.0 L 248.5,258.0 L 247.0,256.5 L 227.0,266.5 L 225.0,266.5 L 220.0,269.5 L 218.0,269.5 L 214.0,271.5 L 211.0,271.5 L 210.0,272.5 L 194.0,272.5 L 193.0,271.5 L 188.0,271.5 L 187.0,270.5 L 184.0,270.5 L 183.0,269.5 L 180.0,269.5 L 179.0,268.5 L 175.0,267.5 L 174.5,274.0 L 173.5,275.0 L 173.5,284.0 L 172.5,285.0 L 172.5,289.0 L 168.5,297.0 L 165.0,299.5 L 160.0,299.5 L 155.0,294.5 L 151.0,293.5 L 147.5,296.0 L 145.5,300.0 L 145.5,308.0 L 147.5,312.0 L 152.0,316.5 L 157.0,317.5 L 158.0,316.5 L 162.0,315.5 L 164.5,318.0 L 164.5,320.0 L 162.5,322.0 L 162.5,323.0 L 165.5,328.0 L 165.5,330.0 L 167.5,334.0 L 169.5,336.0 L 169.5,337.0 L 171.5,339.0 L 172.5,342.0 L 175.5,346.0 L 175.5,368.0 L 174.5,369.0 L 174.5,375.0 L 176.0,375.5 L 181.0,380.5 L 187.0,383.5 L 189.0,383.5 L 190.0,384.5 L 193.0,384.5 L 194.0,385.5 L 208.5,385.0 Z M 164.5,293.0 L 166.5,289.0 L 166.5,286.0 L 167.5,285.0 L 167.5,280.0 L 168.5,279.0 L 168.0,271.5 L 166.0,271.5 L 164.0,273.5 L 161.0,274.5 L 159.0,276.5 L 156.0,277.5 L 152.5,280.0 L 153.5,282.0 L 153.5,287.0 L 158.0,288.5 L 163.0,293.5 L 164.5,293.0 Z M 192.0,285.5 L 189.0,285.5 L 187.5,284.0 L 187.5,283.0 L 190.0,280.5 L 194.0,278.5 L 197.0,278.5 L 198.0,277.5 L 206.0,277.5 L 207.0,278.5 L 209.0,278.5 L 211.5,281.0 L 209.0,283.5 L 207.0,283.5 L 206.0,282.5 L 198.0,282.5 L 192.0,285.5 Z M 522.5,385.0 L 529.0,383.5 L 540.0,377.5 L 552.5,365.0 L 560.5,351.0 L 560.5,347.0 L 562.0,345.5 L 564.0,345.5 L 567.0,347.5 L 572.0,347.5 L 574.0,346.5 L 578.5,341.0 L 578.5,338.0 L 579.5,337.0 L 579.5,333.0 L 578.5,332.0 L 578.5,330.0 L 575.0,326.5 L 571.0,325.5 L 568.0,327.5 L 565.0,327.5 L 558.5,321.0 L 557.5,317.0 L 556.5,316.0 L 556.5,313.0 L 555.5,312.0 L 555.5,304.0 L 556.5,303.0 L 555.0,301.5 L 548.0,298.5 L 541.5,291.0 L 540.5,285.0 L 539.5,284.0 L 539.0,278.5 L 532.0,282.5 L 520.0,282.5 L 518.0,281.5 L 510.0,290.5 L 506.0,292.5 L 496.0,292.5 L 495.0,291.5 L 492.0,291.5 L 491.5,293.0 L 487.0,297.5 L 483.0,299.5 L 480.0,299.5 L 478.5,301.0 L 478.5,303.0 L 477.5,304.0 L 477.5,308.0 L 476.5,309.0 L 476.5,316.0 L 475.5,317.0 L 475.5,339.0 L 476.5,340.0 L 476.5,346.0 L 477.5,347.0 L 477.5,351.0 L 478.5,352.0 L 480.5,360.0 L 483.5,366.0 L 485.5,368.0 L 485.5,369.0 L 496.0,379.5 L 505.0,384.5 L 508.0,384.5 L 509.0,385.5 L 522.5,385.0 Z M 203.0,300.5 L 201.0,300.5 L 198.5,298.0 L 198.5,293.0 L 201.0,290.5 L 203.0,290.5 L 205.5,293.0 L 205.5,298.0 L 203.0,300.5 Z M 228.0,321.5 L 219.0,321.5 L 217.5,320.0 L 217.5,319.0 L 219.0,317.5 L 225.0,317.5 L 229.5,314.0 L 228.5,308.0 L 226.5,305.0 L 225.5,300.0 L 222.5,294.0 L 222.5,292.0 L 224.0,290.5 L 225.0,290.5 L 226.5,292.0 L 229.5,298.0 L 229.5,300.0 L 231.5,303.0 L 231.5,305.0 L 232.5,306.0 L 233.5,311.0 L 234.5,312.0 L 234.5,315.0 L 233.5,317.0 L 228.0,321.5 Z M 244.0,300.5 L 241.0,300.5 L 238.5,297.0 L 239.5,293.0 L 242.0,290.5 L 245.0,291.5 L 246.5,294.0 L 246.5,297.0 L 244.0,300.5 Z M 483.0,309.5 L 480.5,309.0 L 480.5,306.0 L 483.0,303.5 L 487.0,301.5 L 496.0,301.5 L 500.5,305.0 L 500.5,306.0 L 499.0,307.5 L 497.0,307.5 L 493.0,305.5 L 490.0,305.5 L 489.0,306.5 L 485.0,307.5 L 483.0,309.5 Z M 546.0,315.5 L 545.0,315.5 L 541.0,311.5 L 537.0,309.5 L 535.0,309.5 L 534.0,308.5 L 526.0,309.5 L 524.5,308.0 L 524.5,307.0 L 526.0,305.5 L 528.0,305.5 L 529.0,304.5 L 537.0,304.5 L 538.0,305.5 L 540.0,305.5 L 547.5,312.0 L 547.5,314.0 L 546.0,315.5 Z M 490.0,327.5 L 487.0,327.5 L 484.5,325.0 L 484.5,320.0 L 487.0,316.5 L 490.0,316.5 L 492.5,319.0 L 492.5,325.0 L 490.0,327.5 Z M 532.0,331.5 L 529.0,331.5 L 526.5,329.0 L 526.5,323.0 L 529.0,320.5 L 532.0,320.5 L 534.5,323.0 L 534.5,329.0 L 532.0,331.5 Z M 512.0,347.5 L 505.0,347.5 L 503.0,346.5 L 498.5,341.0 L 499.5,335.0 L 501.5,331.0 L 503.5,329.0 L 505.5,324.0 L 507.0,322.5 L 509.5,323.0 L 509.5,327.0 L 506.5,333.0 L 504.5,335.0 L 503.5,341.0 L 508.0,343.5 L 512.0,343.5 L 513.5,345.0 L 513.5,346.0 L 512.0,347.5 Z M 225.0,344.5 L 212.0,344.5 L 211.0,343.5 L 209.0,343.5 L 205.0,341.5 L 201.5,337.0 L 202.5,333.0 L 206.0,330.5 L 210.0,330.5 L 211.0,329.5 L 223.0,329.5 L 224.0,330.5 L 231.0,330.5 L 232.5,332.0 L 232.0,334.5 L 209.0,334.5 L 207.5,336.0 L 207.5,337.0 L 210.0,338.5 L 213.0,338.5 L 214.0,339.5 L 222.0,339.5 L 223.0,340.5 L 225.0,340.5 L 226.5,342.0 L 226.5,343.0 L 225.0,344.5 Z M 515.0,366.5 L 507.0,366.5 L 504.5,365.0 L 503.5,362.0 L 507.0,359.5 L 513.0,359.5 L 517.5,363.0 L 517.5,364.0 L 515.0,366.5 Z M 128.5,602.0 L 132.0,601.5 L 138.0,598.5 L 140.0,596.5 L 147.0,592.5 L 150.5,589.0 L 150.5,583.0 L 149.5,582.0 L 149.5,579.0 L 147.5,575.0 L 145.5,567.0 L 141.5,559.0 L 141.5,557.0 L 139.5,554.0 L 138.5,549.0 L 136.5,546.0 L 135.5,541.0 L 134.5,540.0 L 134.5,538.0 L 132.5,534.0 L 132.5,531.0 L 131.5,530.0 L 131.5,527.0 L 130.5,526.0 L 130.5,523.0 L 129.5,522.0 L 129.5,519.0 L 128.5,518.0 L 128.5,512.0 L 129.5,511.0 L 130.5,502.0 L 131.5,501.0 L 131.5,498.0 L 132.5,497.0 L 132.5,494.0 L 133.5,493.0 L 133.5,490.0 L 134.5,489.0 L 134.5,486.0 L 135.5,485.0 L 136.5,478.0 L 137.5,477.0 L 137.5,474.0 L 139.5,470.0 L 139.5,467.0 L 140.5,466.0 L 141.5,461.0 L 142.5,460.0 L 143.5,454.0 L 145.5,451.0 L 146.5,446.0 L 148.0,444.5 L 150.0,444.5 L 152.5,447.0 L 152.5,449.0 L 151.5,450.0 L 151.5,453.0 L 150.5,454.0 L 150.5,456.0 L 149.5,457.0 L 149.5,459.0 L 147.5,463.0 L 146.5,470.0 L 144.5,474.0 L 144.5,477.0 L 143.5,478.0 L 143.5,481.0 L 142.5,482.0 L 142.5,485.0 L 141.5,486.0 L 141.5,489.0 L 140.5,490.0 L 140.5,493.0 L 139.5,494.0 L 139.5,497.0 L 138.5,498.0 L 138.5,502.0 L 137.5,503.0 L 137.5,506.0 L 136.5,507.0 L 136.5,510.0 L 135.5,511.0 L 135.5,518.0 L 136.5,519.0 L 137.5,526.0 L 139.5,530.0 L 139.5,533.0 L 140.5,534.0 L 142.5,542.0 L 144.5,545.0 L 145.5,550.0 L 147.5,553.0 L 148.5,558.0 L 152.5,566.0 L 152.5,568.0 L 153.5,569.0 L 153.5,571.0 L 154.5,572.0 L 154.5,574.0 L 156.5,578.0 L 157.5,585.0 L 161.0,585.5 L 162.0,586.5 L 173.0,587.5 L 174.0,588.5 L 183.0,588.5 L 184.0,589.5 L 215.0,589.5 L 216.0,588.5 L 224.0,588.5 L 225.0,587.5 L 231.0,587.5 L 232.0,586.5 L 236.0,586.5 L 237.0,585.5 L 242.0,585.5 L 243.0,584.5 L 247.0,583.5 L 248.5,582.0 L 250.5,578.0 L 250.5,576.0 L 251.5,575.0 L 251.5,569.0 L 252.5,568.0 L 252.5,547.0 L 251.5,546.0 L 251.5,536.0 L 250.5,535.0 L 250.5,527.0 L 249.5,526.0 L 248.5,506.0 L 247.5,505.0 L 247.5,489.0 L 246.5,488.0 L 246.5,469.0 L 245.5,468.0 L 245.5,443.0 L 244.5,442.0 L 247.0,438.5 L 249.0,438.5 L 251.5,441.0 L 251.5,453.0 L 252.5,454.0 L 252.5,472.0 L 253.5,473.0 L 253.5,491.0 L 254.5,492.0 L 254.5,505.0 L 255.5,506.0 L 255.5,516.0 L 256.5,517.0 L 256.5,523.0 L 260.0,527.5 L 261.0,527.5 L 265.0,530.5 L 267.0,530.5 L 268.0,531.5 L 273.0,531.5 L 274.0,532.5 L 276.0,531.5 L 282.0,531.5 L 295.0,525.5 L 297.0,523.5 L 300.0,522.5 L 305.0,518.5 L 311.0,515.5 L 314.0,512.5 L 315.0,512.5 L 318.0,509.5 L 319.0,509.5 L 322.0,506.5 L 323.0,506.5 L 327.0,502.5 L 328.0,502.5 L 343.5,487.0 L 344.5,485.0 L 340.0,482.5 L 334.5,476.0 L 328.5,465.0 L 328.5,463.0 L 327.5,462.0 L 327.0,459.5 L 320.0,462.5 L 318.0,464.5 L 312.0,467.5 L 307.0,471.5 L 304.0,472.5 L 290.0,482.5 L 284.0,485.5 L 280.0,484.5 L 278.5,482.0 L 278.5,479.0 L 277.5,478.0 L 277.5,475.0 L 276.5,474.0 L 276.5,471.0 L 275.5,470.0 L 275.5,467.0 L 274.5,466.0 L 274.5,463.0 L 273.5,462.0 L 273.5,458.0 L 272.5,457.0 L 272.5,454.0 L 271.5,453.0 L 271.5,450.0 L 270.5,449.0 L 270.5,446.0 L 268.5,442.0 L 267.5,435.0 L 266.5,434.0 L 266.5,431.0 L 264.5,427.0 L 263.5,422.0 L 261.5,419.0 L 261.5,417.0 L 258.5,412.0 L 258.5,410.0 L 256.5,408.0 L 255.5,405.0 L 252.5,402.0 L 252.5,401.0 L 247.0,395.5 L 246.0,395.5 L 243.0,392.5 L 240.0,391.5 L 238.0,389.5 L 235.0,388.5 L 233.0,386.5 L 221.0,380.5 L 218.5,386.0 L 216.0,388.5 L 215.0,388.5 L 211.0,391.5 L 208.0,391.5 L 207.0,392.5 L 195.0,392.5 L 194.0,391.5 L 186.0,390.5 L 175.0,384.5 L 168.0,377.5 L 160.0,379.5 L 157.0,381.5 L 155.0,381.5 L 143.0,387.5 L 141.0,389.5 L 136.0,391.5 L 133.0,394.5 L 132.0,394.5 L 121.5,405.0 L 121.5,406.0 L 117.5,411.0 L 111.5,423.0 L 111.5,425.0 L 106.5,435.0 L 106.5,437.0 L 104.5,441.0 L 104.5,443.0 L 102.5,446.0 L 102.5,449.0 L 101.5,450.0 L 101.5,452.0 L 99.5,456.0 L 99.5,459.0 L 98.5,460.0 L 98.5,463.0 L 96.5,467.0 L 95.5,475.0 L 94.5,476.0 L 93.5,483.0 L 92.5,484.0 L 92.5,488.0 L 91.5,489.0 L 91.5,493.0 L 90.5,494.0 L 90.5,500.0 L 89.5,501.0 L 89.5,522.0 L 90.5,523.0 L 91.5,532.0 L 93.5,536.0 L 93.5,539.0 L 95.5,543.0 L 95.5,545.0 L 96.5,546.0 L 98.5,554.0 L 103.5,564.0 L 103.5,566.0 L 107.5,573.0 L 107.5,575.0 L 116.5,593.0 L 122.0,600.5 L 126.0,601.5 L 127.0,602.5 L 128.5,602.0 Z M 527.5,428.0 L 530.5,422.0 L 530.5,407.0 L 529.5,406.0 L 529.5,403.0 L 528.5,402.0 L 529.5,390.0 L 528.0,389.5 L 524.0,391.5 L 507.0,391.5 L 506.0,390.5 L 501.0,389.5 L 500.5,392.0 L 499.5,393.0 L 499.5,395.0 L 496.5,399.0 L 496.5,401.0 L 514.0,419.5 L 515.0,419.5 L 523.0,426.5 L 527.0,428.5 L 527.5,428.0 Z M 531.5,589.0 L 538.0,588.5 L 539.0,587.5 L 544.0,587.5 L 545.0,586.5 L 549.0,586.5 L 550.0,585.5 L 553.0,585.5 L 554.5,584.0 L 554.5,575.0 L 553.5,574.0 L 553.5,566.0 L 552.5,565.0 L 551.5,548.0 L 550.5,547.0 L 550.5,536.0 L 549.5,535.0 L 549.5,514.0 L 550.5,513.0 L 551.5,505.0 L 555.5,498.0 L 555.5,496.0 L 558.5,490.0 L 558.5,487.0 L 559.5,486.0 L 559.5,472.0 L 558.5,471.0 L 558.5,469.0 L 556.5,465.0 L 555.5,460.0 L 553.5,457.0 L 551.5,449.0 L 550.5,448.0 L 550.5,444.0 L 552.0,442.5 L 554.0,442.5 L 555.5,444.0 L 558.5,450.0 L 558.5,452.0 L 560.5,455.0 L 560.5,457.0 L 562.5,460.0 L 564.5,468.0 L 565.5,469.0 L 565.5,472.0 L 566.5,473.0 L 566.5,486.0 L 565.5,487.0 L 566.0,487.5 L 568.0,487.5 L 571.0,485.5 L 573.5,485.0 L 573.5,481.0 L 572.5,480.0 L 572.5,477.0 L 571.5,476.0 L 571.5,472.0 L 570.5,471.0 L 570.5,468.0 L 569.5,467.0 L 569.5,464.0 L 568.5,463.0 L 568.5,460.0 L 567.5,459.0 L 567.5,456.0 L 566.5,455.0 L 566.5,452.0 L 564.5,448.0 L 564.5,445.0 L 561.5,439.0 L 561.5,437.0 L 554.5,424.0 L 544.0,413.5 L 543.0,413.5 L 540.0,410.5 L 538.0,409.5 L 537.5,410.0 L 537.5,418.0 L 536.5,419.0 L 536.5,424.0 L 535.5,425.0 L 535.5,427.0 L 533.5,431.0 L 529.0,434.5 L 525.0,434.5 L 521.0,432.5 L 519.0,430.5 L 515.0,428.5 L 511.0,424.5 L 510.0,424.5 L 497.5,412.0 L 496.5,410.0 L 490.0,403.5 L 489.0,403.5 L 479.0,408.5 L 477.0,408.5 L 473.0,410.5 L 471.0,412.5 L 468.0,413.5 L 458.5,422.0 L 458.5,423.0 L 453.5,429.0 L 448.5,439.0 L 448.5,441.0 L 446.5,444.0 L 446.5,446.0 L 445.5,447.0 L 445.5,449.0 L 444.5,450.0 L 444.5,452.0 L 442.5,456.0 L 442.5,459.0 L 440.5,463.0 L 440.5,466.0 L 439.5,467.0 L 438.5,474.0 L 437.5,475.0 L 436.5,485.0 L 439.0,485.5 L 440.0,486.5 L 442.0,486.5 L 443.0,487.5 L 445.0,487.5 L 446.0,488.5 L 449.0,488.5 L 450.0,489.5 L 454.0,489.5 L 455.0,490.5 L 459.0,490.5 L 460.0,491.5 L 474.0,492.5 L 474.5,487.0 L 475.5,486.0 L 475.5,482.0 L 476.5,481.0 L 476.5,476.0 L 477.5,475.0 L 477.5,471.0 L 478.5,470.0 L 478.5,466.0 L 479.5,465.0 L 479.5,461.0 L 480.5,460.0 L 480.5,458.0 L 483.0,455.5 L 485.0,455.5 L 486.5,457.0 L 486.5,462.0 L 485.5,463.0 L 485.5,468.0 L 484.5,469.0 L 484.5,474.0 L 483.5,475.0 L 483.5,480.0 L 482.5,481.0 L 482.5,486.0 L 481.5,487.0 L 480.5,496.0 L 479.0,498.5 L 475.0,499.5 L 473.5,502.0 L 473.5,509.0 L 472.5,510.0 L 472.5,515.0 L 471.5,516.0 L 471.5,524.0 L 470.5,525.0 L 470.5,529.0 L 471.5,530.0 L 471.5,537.0 L 472.5,538.0 L 472.5,543.0 L 473.5,544.0 L 473.5,549.0 L 474.5,550.0 L 474.5,556.0 L 475.5,557.0 L 475.5,562.0 L 476.5,563.0 L 477.5,574.0 L 478.5,575.0 L 478.5,579.0 L 479.5,580.0 L 479.5,586.0 L 481.0,587.5 L 483.0,587.5 L 484.0,588.5 L 492.0,588.5 L 493.0,589.5 L 531.5,589.0 Z M 346.5,478.0 L 349.0,477.5 L 350.0,476.5 L 361.0,476.5 L 362.0,475.5 L 368.0,475.5 L 369.0,474.5 L 376.0,473.5 L 379.0,471.5 L 381.0,471.5 L 387.0,468.5 L 391.5,465.0 L 392.5,462.0 L 391.0,460.5 L 390.0,461.5 L 388.0,461.5 L 387.0,462.5 L 385.0,462.5 L 384.0,463.5 L 382.0,463.5 L 378.0,465.5 L 374.0,465.5 L 372.5,462.0 L 374.0,460.5 L 376.0,460.5 L 377.0,459.5 L 379.0,459.5 L 380.0,458.5 L 382.0,458.5 L 388.0,455.5 L 390.0,455.5 L 391.0,454.5 L 395.0,453.5 L 396.5,452.0 L 396.5,449.0 L 395.0,447.5 L 394.0,447.5 L 384.0,452.5 L 372.0,455.5 L 370.5,454.0 L 370.5,452.0 L 373.0,449.5 L 376.0,449.5 L 382.0,446.5 L 384.0,446.5 L 390.0,443.5 L 390.5,442.0 L 389.0,440.5 L 386.0,440.5 L 385.0,441.5 L 383.0,441.5 L 382.0,442.5 L 374.0,444.5 L 373.0,445.5 L 369.0,445.5 L 368.0,446.5 L 355.0,446.5 L 353.5,445.0 L 353.5,441.0 L 358.5,433.0 L 358.5,429.0 L 357.0,428.5 L 340.5,446.0 L 337.5,452.0 L 337.5,454.0 L 334.5,458.0 L 335.5,464.0 L 339.5,472.0 L 346.0,478.5 L 346.5,478.0 Z M 361.0,462.5 L 359.0,462.5 L 358.0,461.5 L 349.0,461.5 L 348.0,462.5 L 346.0,462.5 L 344.5,461.0 L 344.5,460.0 L 349.0,456.5 L 358.0,456.5 L 359.0,457.5 L 361.0,457.5 L 362.5,459.0 L 361.0,462.5 Z M 481.5,654.0 L 482.5,653.0 L 479.5,649.0 L 474.5,639.0 L 474.5,637.0 L 473.5,636.0 L 473.5,632.0 L 475.0,630.5 L 476.0,630.5 L 478.5,633.0 L 479.5,638.0 L 483.5,646.0 L 488.0,650.5 L 489.5,649.0 L 489.5,646.0 L 486.5,641.0 L 486.5,639.0 L 485.5,638.0 L 483.5,630.0 L 482.5,629.0 L 482.5,622.0 L 484.0,620.5 L 485.0,620.5 L 491.0,626.5 L 493.0,627.5 L 494.5,627.0 L 494.5,624.0 L 491.5,620.0 L 488.5,614.0 L 476.5,600.0 L 475.5,598.0 L 475.5,595.0 L 474.5,594.0 L 474.5,590.0 L 473.5,589.0 L 473.5,585.0 L 472.5,584.0 L 472.5,579.0 L 471.5,578.0 L 471.5,574.0 L 470.5,573.0 L 470.5,567.0 L 469.5,566.0 L 468.5,555.0 L 467.5,554.0 L 467.5,548.0 L 466.5,547.0 L 465.5,536.0 L 464.5,535.0 L 464.5,519.0 L 465.5,518.0 L 465.5,511.0 L 466.5,510.0 L 466.5,504.0 L 467.5,503.0 L 467.5,499.0 L 460.0,498.5 L 459.0,497.5 L 455.0,497.5 L 454.0,496.5 L 450.0,496.5 L 449.0,495.5 L 442.0,494.5 L 440.5,496.0 L 440.5,506.0 L 439.5,507.0 L 439.5,520.0 L 438.5,521.0 L 438.5,525.0 L 439.5,526.0 L 439.5,535.0 L 440.5,536.0 L 441.5,545.0 L 442.5,546.0 L 442.5,549.0 L 443.5,550.0 L 443.5,554.0 L 444.5,555.0 L 444.5,558.0 L 445.5,559.0 L 445.5,562.0 L 446.5,563.0 L 446.5,566.0 L 447.5,567.0 L 448.5,574.0 L 450.5,578.0 L 450.5,581.0 L 451.5,582.0 L 452.5,589.0 L 453.5,590.0 L 454.5,595.0 L 455.5,596.0 L 455.5,599.0 L 456.5,600.0 L 456.5,620.0 L 457.5,621.0 L 457.5,629.0 L 458.5,630.0 L 458.5,633.0 L 459.5,634.0 L 460.5,640.0 L 463.5,646.0 L 467.0,649.5 L 468.5,649.0 L 466.5,646.0 L 466.5,644.0 L 463.5,638.0 L 463.5,635.0 L 465.0,633.5 L 467.0,633.5 L 468.5,636.0 L 468.5,638.0 L 475.5,651.0 L 480.0,654.5 L 481.5,654.0 Z M 594.5,639.0 L 596.5,637.0 L 596.5,634.0 L 597.5,633.0 L 597.5,627.0 L 599.5,623.0 L 595.0,621.5 L 592.5,619.0 L 589.5,609.0 L 586.5,607.0 L 586.5,606.0 L 583.5,602.0 L 583.5,600.0 L 582.5,599.0 L 582.5,596.0 L 583.5,594.0 L 585.0,593.5 L 587.5,596.0 L 587.5,599.0 L 588.5,601.0 L 593.5,606.0 L 595.5,610.0 L 596.5,616.0 L 598.0,617.5 L 599.5,616.0 L 599.5,605.0 L 598.5,604.0 L 598.5,602.0 L 600.0,600.5 L 601.0,600.5 L 603.5,603.0 L 603.5,605.0 L 604.5,606.0 L 604.5,618.0 L 602.5,620.0 L 602.5,621.0 L 600.5,622.0 L 600.5,623.0 L 603.5,625.0 L 603.5,628.0 L 602.5,629.0 L 602.5,635.0 L 604.0,636.5 L 607.5,633.0 L 607.5,630.0 L 608.5,629.0 L 608.5,623.0 L 609.5,622.0 L 608.5,610.0 L 607.5,609.0 L 607.5,607.0 L 606.5,606.0 L 606.5,604.0 L 605.5,603.0 L 604.5,599.0 L 601.5,593.0 L 599.5,591.0 L 598.5,588.0 L 594.5,583.0 L 589.5,573.0 L 589.5,571.0 L 587.5,568.0 L 586.5,563.0 L 585.5,562.0 L 585.5,560.0 L 584.5,559.0 L 584.5,557.0 L 583.5,556.0 L 583.5,554.0 L 582.5,553.0 L 581.5,548.0 L 580.5,547.0 L 580.5,545.0 L 579.5,544.0 L 578.5,539.0 L 577.5,538.0 L 575.5,530.0 L 574.5,529.0 L 574.5,527.0 L 572.5,524.0 L 572.5,521.0 L 571.5,520.0 L 571.5,517.0 L 570.5,516.0 L 570.5,511.0 L 569.5,510.0 L 569.5,501.0 L 568.5,500.0 L 568.5,495.0 L 566.0,494.5 L 562.5,497.0 L 562.5,499.0 L 558.5,506.0 L 557.5,512.0 L 556.5,513.0 L 556.5,539.0 L 557.5,540.0 L 557.5,549.0 L 558.5,550.0 L 558.5,552.0 L 562.5,559.0 L 562.5,561.0 L 565.5,567.0 L 567.5,571.0 L 569.5,573.0 L 576.5,587.0 L 576.5,591.0 L 577.5,592.0 L 577.5,603.0 L 578.5,604.0 L 579.5,609.0 L 581.5,612.0 L 582.5,617.0 L 583.5,618.0 L 583.5,630.0 L 582.5,631.0 L 582.5,633.0 L 584.0,635.5 L 585.0,635.5 L 586.5,634.0 L 586.5,632.0 L 587.5,631.0 L 587.5,623.0 L 589.0,620.5 L 591.0,620.5 L 592.5,622.0 L 592.5,631.0 L 591.5,632.0 L 591.5,638.0 L 593.0,639.5 L 594.5,639.0 Z M 788.5,719.0 L 791.0,716.5 L 797.0,713.5 L 803.0,712.5 L 804.0,711.5 L 808.0,711.5 L 809.0,710.5 L 821.0,709.5 L 822.0,708.5 L 829.0,708.5 L 830.0,707.5 L 840.0,707.5 L 841.0,706.5 L 853.0,706.5 L 854.0,705.5 L 871.0,705.5 L 872.0,704.5 L 921.0,704.5 L 922.0,705.5 L 942.0,705.5 L 943.0,706.5 L 955.0,706.5 L 956.0,707.5 L 966.0,707.5 L 967.0,708.5 L 982.0,709.5 L 983.0,710.5 L 989.0,710.5 L 990.0,711.5 L 998.0,712.5 L 998.5,524.0 L 797.0,523.5 L 796.0,524.5 L 791.0,524.5 L 790.0,525.5 L 787.0,525.5 L 786.0,526.5 L 780.0,527.5 L 772.0,531.5 L 770.0,533.5 L 767.0,534.5 L 763.0,538.5 L 762.0,538.5 L 757.5,543.0 L 757.5,544.0 L 753.5,548.0 L 753.5,549.0 L 749.5,554.0 L 747.5,558.0 L 747.5,560.0 L 745.5,563.0 L 744.5,569.0 L 743.5,570.0 L 743.5,573.0 L 742.5,574.0 L 742.5,580.0 L 741.5,581.0 L 741.5,636.0 L 745.0,636.5 L 746.0,637.5 L 750.0,637.5 L 751.0,638.5 L 756.0,639.5 L 766.0,644.5 L 775.5,653.0 L 775.5,654.0 L 780.5,660.0 L 782.5,664.0 L 783.5,669.0 L 784.5,670.0 L 785.5,678.0 L 786.5,679.0 L 786.5,687.0 L 787.5,688.0 L 787.5,719.0 L 788.5,719.0 Z M 443.5,581.0 L 443.5,578.0 L 441.5,574.0 L 441.5,571.0 L 440.0,570.5 L 439.5,574.0 L 438.5,575.0 L 438.5,580.0 L 441.0,581.5 L 443.5,581.0 Z M 536.5,845.0 L 542.0,844.5 L 543.0,843.5 L 546.0,843.5 L 550.0,841.5 L 555.0,840.5 L 564.0,835.5 L 565.5,834.0 L 565.5,832.0 L 564.5,831.0 L 564.5,827.0 L 563.5,826.0 L 563.5,823.0 L 562.5,822.0 L 561.5,813.0 L 560.5,812.0 L 560.5,809.0 L 559.5,808.0 L 559.5,804.0 L 558.5,803.0 L 558.5,800.0 L 557.5,799.0 L 557.5,795.0 L 556.5,794.0 L 556.5,791.0 L 555.5,790.0 L 554.5,781.0 L 553.5,780.0 L 553.5,777.0 L 552.5,776.0 L 552.5,772.0 L 551.5,771.0 L 551.5,767.0 L 550.5,766.0 L 550.5,762.0 L 549.5,761.0 L 549.5,757.0 L 548.5,756.0 L 548.5,753.0 L 547.5,752.0 L 546.5,743.0 L 545.5,742.0 L 545.5,739.0 L 544.5,738.0 L 544.5,734.0 L 543.5,733.0 L 543.5,730.0 L 542.5,729.0 L 542.5,726.0 L 541.5,725.0 L 541.5,721.0 L 540.5,720.0 L 540.5,717.0 L 539.5,716.0 L 539.5,713.0 L 538.5,712.0 L 538.5,709.0 L 537.5,708.0 L 537.5,705.0 L 536.5,704.0 L 536.5,700.0 L 535.5,699.0 L 535.5,696.0 L 533.5,692.0 L 533.5,689.0 L 532.5,688.0 L 531.5,681.0 L 530.5,680.0 L 530.5,677.0 L 528.5,673.0 L 528.5,670.0 L 526.5,666.0 L 525.5,659.0 L 523.5,655.0 L 523.5,652.0 L 521.5,648.0 L 521.5,645.0 L 520.5,644.0 L 519.5,637.0 L 518.5,636.0 L 517.5,629.0 L 516.5,628.0 L 516.5,620.0 L 519.0,619.5 L 522.5,624.0 L 522.5,626.0 L 523.5,627.0 L 523.5,629.0 L 525.5,633.0 L 526.5,640.0 L 528.5,644.0 L 529.5,651.0 L 531.5,655.0 L 532.5,662.0 L 533.5,663.0 L 534.5,669.0 L 536.5,673.0 L 537.5,680.0 L 538.5,681.0 L 538.5,683.0 L 539.5,684.0 L 540.0,686.5 L 540.5,683.0 L 541.5,682.0 L 541.5,679.0 L 542.5,678.0 L 542.5,674.0 L 543.5,673.0 L 543.5,669.0 L 544.5,668.0 L 545.5,659.0 L 546.5,658.0 L 546.5,652.0 L 547.5,651.0 L 547.5,646.0 L 548.5,645.0 L 548.5,638.0 L 549.5,637.0 L 549.5,630.0 L 550.5,629.0 L 550.5,618.0 L 551.5,617.0 L 551.5,593.0 L 550.0,592.5 L 549.0,593.5 L 546.0,593.5 L 545.0,594.5 L 540.0,594.5 L 539.0,595.5 L 531.0,595.5 L 530.0,596.5 L 495.0,596.5 L 494.0,595.5 L 484.0,595.5 L 483.0,594.5 L 481.5,596.0 L 486.5,601.0 L 486.5,602.0 L 491.5,607.0 L 491.5,608.0 L 496.5,614.0 L 500.5,622.0 L 501.5,629.0 L 498.0,633.5 L 490.5,634.0 L 493.5,640.0 L 493.5,642.0 L 495.5,645.0 L 495.5,652.0 L 494.5,654.0 L 491.0,656.5 L 487.0,656.5 L 486.5,658.0 L 483.0,660.5 L 479.0,660.5 L 478.0,659.5 L 476.0,659.5 L 473.0,656.5 L 468.0,656.5 L 467.0,655.5 L 463.0,654.5 L 458.5,650.0 L 454.5,642.0 L 453.5,637.0 L 452.5,636.0 L 452.5,632.0 L 451.5,631.0 L 451.5,625.0 L 450.5,624.0 L 450.5,602.0 L 449.5,601.0 L 449.5,599.0 L 448.5,598.0 L 446.5,590.0 L 444.0,589.5 L 443.0,588.5 L 441.0,588.5 L 440.5,595.0 L 439.5,596.0 L 439.5,617.0 L 440.5,618.0 L 440.5,624.0 L 441.5,625.0 L 441.5,630.0 L 443.5,634.0 L 443.5,637.0 L 445.5,640.0 L 445.5,642.0 L 447.5,645.0 L 447.5,647.0 L 450.5,652.0 L 450.5,654.0 L 461.5,676.0 L 463.5,678.0 L 474.5,701.0 L 476.5,703.0 L 478.5,708.0 L 480.5,710.0 L 485.5,721.0 L 487.5,723.0 L 493.5,735.0 L 493.5,737.0 L 495.5,740.0 L 495.5,742.0 L 497.5,746.0 L 497.5,749.0 L 499.5,753.0 L 499.5,756.0 L 501.5,760.0 L 502.5,766.0 L 503.5,767.0 L 503.5,770.0 L 504.5,771.0 L 505.5,776.0 L 506.5,777.0 L 506.5,780.0 L 507.5,781.0 L 509.5,789.0 L 511.5,792.0 L 512.5,797.0 L 513.5,798.0 L 515.5,806.0 L 516.5,807.0 L 517.5,812.0 L 519.5,815.0 L 519.5,817.0 L 520.5,818.0 L 520.5,820.0 L 521.5,821.0 L 521.5,823.0 L 522.5,824.0 L 524.5,832.0 L 526.5,835.0 L 528.5,843.0 L 530.0,845.5 L 536.5,845.0 Z M 230.5,857.0 L 245.0,853.5 L 248.0,851.5 L 250.0,851.5 L 253.0,849.5 L 255.0,849.5 L 261.0,846.5 L 263.0,844.5 L 266.0,843.5 L 269.0,840.5 L 270.5,840.0 L 270.5,835.0 L 269.5,834.0 L 269.5,831.0 L 267.5,827.0 L 266.5,821.0 L 264.5,817.0 L 264.5,814.0 L 262.5,810.0 L 262.5,807.0 L 260.5,803.0 L 260.5,800.0 L 258.5,796.0 L 258.5,793.0 L 256.5,789.0 L 256.5,786.0 L 254.5,782.0 L 254.5,779.0 L 253.5,778.0 L 253.5,776.0 L 251.5,772.0 L 251.5,769.0 L 250.5,768.0 L 249.5,762.0 L 247.5,758.0 L 247.5,755.0 L 245.5,751.0 L 245.5,748.0 L 244.5,747.0 L 244.5,745.0 L 242.5,741.0 L 242.5,738.0 L 240.5,734.0 L 240.5,731.0 L 238.5,727.0 L 238.5,725.0 L 237.5,724.0 L 237.5,722.0 L 235.5,718.0 L 235.5,716.0 L 233.5,712.0 L 232.5,707.0 L 231.5,706.0 L 231.5,704.0 L 230.5,703.0 L 230.5,701.0 L 228.5,697.0 L 228.5,695.0 L 227.5,694.0 L 227.5,692.0 L 226.5,691.0 L 226.5,689.0 L 225.5,688.0 L 224.5,683.0 L 223.5,682.0 L 222.5,677.0 L 221.5,676.0 L 221.5,674.0 L 219.5,671.0 L 219.5,669.0 L 217.5,665.0 L 217.5,663.0 L 216.5,662.0 L 214.5,654.0 L 212.5,651.0 L 212.5,649.0 L 211.5,648.0 L 211.5,646.0 L 210.5,645.0 L 210.5,643.0 L 209.5,642.0 L 207.5,634.0 L 205.5,631.0 L 204.5,623.0 L 207.0,621.5 L 209.0,622.5 L 211.5,626.0 L 211.5,628.0 L 213.5,631.0 L 215.5,639.0 L 218.5,645.0 L 218.5,647.0 L 219.5,648.0 L 221.5,656.0 L 223.5,659.0 L 223.5,661.0 L 224.5,662.0 L 224.5,664.0 L 225.5,665.0 L 225.5,667.0 L 227.5,671.0 L 227.5,673.0 L 229.5,677.0 L 230.5,682.0 L 232.0,682.5 L 232.5,679.0 L 233.5,678.0 L 233.5,674.0 L 234.5,673.0 L 234.5,669.0 L 235.5,668.0 L 235.5,664.0 L 236.5,663.0 L 237.5,653.0 L 238.5,652.0 L 239.5,641.0 L 240.5,640.0 L 240.5,634.0 L 241.5,633.0 L 241.5,627.0 L 242.5,626.0 L 242.5,618.0 L 243.5,617.0 L 243.5,609.0 L 244.5,608.0 L 244.5,597.0 L 245.5,596.0 L 245.5,592.0 L 242.0,591.5 L 241.0,592.5 L 237.0,592.5 L 236.0,593.5 L 232.0,593.5 L 231.0,594.5 L 225.0,594.5 L 224.0,595.5 L 214.0,595.5 L 213.0,596.5 L 186.0,596.5 L 185.0,595.5 L 175.0,595.5 L 174.0,594.5 L 167.0,594.5 L 166.0,593.5 L 163.0,593.5 L 162.5,594.0 L 163.5,595.0 L 163.5,600.0 L 162.5,601.0 L 161.5,605.0 L 159.5,607.0 L 157.5,611.0 L 147.0,621.5 L 138.0,626.5 L 136.0,626.5 L 133.5,624.0 L 134.5,621.0 L 128.0,609.5 L 127.5,616.0 L 128.5,617.0 L 128.5,622.0 L 129.5,623.0 L 129.5,626.0 L 131.5,630.0 L 133.5,638.0 L 135.5,641.0 L 135.5,643.0 L 139.5,650.0 L 139.5,652.0 L 150.5,674.0 L 152.5,676.0 L 168.5,709.0 L 170.5,711.0 L 175.5,721.0 L 175.5,723.0 L 181.5,734.0 L 181.5,736.0 L 184.5,741.0 L 184.5,743.0 L 188.5,751.0 L 190.5,759.0 L 192.5,762.0 L 194.5,770.0 L 195.5,771.0 L 195.5,773.0 L 196.5,774.0 L 196.5,776.0 L 197.5,777.0 L 197.5,779.0 L 198.5,780.0 L 198.5,782.0 L 199.5,783.0 L 199.5,785.0 L 200.5,786.0 L 200.5,788.0 L 201.5,789.0 L 201.5,791.0 L 202.5,792.0 L 202.5,794.0 L 203.5,795.0 L 205.5,803.0 L 206.5,804.0 L 206.5,806.0 L 207.5,807.0 L 207.5,809.0 L 209.5,813.0 L 209.5,815.0 L 211.5,818.0 L 213.5,826.0 L 215.5,829.0 L 217.5,837.0 L 219.5,840.0 L 219.5,842.0 L 222.5,848.0 L 222.5,850.0 L 224.5,853.0 L 224.5,855.0 L 227.0,857.5 L 230.5,857.0 Z M 141.5,617.0 L 144.0,614.5 L 145.0,614.5 L 153.5,605.0 L 156.5,599.0 L 154.0,596.5 L 151.0,597.5 L 143.0,603.5 L 136.0,606.5 L 134.5,608.0 L 138.5,615.0 L 141.0,617.5 L 141.5,617.0 Z M 764.5,883.0 L 770.0,881.5 L 773.0,878.5 L 774.0,878.5 L 776.5,875.0 L 778.5,871.0 L 778.5,869.0 L 779.5,868.0 L 779.5,857.0 L 780.5,856.0 L 780.5,686.0 L 779.5,685.0 L 779.5,678.0 L 778.5,677.0 L 778.5,674.0 L 777.5,673.0 L 776.5,668.0 L 773.5,662.0 L 771.5,660.0 L 771.5,659.0 L 764.0,651.5 L 750.0,644.5 L 746.0,644.5 L 745.0,643.5 L 731.0,643.5 L 730.0,644.5 L 727.0,644.5 L 723.0,646.5 L 721.0,646.5 L 713.0,650.5 L 704.5,659.0 L 698.5,670.0 L 698.5,672.0 L 696.5,676.0 L 696.5,681.0 L 695.5,682.0 L 695.5,863.0 L 696.5,864.0 L 696.5,869.0 L 699.5,875.0 L 705.0,880.5 L 709.0,882.5 L 711.0,882.5 L 712.0,883.5 L 764.5,883.0 Z M 124.5,839.0 L 126.0,838.5 L 131.5,833.0 L 131.5,832.0 L 135.5,828.0 L 135.5,827.0 L 140.5,822.0 L 140.5,821.0 L 149.5,811.0 L 149.5,810.0 L 154.5,805.0 L 154.5,804.0 L 157.5,801.0 L 157.5,800.0 L 169.5,786.0 L 169.5,785.0 L 175.5,778.0 L 177.5,774.0 L 180.5,771.0 L 182.5,767.0 L 185.5,764.0 L 184.5,763.0 L 184.5,761.0 L 182.5,757.0 L 182.5,755.0 L 180.5,752.0 L 179.5,747.0 L 177.5,744.0 L 177.5,742.0 L 174.5,737.0 L 174.5,735.0 L 159.0,704.5 L 157.5,706.0 L 156.5,713.0 L 154.5,717.0 L 154.5,719.0 L 152.5,722.0 L 152.5,724.0 L 144.5,735.0 L 140.5,742.0 L 137.5,745.0 L 133.5,752.0 L 130.5,755.0 L 130.5,756.0 L 125.5,762.0 L 123.5,766.0 L 117.5,773.0 L 115.5,777.0 L 112.5,780.0 L 112.5,781.0 L 109.5,784.0 L 109.5,785.0 L 105.5,789.0 L 105.5,790.0 L 102.5,793.0 L 102.5,794.0 L 96.5,801.0 L 96.5,802.0 L 89.5,810.0 L 89.5,813.0 L 93.5,818.0 L 93.5,819.0 L 105.0,830.5 L 106.0,830.5 L 109.0,833.5 L 112.0,834.5 L 114.0,836.5 L 118.0,838.5 L 120.0,838.5 L 121.0,839.5 L 124.5,839.0 Z M 433.5,821.0 L 483.5,771.0 L 483.5,770.0 L 493.5,760.0 L 493.5,757.0 L 491.5,753.0 L 490.5,747.0 L 487.5,741.0 L 487.5,739.0 L 476.5,717.0 L 474.5,715.0 L 472.5,710.0 L 469.0,705.5 L 468.5,709.0 L 467.5,710.0 L 467.5,714.0 L 466.5,715.0 L 465.5,720.0 L 461.5,727.0 L 457.5,731.0 L 457.5,732.0 L 454.5,735.0 L 454.5,736.0 L 446.5,745.0 L 446.5,746.0 L 443.5,749.0 L 443.5,750.0 L 439.5,754.0 L 439.5,755.0 L 436.5,758.0 L 436.5,759.0 L 430.5,766.0 L 430.5,767.0 L 426.5,771.0 L 426.5,772.0 L 423.5,775.0 L 423.5,776.0 L 419.5,780.0 L 419.5,781.0 L 407.5,796.0 L 407.5,799.0 L 410.5,803.0 L 410.5,804.0 L 423.0,816.5 L 432.0,821.5 L 433.5,821.0 Z M 998.5,778.0 L 998.5,720.0 L 996.0,719.5 L 995.0,718.5 L 990.0,718.5 L 989.0,717.5 L 984.0,717.5 L 983.0,716.5 L 977.0,716.5 L 976.0,715.5 L 969.0,715.5 L 968.0,714.5 L 959.0,714.5 L 958.0,713.5 L 944.0,713.5 L 943.0,712.5 L 925.0,712.5 L 924.0,711.5 L 868.0,711.5 L 867.0,712.5 L 851.0,712.5 L 850.0,713.5 L 838.0,713.5 L 837.0,714.5 L 829.0,714.5 L 828.0,715.5 L 821.0,715.5 L 820.0,716.5 L 809.0,717.5 L 808.0,718.5 L 805.0,718.5 L 804.0,719.5 L 798.0,720.5 L 794.0,723.5 L 793.0,723.5 L 792.5,725.0 L 789.5,728.0 L 788.5,734.0 L 787.5,735.0 L 787.5,765.0 L 788.5,766.0 L 788.5,768.0 L 790.5,772.0 L 794.0,775.5 L 798.0,777.5 L 801.0,777.5 L 802.0,778.5 L 998.5,778.0 Z M 998.5,883.0 L 998.0,785.5 L 802.0,785.5 L 801.0,784.5 L 797.0,784.5 L 796.0,783.5 L 794.0,783.5 L 790.0,780.5 L 788.0,779.5 L 787.5,780.0 L 787.5,853.0 L 786.5,854.0 L 786.5,869.0 L 785.5,870.0 L 785.5,872.0 L 784.5,873.0 L 784.5,875.0 L 782.5,879.0 L 778.5,883.0 L 779.0,883.5 L 998.5,883.0 Z M 437.5,874.0 L 438.5,873.0 L 438.5,867.0 L 432.0,860.5 L 429.0,859.5 L 426.5,857.0 L 424.5,853.0 L 424.5,851.0 L 423.5,850.0 L 422.5,845.0 L 421.5,844.0 L 420.5,837.0 L 419.5,836.0 L 419.5,829.0 L 420.5,828.0 L 420.5,825.0 L 421.5,823.0 L 420.0,822.5 L 417.0,819.5 L 416.0,819.5 L 405.0,807.5 L 395.0,812.5 L 389.0,817.5 L 388.0,817.5 L 382.5,823.0 L 383.5,828.0 L 386.5,834.0 L 392.5,842.0 L 393.5,845.0 L 395.5,847.0 L 397.5,851.0 L 400.5,854.0 L 402.5,858.0 L 406.5,862.0 L 406.5,863.0 L 411.0,867.5 L 420.0,872.5 L 428.0,873.5 L 429.0,874.5 L 437.5,874.0 Z M 134.5,879.0 L 138.0,878.5 L 139.5,877.0 L 139.5,874.0 L 137.5,870.0 L 134.0,866.5 L 122.0,860.5 L 118.5,854.0 L 116.5,846.0 L 113.0,842.5 L 106.0,839.5 L 103.0,836.5 L 102.0,836.5 L 91.0,826.5 L 87.0,821.5 L 86.0,821.5 L 75.5,832.0 L 74.5,836.0 L 78.5,843.0 L 80.5,845.0 L 80.5,846.0 L 83.5,849.0 L 83.5,850.0 L 86.5,853.0 L 86.5,854.0 L 90.5,858.0 L 90.5,859.0 L 94.5,863.0 L 94.5,864.0 L 98.5,868.0 L 98.5,869.0 L 105.0,875.5 L 109.0,877.5 L 112.0,877.5 L 113.0,878.5 L 120.0,878.5 L 121.0,879.5 L 134.5,879.0 Z M 552.5,883.0 L 556.0,882.5 L 557.0,881.5 L 565.0,880.5 L 566.0,879.5 L 569.0,879.5 L 570.0,878.5 L 572.0,878.5 L 576.0,876.5 L 579.0,876.5 L 583.0,874.5 L 585.0,874.5 L 586.0,873.5 L 594.0,871.5 L 597.0,869.5 L 599.0,869.5 L 602.0,867.5 L 604.0,867.5 L 612.0,863.5 L 613.5,862.0 L 613.5,860.0 L 610.0,856.5 L 608.0,856.5 L 607.0,855.5 L 602.0,855.5 L 601.0,854.5 L 592.0,854.5 L 591.0,853.5 L 581.0,853.5 L 580.0,852.5 L 575.0,852.5 L 574.0,851.5 L 571.0,851.5 L 567.0,849.5 L 563.5,846.0 L 563.0,844.5 L 558.0,845.5 L 555.0,847.5 L 550.0,848.5 L 546.0,850.5 L 540.0,851.5 L 539.5,852.0 L 540.5,853.0 L 540.5,856.0 L 541.5,857.0 L 541.5,874.0 L 542.5,875.0 L 543.5,881.0 L 546.0,883.5 L 552.5,883.0 Z M 247.5,883.0 L 254.0,881.5 L 255.0,880.5 L 261.0,879.5 L 264.0,877.5 L 266.0,877.5 L 267.0,876.5 L 275.0,874.5 L 278.0,872.5 L 280.0,872.5 L 286.0,869.5 L 288.0,869.5 L 293.0,866.5 L 295.0,866.5 L 309.0,859.5 L 312.5,856.0 L 312.5,855.0 L 311.0,852.5 L 305.0,849.5 L 297.0,849.5 L 296.0,848.5 L 270.0,848.5 L 268.0,850.5 L 256.0,856.5 L 254.0,856.5 L 251.0,858.5 L 249.0,858.5 L 248.0,859.5 L 246.0,859.5 L 245.0,860.5 L 240.0,861.5 L 239.0,862.5 L 236.0,862.5 L 235.5,865.0 L 236.5,866.0 L 236.5,869.0 L 237.5,870.0 L 237.5,873.0 L 238.5,874.0 L 240.5,882.0 L 242.0,883.5 L 247.5,883.0 Z" fill="black" fill-rule="evenodd"/>
</svg>
