<svg xmlns="http://www.w3.org/2000/svg" viewBox="0 0 1024 1024">
  <g id="art-layer">
    <path d="M 775.0,904.5 L 753.0,904.5 L 752.0,903.5 L 748.0,903.5 L 744.0,901.5 L 740.5,898.0 L 740.0,896.5 L 730.0,897.5 L 729.0,898.5 L 721.0,898.5 L 720.0,899.5 L 685.0,899.5 L 684.0,898.5 L 681.0,898.5 L 677.0,896.5 L 674.5,894.0 L 673.5,892.0 L 673.5,886.0 L 675.5,882.0 L 683.0,874.5 L 691.0,870.5 L 693.0,868.5 L 708.0,861.5 L 709.5,860.0 L 708.5,858.0 L 708.5,855.0 L 707.5,854.0 L 706.5,838.0 L 705.5,837.0 L 705.5,829.0 L 704.5,828.0 L 704.5,821.0 L 703.0,819.5 L 451.0,819.5 L 450.5,832.0 L 449.5,833.0 L 449.5,849.0 L 448.5,850.0 L 448.5,853.0 L 446.5,856.0 L 451.0,859.5 L 468.0,867.5 L 470.0,869.5 L 476.0,872.5 L 480.5,877.0 L 483.5,883.0 L 483.5,886.0 L 484.5,888.0 L 483.5,889.0 L 483.5,892.0 L 482.5,894.0 L 480.0,896.5 L 476.0,897.5 L 475.0,898.5 L 473.0,898.5 L 472.0,899.5 L 440.0,899.5 L 439.0,898.5 L 428.0,898.5 L 427.0,897.5 L 419.0,897.5 L 418.0,896.5 L 411.0,896.5 L 410.0,895.5 L 405.0,895.5 L 404.0,894.5 L 401.0,894.5 L 400.0,893.5 L 396.0,892.5 L 393.5,890.0 L 391.5,886.0 L 391.5,882.0 L 390.5,881.0 L 390.5,871.0 L 391.5,870.0 L 391.5,863.0 L 392.5,862.0 L 392.5,859.0 L 388.5,856.0 L 387.5,854.0 L 387.5,850.0 L 386.5,849.0 L 386.5,831.0 L 385.5,830.0 L 385.5,820.0 L 364.0,819.5 L 362.5,821.0 L 362.5,831.0 L 361.5,832.0 L 361.5,844.0 L 360.5,845.0 L 360.5,853.0 L 359.5,854.0 L 359.5,857.0 L 356.5,861.0 L 356.5,862.0 L 362.0,864.5 L 364.0,866.5 L 369.0,868.5 L 371.0,870.5 L 374.0,871.5 L 381.5,877.0 L 385.5,881.0 L 385.5,882.0 L 388.5,886.0 L 388.5,888.0 L 389.5,889.0 L 389.5,895.0 L 387.5,899.0 L 385.0,901.5 L 381.0,902.5 L 380.0,903.5 L 377.0,903.5 L 376.0,904.5 L 352.0,904.5 L 351.0,903.5 L 341.0,903.5 L 340.0,902.5 L 334.0,902.5 L 333.0,901.5 L 327.0,901.5 L 326.0,900.5 L 314.0,899.5 L 313.0,898.5 L 310.0,898.5 L 309.0,897.5 L 305.0,896.5 L 301.5,893.0 L 299.5,889.0 L 299.5,873.0 L 300.5,872.0 L 300.5,866.0 L 301.5,865.0 L 301.5,862.0 L 297.5,859.0 L 296.5,855.0 L 295.5,854.0 L 295.5,835.0 L 294.5,834.0 L 294.0,819.5 L 187.0,819.5 L 185.5,821.0 L 185.5,832.0 L 184.5,833.0 L 183.5,837.0 L 180.0,840.5 L 178.0,841.5 L 154.0,841.5 L 152.0,840.5 L 147.5,836.0 L 147.5,833.0 L 146.5,832.0 L 146.0,819.5 L 120.0,819.5 L 110.0,814.5 L 105.5,809.0 L 103.5,805.0 L 103.5,803.0 L 102.5,802.0 L 102.5,620.0 L 103.5,619.0 L 104.5,611.0 L 106.5,608.0 L 106.5,606.0 L 108.5,604.0 L 111.5,598.0 L 121.0,588.5 L 122.0,588.5 L 124.0,586.5 L 130.0,583.5 L 132.0,583.5 L 136.0,581.5 L 139.0,581.5 L 140.0,580.5 L 156.0,580.5 L 157.0,581.5 L 159.5,581.0 L 159.5,508.0 L 160.5,507.0 L 161.5,497.0 L 164.5,491.0 L 164.5,489.0 L 167.5,483.0 L 169.5,481.0 L 171.5,477.0 L 174.5,474.0 L 174.5,473.0 L 184.0,464.5 L 185.0,464.5 L 190.0,460.5 L 194.0,459.5 L 202.0,455.5 L 205.0,455.5 L 206.0,454.5 L 211.0,454.5 L 212.0,453.5 L 246.0,453.5 L 246.5,451.0 L 247.5,450.0 L 247.5,445.0 L 248.5,444.0 L 248.5,439.0 L 249.5,438.0 L 249.5,434.0 L 250.5,433.0 L 250.5,429.0 L 251.5,428.0 L 252.5,419.0 L 253.5,418.0 L 253.5,415.0 L 254.5,414.0 L 254.5,411.0 L 255.5,410.0 L 255.5,407.0 L 256.5,406.0 L 257.5,399.0 L 259.5,395.0 L 259.5,392.0 L 260.5,391.0 L 260.5,389.0 L 261.5,388.0 L 261.5,386.0 L 262.5,385.0 L 264.5,377.0 L 266.5,374.0 L 266.5,372.0 L 271.5,362.0 L 273.5,360.0 L 277.5,353.0 L 287.0,342.5 L 288.0,342.5 L 293.0,337.5 L 294.0,337.5 L 297.0,334.5 L 298.0,334.5 L 303.0,330.5 L 308.0,328.5 L 310.0,326.5 L 334.0,314.5 L 340.0,313.5 L 342.5,311.0 L 342.5,308.0 L 343.5,307.0 L 343.5,304.0 L 344.5,303.0 L 344.5,298.0 L 345.5,297.0 L 345.5,288.0 L 340.5,278.0 L 339.5,272.0 L 338.5,271.0 L 338.5,268.0 L 337.0,266.5 L 331.0,265.5 L 322.5,258.0 L 320.5,254.0 L 320.5,252.0 L 319.5,251.0 L 319.5,248.0 L 318.5,247.0 L 318.5,242.0 L 319.5,241.0 L 319.5,238.0 L 320.5,237.0 L 321.5,233.0 L 327.5,227.0 L 326.5,203.0 L 327.5,202.0 L 327.5,195.0 L 328.5,194.0 L 328.5,189.0 L 329.5,188.0 L 329.5,185.0 L 330.5,184.0 L 332.5,176.0 L 340.5,162.0 L 350.0,152.5 L 351.0,152.5 L 354.0,149.5 L 357.0,148.5 L 359.0,146.5 L 363.0,144.5 L 365.0,144.5 L 368.0,142.5 L 373.0,141.5 L 374.0,140.5 L 377.0,140.5 L 378.0,139.5 L 381.0,139.5 L 382.0,138.5 L 388.0,138.5 L 389.5,137.0 L 389.5,135.0 L 395.0,129.5 L 397.0,129.5 L 398.0,128.5 L 403.0,128.5 L 409.0,131.5 L 414.0,139.5 L 418.0,139.5 L 419.0,140.5 L 422.0,140.5 L 426.0,142.5 L 428.0,142.5 L 442.0,149.5 L 445.0,152.5 L 446.0,152.5 L 454.5,161.0 L 454.5,162.0 L 457.5,165.0 L 458.5,168.0 L 460.5,170.0 L 460.5,172.0 L 462.5,175.0 L 462.5,177.0 L 464.5,181.0 L 464.5,184.0 L 465.5,185.0 L 465.5,190.0 L 466.5,191.0 L 466.5,199.0 L 467.5,200.0 L 467.5,211.0 L 469.0,211.5 L 472.0,214.5 L 473.0,214.5 L 476.0,217.5 L 477.0,217.5 L 487.0,226.5 L 488.0,226.5 L 496.5,235.0 L 496.5,236.0 L 498.5,238.0 L 498.5,240.0 L 499.5,241.0 L 499.5,245.0 L 498.5,247.0 L 493.0,251.5 L 485.0,251.5 L 484.0,250.5 L 478.0,249.5 L 477.0,248.5 L 475.0,248.5 L 471.0,246.5 L 469.0,244.5 L 463.0,241.5 L 462.5,246.0 L 461.5,247.0 L 461.5,251.0 L 460.5,252.0 L 460.5,255.0 L 459.5,256.0 L 459.5,260.0 L 458.5,261.0 L 458.5,264.0 L 456.5,268.0 L 456.5,271.0 L 455.5,272.0 L 454.5,277.0 L 452.5,280.0 L 452.5,282.0 L 450.5,285.0 L 450.5,287.0 L 448.5,291.0 L 446.5,293.0 L 445.5,296.0 L 440.5,302.0 L 440.5,303.0 L 432.0,311.5 L 431.0,311.5 L 428.0,314.5 L 417.0,320.5 L 411.0,321.5 L 409.5,323.0 L 411.0,324.5 L 423.0,330.5 L 425.0,332.5 L 432.0,336.5 L 435.0,339.5 L 436.0,339.5 L 441.0,344.5 L 442.0,344.5 L 451.5,356.0 L 454.5,362.0 L 456.5,364.0 L 459.5,370.0 L 459.5,372.0 L 461.5,375.0 L 461.5,377.0 L 463.5,381.0 L 463.5,384.0 L 465.5,388.0 L 466.5,395.0 L 467.5,396.0 L 468.5,403.0 L 469.5,404.0 L 469.5,407.0 L 470.5,408.0 L 470.5,412.0 L 471.5,413.0 L 471.5,416.0 L 472.5,417.0 L 472.5,422.0 L 473.5,423.0 L 473.5,427.0 L 474.5,428.0 L 474.5,432.0 L 475.5,433.0 L 475.5,438.0 L 476.5,439.0 L 476.5,444.0 L 477.5,445.0 L 477.5,450.0 L 478.5,451.0 L 479.0,453.5 L 681.0,453.5 L 682.5,452.0 L 684.5,447.0 L 686.5,445.0 L 687.5,442.0 L 689.5,440.0 L 691.5,436.0 L 694.5,433.0 L 694.5,432.0 L 706.0,420.5 L 707.0,420.5 L 713.0,415.5 L 720.0,412.5 L 722.0,410.5 L 729.5,407.0 L 730.5,405.0 L 730.5,401.0 L 729.5,400.0 L 729.0,397.5 L 725.0,397.5 L 719.0,403.5 L 713.0,406.5 L 711.0,406.5 L 710.0,407.5 L 700.0,407.5 L 699.0,406.5 L 696.0,406.5 L 692.0,403.5 L 691.0,403.5 L 686.0,398.5 L 684.0,398.5 L 681.0,400.5 L 669.0,400.5 L 668.0,399.5 L 666.0,399.5 L 662.0,397.5 L 656.5,392.0 L 656.5,391.0 L 653.5,387.0 L 653.5,384.0 L 652.5,383.0 L 652.5,375.0 L 653.5,373.0 L 645.0,369.5 L 642.0,366.5 L 641.0,366.5 L 636.5,361.0 L 634.5,357.0 L 634.5,355.0 L 633.5,354.0 L 633.5,342.0 L 634.5,341.0 L 634.5,339.0 L 635.5,338.0 L 636.5,334.0 L 640.5,329.0 L 633.5,322.0 L 630.5,316.0 L 630.5,314.0 L 629.5,313.0 L 629.5,302.0 L 630.5,301.0 L 630.5,298.0 L 633.5,292.0 L 639.0,285.5 L 640.0,285.5 L 644.5,282.0 L 641.5,276.0 L 641.5,271.0 L 640.5,270.0 L 640.5,266.0 L 641.5,265.0 L 641.5,261.0 L 643.5,257.0 L 643.5,255.0 L 647.5,250.0 L 647.5,249.0 L 654.0,243.5 L 660.0,240.5 L 665.0,239.5 L 666.0,238.5 L 672.0,238.5 L 673.5,237.0 L 674.5,231.0 L 678.5,224.0 L 685.0,217.5 L 692.0,213.5 L 698.0,212.5 L 699.0,211.5 L 709.0,211.5 L 710.0,212.5 L 716.0,213.5 L 720.0,215.5 L 722.0,217.5 L 724.0,217.5 L 728.0,213.5 L 737.0,208.5 L 740.0,208.5 L 741.0,207.5 L 754.0,207.5 L 755.0,208.5 L 758.0,208.5 L 764.0,211.5 L 772.5,220.0 L 776.0,227.5 L 778.0,227.5 L 779.0,226.5 L 783.0,226.5 L 784.0,225.5 L 789.0,225.5 L 790.0,226.5 L 794.0,226.5 L 795.0,227.5 L 797.0,227.5 L 803.0,230.5 L 810.5,238.0 L 810.5,239.0 L 813.5,243.0 L 813.5,245.0 L 814.5,246.0 L 814.5,250.0 L 815.5,251.0 L 815.5,256.0 L 814.5,257.0 L 814.5,259.0 L 819.0,259.5 L 820.0,260.5 L 823.0,260.5 L 829.0,263.5 L 833.5,267.0 L 833.5,268.0 L 838.5,274.0 L 838.5,276.0 L 840.5,279.0 L 840.5,283.0 L 841.5,284.0 L 841.5,290.0 L 840.5,291.0 L 839.5,297.0 L 837.5,300.0 L 845.0,306.5 L 846.5,307.0 L 846.5,308.0 L 850.5,313.0 L 851.5,319.0 L 852.5,320.0 L 852.5,329.0 L 851.5,330.0 L 851.5,333.0 L 848.5,339.0 L 840.5,347.0 L 843.5,352.0 L 843.5,355.0 L 844.5,356.0 L 844.5,362.0 L 843.5,363.0 L 843.5,366.0 L 841.5,370.0 L 835.0,377.5 L 834.0,377.5 L 830.0,380.5 L 824.0,381.5 L 823.0,382.5 L 815.0,382.5 L 811.0,388.5 L 806.0,393.5 L 805.0,393.5 L 801.0,396.5 L 799.0,396.5 L 798.0,397.5 L 785.0,397.5 L 776.0,392.5 L 775.5,395.0 L 777.5,399.0 L 780.0,401.5 L 784.0,403.5 L 786.0,403.5 L 791.0,406.5 L 793.0,406.5 L 805.0,412.5 L 807.0,414.5 L 814.0,418.5 L 819.0,423.5 L 820.0,423.5 L 827.5,432.0 L 827.5,433.0 L 833.5,441.0 L 836.5,447.0 L 836.5,449.0 L 839.5,454.0 L 839.5,456.0 L 841.5,459.0 L 841.5,461.0 L 842.5,462.0 L 842.5,464.0 L 843.5,465.0 L 843.5,467.0 L 845.5,471.0 L 846.5,476.0 L 847.5,477.0 L 847.5,480.0 L 848.5,481.0 L 848.5,483.0 L 850.5,487.0 L 851.5,494.0 L 852.5,495.0 L 852.5,502.0 L 848.0,506.5 L 846.5,507.0 L 846.5,512.0 L 847.5,513.0 L 847.5,518.0 L 848.5,519.0 L 848.5,525.0 L 849.5,526.0 L 849.5,534.0 L 850.5,535.0 L 850.5,546.0 L 851.5,547.0 L 851.5,562.0 L 852.5,563.0 L 852.5,585.0 L 854.0,585.5 L 857.0,583.5 L 859.0,583.5 L 863.0,581.5 L 866.0,581.5 L 867.0,580.5 L 883.0,580.5 L 884.0,581.5 L 887.0,581.5 L 891.0,583.5 L 893.0,583.5 L 899.0,586.5 L 902.0,589.5 L 903.0,589.5 L 911.5,598.0 L 913.5,602.0 L 915.5,604.0 L 916.5,608.0 L 918.5,611.0 L 918.5,614.0 L 919.5,615.0 L 919.5,618.0 L 920.5,619.0 L 920.5,802.0 L 919.5,803.0 L 918.5,808.0 L 916.5,810.0 L 916.5,811.0 L 912.0,815.5 L 911.0,815.5 L 907.0,818.5 L 905.0,818.5 L 904.0,819.5 L 877.0,819.5 L 876.5,833.0 L 875.5,834.0 L 875.5,836.0 L 873.0,839.5 L 869.0,841.5 L 845.0,841.5 L 843.0,840.5 L 838.5,835.0 L 838.5,829.0 L 837.5,828.0 L 837.5,820.0 L 823.0,819.5 L 822.5,822.0 L 821.5,823.0 L 821.5,835.0 L 820.5,836.0 L 820.5,847.0 L 819.5,848.0 L 819.5,857.0 L 818.5,858.0 L 818.5,862.0 L 816.5,865.0 L 817.5,871.0 L 818.5,872.0 L 818.5,877.0 L 819.5,878.0 L 819.5,889.0 L 818.5,890.0 L 818.5,893.0 L 817.5,895.0 L 815.0,897.5 L 811.0,898.5 L 810.0,899.5 L 806.0,899.5 L 805.0,900.5 L 801.0,900.5 L 800.0,901.5 L 795.0,901.5 L 794.0,902.5 L 787.0,902.5 L 786.0,903.5 L 776.0,903.5 L 775.0,904.5 Z M 405.5,137.0 L 403.0,135.5 L 399.0,135.5 L 397.5,137.0 L 405.5,137.0 Z M 460.5,207.0 L 460.5,198.0 L 459.5,197.0 L 459.5,190.0 L 458.5,189.0 L 458.5,185.0 L 457.5,184.0 L 456.5,178.0 L 451.5,168.0 L 448.5,165.0 L 448.5,164.0 L 440.0,156.5 L 439.0,156.5 L 434.0,152.5 L 430.0,151.5 L 427.0,149.5 L 419.0,147.5 L 418.0,146.5 L 400.0,144.5 L 399.0,145.5 L 395.0,146.5 L 389.0,151.5 L 388.0,151.5 L 378.5,164.0 L 378.5,166.0 L 374.5,174.0 L 373.5,181.0 L 372.5,182.0 L 371.5,194.0 L 370.5,195.0 L 370.5,205.0 L 369.5,206.0 L 371.0,207.5 L 372.0,206.5 L 376.0,206.5 L 377.0,205.5 L 389.0,204.5 L 390.0,203.5 L 396.0,203.5 L 397.0,202.5 L 405.0,202.5 L 406.0,201.5 L 437.0,201.5 L 438.0,202.5 L 444.0,202.5 L 445.0,203.5 L 449.0,203.5 L 450.0,204.5 L 453.0,204.5 L 454.0,205.5 L 459.0,206.5 L 460.0,207.5 L 460.5,207.0 Z M 346.5,211.0 L 354.0,210.5 L 355.0,209.5 L 360.0,209.5 L 361.0,208.5 L 363.5,208.0 L 363.5,199.0 L 364.5,198.0 L 365.5,184.0 L 366.5,183.0 L 366.5,179.0 L 367.5,178.0 L 367.5,175.0 L 368.5,174.0 L 368.5,172.0 L 370.5,168.0 L 370.5,166.0 L 378.5,152.0 L 384.0,146.5 L 385.0,146.5 L 385.0,145.5 L 382.0,145.5 L 381.0,146.5 L 378.0,146.5 L 377.0,147.5 L 369.0,149.5 L 359.0,154.5 L 357.0,156.5 L 356.0,156.5 L 344.5,168.0 L 344.5,169.0 L 342.5,171.0 L 339.5,177.0 L 339.5,179.0 L 337.5,182.0 L 337.5,185.0 L 336.5,186.0 L 336.5,189.0 L 335.5,190.0 L 335.5,194.0 L 334.5,195.0 L 334.5,201.0 L 333.5,202.0 L 333.5,211.0 L 346.5,211.0 Z M 416.5,236.0 L 424.0,235.5 L 425.0,234.5 L 432.0,233.5 L 436.0,231.5 L 439.0,231.5 L 440.0,230.5 L 443.0,230.5 L 444.0,229.5 L 448.0,229.5 L 449.0,228.5 L 459.0,228.5 L 460.0,227.5 L 474.0,228.5 L 475.0,229.5 L 478.0,229.5 L 481.0,231.5 L 482.5,231.0 L 479.0,227.5 L 478.0,227.5 L 475.0,224.5 L 474.0,224.5 L 464.0,216.5 L 453.0,211.5 L 445.0,210.5 L 444.0,209.5 L 439.0,209.5 L 438.0,208.5 L 428.0,208.5 L 427.0,207.5 L 419.0,207.5 L 418.0,208.5 L 405.0,208.5 L 404.0,209.5 L 397.0,209.5 L 396.0,210.5 L 390.0,210.5 L 389.0,211.5 L 383.0,211.5 L 382.0,212.5 L 377.0,212.5 L 376.0,213.5 L 371.5,214.0 L 382.0,223.5 L 383.0,223.5 L 391.0,229.5 L 399.0,233.5 L 401.0,233.5 L 405.0,235.5 L 410.0,235.5 L 411.0,236.5 L 416.5,236.0 Z M 383.5,329.0 L 386.0,328.5 L 389.5,325.0 L 389.5,323.0 L 387.0,321.5 L 381.0,320.5 L 373.0,316.5 L 367.0,311.5 L 366.0,311.5 L 362.0,307.5 L 360.5,306.0 L 359.5,303.0 L 362.0,300.5 L 364.0,300.5 L 369.0,305.5 L 370.0,305.5 L 376.0,310.5 L 382.0,313.5 L 384.0,313.5 L 387.0,315.5 L 390.0,315.5 L 391.0,316.5 L 397.0,316.5 L 398.0,317.5 L 411.0,315.5 L 422.0,310.5 L 425.0,307.5 L 426.0,307.5 L 436.5,297.0 L 436.5,296.0 L 440.5,291.0 L 446.5,279.0 L 446.5,277.0 L 448.5,274.0 L 449.5,268.0 L 451.5,264.0 L 452.5,257.0 L 453.5,256.0 L 453.5,252.0 L 454.5,251.0 L 454.5,248.0 L 455.5,247.0 L 455.5,242.0 L 456.5,241.0 L 456.5,237.0 L 457.5,236.0 L 456.0,234.5 L 455.0,235.5 L 449.0,235.5 L 448.0,236.5 L 444.0,236.5 L 443.0,237.5 L 440.0,237.5 L 439.0,238.5 L 436.0,238.5 L 432.0,240.5 L 424.0,241.5 L 423.0,242.5 L 406.0,242.5 L 405.0,241.5 L 402.0,241.5 L 401.0,240.5 L 396.0,239.5 L 388.0,235.5 L 386.0,233.5 L 383.0,232.5 L 377.0,227.5 L 376.0,227.5 L 370.0,221.5 L 367.0,220.5 L 366.5,223.0 L 365.5,224.0 L 365.5,226.0 L 363.5,229.0 L 363.5,231.0 L 361.5,235.0 L 359.5,237.0 L 358.5,240.0 L 354.0,244.5 L 352.0,245.5 L 349.0,245.5 L 346.0,243.5 L 342.5,235.0 L 338.0,231.5 L 333.0,231.5 L 327.5,236.0 L 325.5,240.0 L 325.5,249.0 L 328.5,255.0 L 332.0,258.5 L 336.0,260.5 L 343.0,260.5 L 344.5,262.0 L 346.5,274.0 L 349.5,280.0 L 349.5,282.0 L 351.5,285.0 L 351.5,287.0 L 352.5,288.0 L 351.5,302.0 L 350.5,303.0 L 350.5,307.0 L 349.5,308.0 L 349.5,311.0 L 347.5,315.0 L 347.5,318.0 L 355.0,323.5 L 363.0,327.5 L 368.0,328.5 L 369.0,329.5 L 383.5,329.0 Z M 392.0,266.5 L 388.0,266.5 L 385.5,263.0 L 385.5,257.0 L 386.5,255.0 L 391.0,251.5 L 394.0,252.5 L 396.5,256.0 L 396.5,262.0 L 394.5,264.0 L 394.5,265.0 L 392.0,266.5 Z M 439.0,273.5 L 436.0,273.5 L 432.5,269.0 L 432.5,266.0 L 433.5,265.0 L 434.5,261.0 L 438.0,258.5 L 442.0,259.5 L 443.5,262.0 L 443.5,268.0 L 439.0,273.5 Z M 418.0,289.5 L 411.0,289.5 L 407.5,287.0 L 407.5,285.0 L 409.0,283.5 L 417.0,283.5 L 418.5,282.0 L 418.5,276.0 L 417.5,275.0 L 417.5,262.0 L 419.0,260.5 L 421.0,260.5 L 422.5,262.0 L 422.5,268.0 L 423.5,269.0 L 424.5,283.0 L 423.5,285.0 L 418.0,289.5 Z M 747.5,424.0 L 754.0,423.5 L 760.0,420.5 L 762.0,420.5 L 764.0,418.5 L 767.0,417.5 L 775.5,409.0 L 776.5,407.0 L 772.5,404.0 L 769.5,398.0 L 769.5,396.0 L 768.5,395.0 L 768.5,392.0 L 767.5,391.0 L 767.5,388.0 L 766.5,387.0 L 766.5,382.0 L 765.5,381.0 L 765.5,370.0 L 768.5,366.0 L 769.5,363.0 L 771.5,361.0 L 773.5,357.0 L 773.5,355.0 L 775.5,352.0 L 777.5,339.0 L 779.0,337.5 L 781.0,337.5 L 782.0,338.5 L 787.0,338.5 L 792.5,335.0 L 796.5,327.0 L 796.5,319.0 L 794.5,315.0 L 789.0,310.5 L 783.0,310.5 L 778.0,315.5 L 776.0,316.5 L 775.0,315.5 L 773.0,315.5 L 767.0,312.5 L 762.5,308.0 L 758.5,301.0 L 758.5,298.0 L 757.5,297.0 L 757.5,290.0 L 748.0,288.5 L 742.0,285.5 L 733.5,277.0 L 732.5,273.0 L 731.5,272.0 L 731.5,269.0 L 730.0,268.5 L 726.5,275.0 L 720.0,280.5 L 714.0,283.5 L 709.0,284.5 L 708.0,285.5 L 698.0,285.5 L 695.5,289.0 L 695.5,291.0 L 692.5,297.0 L 687.0,303.5 L 677.0,308.5 L 671.0,308.5 L 669.5,310.0 L 670.5,312.0 L 670.5,321.0 L 671.5,322.0 L 671.5,328.0 L 672.5,329.0 L 672.5,333.0 L 673.5,334.0 L 673.5,338.0 L 674.5,339.0 L 674.5,342.0 L 675.5,343.0 L 675.5,346.0 L 676.5,347.0 L 678.5,355.0 L 683.5,365.0 L 687.5,370.0 L 687.5,371.0 L 690.5,374.0 L 690.5,375.0 L 700.0,383.5 L 709.0,388.5 L 711.0,388.5 L 715.0,390.5 L 729.0,391.5 L 730.0,390.5 L 734.0,390.5 L 735.0,389.5 L 740.0,388.5 L 748.0,384.5 L 753.0,380.5 L 755.0,380.5 L 757.5,383.0 L 756.5,386.0 L 755.0,387.5 L 754.0,387.5 L 749.0,391.5 L 743.0,394.5 L 738.0,395.5 L 736.5,397.0 L 736.5,409.0 L 732.5,414.0 L 732.5,417.0 L 736.0,421.5 L 740.0,423.5 L 745.0,423.5 L 746.0,424.5 L 747.5,424.0 Z M 408.0,305.5 L 403.0,305.5 L 401.0,304.5 L 399.5,303.0 L 399.5,301.0 L 401.0,299.5 L 408.0,299.5 L 410.5,302.0 L 410.5,304.0 L 408.0,305.5 Z M 736.0,330.5 L 733.0,330.5 L 728.5,326.0 L 728.5,319.0 L 732.0,315.5 L 735.0,315.5 L 739.5,321.0 L 739.5,326.0 L 736.0,330.5 Z M 383.5,344.0 L 388.0,343.5 L 397.0,338.5 L 401.5,333.0 L 403.5,328.0 L 398.0,325.5 L 391.0,333.5 L 387.0,335.5 L 384.0,335.5 L 383.0,336.5 L 369.0,336.5 L 368.0,335.5 L 362.0,334.5 L 350.0,328.5 L 348.0,326.5 L 347.0,326.5 L 340.0,319.5 L 339.0,320.5 L 337.0,320.5 L 333.5,323.0 L 334.5,325.0 L 341.0,331.5 L 342.0,331.5 L 345.0,334.5 L 346.0,334.5 L 351.0,338.5 L 355.0,340.5 L 357.0,340.5 L 360.0,342.5 L 363.0,342.5 L 364.0,343.5 L 367.0,343.5 L 368.0,344.5 L 383.5,344.0 Z M 688.0,337.5 L 684.0,337.5 L 680.5,334.0 L 680.5,326.0 L 683.0,323.5 L 687.0,323.5 L 690.5,327.0 L 690.5,335.0 L 688.0,337.5 Z M 711.0,353.5 L 707.0,353.5 L 706.0,352.5 L 704.0,352.5 L 699.5,348.0 L 699.5,341.0 L 700.5,340.0 L 700.5,336.0 L 701.5,335.0 L 701.5,330.0 L 702.5,329.0 L 702.5,327.0 L 704.0,325.5 L 706.0,325.5 L 707.5,327.0 L 707.5,334.0 L 706.5,335.0 L 706.5,339.0 L 705.5,340.0 L 705.5,346.0 L 707.0,347.5 L 713.0,347.5 L 714.5,350.0 L 713.5,352.0 L 711.0,353.5 Z M 279.5,571.0 L 286.0,570.5 L 287.0,569.5 L 290.0,569.5 L 291.0,568.5 L 296.0,567.5 L 300.5,562.0 L 300.5,558.0 L 301.5,557.0 L 301.5,533.0 L 300.5,532.0 L 300.5,500.0 L 301.5,499.0 L 301.5,482.0 L 302.5,481.0 L 302.5,473.0 L 303.5,472.0 L 304.5,458.0 L 305.5,457.0 L 305.5,452.0 L 306.5,451.0 L 306.5,446.0 L 307.5,445.0 L 307.5,439.0 L 308.5,438.0 L 308.5,434.0 L 309.5,433.0 L 309.5,428.0 L 310.5,427.0 L 310.5,423.0 L 311.5,422.0 L 312.5,413.0 L 315.0,409.5 L 318.0,409.5 L 319.5,411.0 L 319.5,417.0 L 318.5,418.0 L 317.5,428.0 L 316.5,429.0 L 316.5,433.0 L 315.5,434.0 L 315.5,439.0 L 314.5,440.0 L 314.5,445.0 L 313.5,446.0 L 313.5,451.0 L 312.5,452.0 L 312.5,457.0 L 311.5,458.0 L 311.5,464.0 L 310.5,465.0 L 310.5,471.0 L 309.5,472.0 L 309.5,480.0 L 308.5,481.0 L 308.5,499.0 L 307.5,500.0 L 307.5,535.0 L 308.5,536.0 L 309.0,548.5 L 317.0,549.5 L 318.0,550.5 L 323.0,550.5 L 324.0,551.5 L 330.0,551.5 L 331.0,552.5 L 338.0,552.5 L 339.0,553.5 L 348.0,553.5 L 349.0,554.5 L 365.0,554.5 L 366.5,551.0 L 369.0,548.5 L 373.0,546.5 L 381.0,546.5 L 382.0,547.5 L 384.0,547.5 L 388.0,549.5 L 390.5,549.0 L 390.5,548.0 L 385.5,541.0 L 385.5,539.0 L 384.5,538.0 L 384.5,536.0 L 382.5,532.0 L 382.5,515.0 L 383.5,514.0 L 384.5,508.0 L 385.5,507.0 L 385.5,503.0 L 378.5,489.0 L 378.5,487.0 L 377.5,486.0 L 377.5,480.0 L 380.0,477.5 L 390.0,477.5 L 391.0,478.5 L 398.0,479.5 L 402.0,481.5 L 406.0,481.5 L 415.0,476.5 L 418.5,476.0 L 418.5,473.0 L 419.5,472.0 L 419.5,466.0 L 423.0,461.5 L 429.0,461.5 L 433.0,463.5 L 435.0,465.5 L 438.0,466.5 L 441.0,469.5 L 441.5,469.0 L 441.5,463.0 L 440.5,462.0 L 440.5,451.0 L 439.5,450.0 L 439.5,436.0 L 438.5,435.0 L 438.5,421.0 L 437.5,420.0 L 437.5,407.0 L 436.5,406.0 L 436.5,396.0 L 438.0,394.5 L 441.0,394.5 L 442.5,396.0 L 442.5,398.0 L 443.5,399.0 L 444.5,421.0 L 445.5,422.0 L 445.5,437.0 L 446.5,438.0 L 447.5,461.0 L 448.5,462.0 L 448.5,473.0 L 451.0,475.5 L 453.0,475.5 L 467.0,483.5 L 473.5,490.0 L 473.5,491.0 L 477.5,495.0 L 477.5,496.0 L 479.0,497.5 L 479.5,497.0 L 478.5,496.0 L 477.5,486.0 L 476.5,485.0 L 476.5,480.0 L 475.5,479.0 L 474.5,469.0 L 473.5,468.0 L 473.5,463.0 L 472.5,462.0 L 472.5,457.0 L 471.5,456.0 L 471.5,451.0 L 470.5,450.0 L 470.5,445.0 L 469.5,444.0 L 469.5,439.0 L 468.5,438.0 L 468.5,433.0 L 467.5,432.0 L 467.5,427.0 L 466.5,426.0 L 465.5,417.0 L 464.5,416.0 L 463.5,408.0 L 462.5,407.0 L 462.5,404.0 L 461.5,403.0 L 460.5,396.0 L 458.5,392.0 L 458.5,389.0 L 456.5,385.0 L 456.5,382.0 L 455.5,381.0 L 454.5,376.0 L 448.5,364.0 L 444.5,359.0 L 444.5,358.0 L 440.5,354.0 L 440.5,353.0 L 435.0,347.5 L 434.0,347.5 L 427.0,341.5 L 426.0,341.5 L 418.0,335.5 L 415.0,334.5 L 413.0,332.5 L 410.0,331.5 L 407.5,335.0 L 406.5,338.0 L 399.0,345.5 L 391.0,349.5 L 389.0,349.5 L 388.0,350.5 L 384.0,350.5 L 383.0,351.5 L 369.0,351.5 L 368.0,350.5 L 360.0,349.5 L 354.0,346.5 L 350.0,345.5 L 348.0,343.5 L 342.0,340.5 L 339.0,337.5 L 338.0,337.5 L 327.0,326.5 L 325.0,326.5 L 317.0,330.5 L 310.0,335.5 L 307.0,336.5 L 305.0,338.5 L 298.0,342.5 L 294.0,346.5 L 293.0,346.5 L 281.5,359.0 L 278.5,365.0 L 276.5,367.0 L 274.5,371.0 L 274.5,373.0 L 271.5,378.0 L 269.5,386.0 L 268.5,387.0 L 267.5,392.0 L 266.5,393.0 L 266.5,396.0 L 264.5,400.0 L 264.5,403.0 L 262.5,407.0 L 262.5,410.0 L 261.5,411.0 L 261.5,414.0 L 260.5,415.0 L 260.5,419.0 L 259.5,420.0 L 259.5,423.0 L 258.5,424.0 L 258.5,428.0 L 257.5,429.0 L 257.5,433.0 L 256.5,434.0 L 256.5,439.0 L 255.5,440.0 L 255.5,444.0 L 254.5,445.0 L 254.5,450.0 L 253.5,451.0 L 252.5,465.0 L 251.5,466.0 L 251.5,474.0 L 250.5,475.0 L 250.5,524.0 L 251.5,525.0 L 251.5,539.0 L 252.5,540.0 L 252.5,552.0 L 253.5,553.0 L 253.5,559.0 L 254.5,560.0 L 255.5,565.0 L 260.0,569.5 L 262.0,569.5 L 263.0,570.5 L 268.0,570.5 L 269.0,571.5 L 279.5,571.0 Z M 721.0,371.5 L 710.0,371.5 L 708.5,370.0 L 708.5,367.0 L 710.0,365.5 L 720.0,365.5 L 721.0,364.5 L 723.0,364.5 L 726.0,361.5 L 730.0,360.5 L 731.5,362.0 L 731.5,365.0 L 728.0,368.5 L 724.0,370.5 L 722.0,370.5 L 721.0,371.5 Z M 755.5,614.0 L 785.0,612.5 L 786.0,611.5 L 792.0,611.5 L 793.0,610.5 L 798.0,610.5 L 799.0,609.5 L 808.0,608.5 L 809.0,607.5 L 812.0,607.5 L 813.5,606.0 L 813.5,588.0 L 812.5,587.0 L 812.5,573.0 L 811.5,572.0 L 811.5,561.0 L 810.5,560.0 L 810.5,552.0 L 809.5,551.0 L 809.5,544.0 L 808.5,543.0 L 808.5,538.0 L 807.5,537.0 L 807.5,532.0 L 806.5,531.0 L 806.5,527.0 L 805.5,526.0 L 805.5,521.0 L 804.5,520.0 L 804.5,518.0 L 801.0,517.5 L 797.5,513.0 L 797.5,509.0 L 796.5,508.0 L 795.5,499.0 L 794.5,498.0 L 794.5,493.0 L 793.5,492.0 L 792.5,483.0 L 791.5,482.0 L 791.5,476.0 L 793.0,474.5 L 796.0,474.5 L 798.5,479.0 L 798.5,483.0 L 799.5,484.0 L 799.5,488.0 L 800.5,489.0 L 800.5,493.0 L 801.5,494.0 L 801.5,498.0 L 802.5,499.0 L 802.5,503.0 L 803.5,504.0 L 803.5,509.0 L 805.0,510.5 L 816.0,509.5 L 817.0,508.5 L 820.0,508.5 L 821.0,507.5 L 824.0,507.5 L 825.0,506.5 L 828.0,506.5 L 829.0,505.5 L 832.0,505.5 L 833.0,504.5 L 838.0,503.5 L 841.0,501.5 L 843.0,501.5 L 845.5,500.0 L 845.5,495.0 L 843.5,491.0 L 843.5,488.0 L 841.5,484.0 L 841.5,481.0 L 840.5,480.0 L 840.5,478.0 L 838.5,474.0 L 838.5,471.0 L 837.5,470.0 L 836.5,465.0 L 834.5,462.0 L 833.5,457.0 L 823.5,438.0 L 820.5,435.0 L 820.5,434.0 L 809.0,423.5 L 808.0,423.5 L 800.0,417.5 L 792.0,413.5 L 790.0,413.5 L 787.0,411.5 L 785.0,411.5 L 784.0,410.5 L 783.0,410.5 L 780.5,413.0 L 780.5,414.0 L 773.0,421.5 L 772.0,421.5 L 770.0,423.5 L 763.0,427.5 L 761.0,427.5 L 758.0,429.5 L 755.0,429.5 L 754.0,430.5 L 739.0,430.5 L 738.0,429.5 L 736.0,429.5 L 729.5,425.0 L 729.5,424.0 L 726.5,420.0 L 726.5,418.0 L 725.0,416.5 L 723.0,418.5 L 718.0,420.5 L 716.0,422.5 L 712.0,424.5 L 703.5,432.0 L 703.5,433.0 L 698.5,438.0 L 698.5,439.0 L 692.5,447.0 L 690.5,452.0 L 688.5,454.0 L 682.5,466.0 L 682.5,468.0 L 677.5,477.0 L 677.5,479.0 L 672.5,489.0 L 675.0,491.5 L 689.0,498.5 L 691.0,498.5 L 691.5,487.0 L 692.5,486.0 L 692.5,483.0 L 694.5,479.0 L 695.5,474.0 L 698.5,469.0 L 698.5,467.0 L 700.5,463.0 L 703.0,460.5 L 705.0,460.5 L 706.5,462.0 L 706.5,467.0 L 702.5,475.0 L 701.5,480.0 L 699.5,483.0 L 699.5,486.0 L 698.5,487.0 L 698.5,503.0 L 705.5,517.0 L 705.5,519.0 L 707.5,523.0 L 707.5,526.0 L 708.5,527.0 L 708.5,543.0 L 707.5,544.0 L 707.5,550.0 L 706.5,551.0 L 706.5,556.0 L 705.5,557.0 L 704.5,568.0 L 703.5,569.0 L 702.5,578.0 L 701.5,579.0 L 701.5,584.0 L 700.5,585.0 L 700.5,589.0 L 699.5,590.0 L 699.5,594.0 L 698.5,595.0 L 698.5,599.0 L 697.5,600.0 L 697.5,605.0 L 699.0,606.5 L 701.0,606.5 L 705.0,608.5 L 713.0,609.5 L 714.0,610.5 L 718.0,610.5 L 719.0,611.5 L 725.0,611.5 L 726.0,612.5 L 734.0,612.5 L 735.0,613.5 L 754.0,613.5 L 755.0,614.5 L 755.5,614.0 Z M 195.5,670.0 L 202.0,664.5 L 208.0,661.5 L 210.0,661.5 L 211.0,660.5 L 216.0,659.5 L 217.0,658.5 L 220.0,658.5 L 221.0,657.5 L 226.0,657.5 L 227.0,656.5 L 232.0,656.5 L 233.0,655.5 L 240.0,655.5 L 241.0,654.5 L 251.0,654.5 L 252.0,653.5 L 268.0,653.5 L 269.0,652.5 L 290.5,652.0 L 290.0,648.5 L 288.0,649.5 L 282.0,648.5 L 278.0,645.5 L 268.0,640.5 L 262.5,633.0 L 261.5,629.0 L 260.5,628.0 L 260.5,626.0 L 259.5,625.0 L 259.5,621.0 L 258.5,620.0 L 258.5,594.0 L 259.5,593.0 L 256.5,588.0 L 256.5,584.0 L 255.5,583.0 L 255.5,575.0 L 250.5,570.0 L 248.5,566.0 L 247.5,560.0 L 246.5,559.0 L 246.5,553.0 L 245.5,552.0 L 245.5,540.0 L 244.5,539.0 L 244.5,524.0 L 243.5,523.0 L 243.5,476.0 L 244.5,475.0 L 244.5,467.0 L 245.5,466.0 L 245.0,460.5 L 212.0,460.5 L 211.0,461.5 L 207.0,461.5 L 206.0,462.5 L 204.0,462.5 L 203.0,463.5 L 201.0,463.5 L 200.0,464.5 L 198.0,464.5 L 194.0,466.5 L 192.0,468.5 L 188.0,470.5 L 184.0,474.5 L 183.0,474.5 L 181.5,476.0 L 181.5,477.0 L 176.5,482.0 L 169.5,495.0 L 168.5,501.0 L 167.5,502.0 L 167.5,506.0 L 166.5,507.0 L 166.5,583.0 L 171.0,586.5 L 174.0,587.5 L 177.0,590.5 L 178.0,590.5 L 183.5,596.0 L 183.5,597.0 L 188.5,603.0 L 190.5,607.0 L 190.5,609.0 L 192.5,612.0 L 192.5,615.0 L 193.5,616.0 L 193.5,621.0 L 194.5,622.0 L 194.5,669.0 L 193.5,670.0 L 195.5,670.0 Z M 513.5,672.0 L 519.0,666.5 L 526.0,662.5 L 528.0,662.5 L 529.0,661.5 L 531.0,661.5 L 532.0,660.5 L 537.0,659.5 L 538.0,658.5 L 542.0,658.5 L 543.0,657.5 L 547.0,657.5 L 548.0,656.5 L 554.0,656.5 L 555.0,655.5 L 563.0,655.5 L 564.0,654.5 L 574.0,654.5 L 575.0,653.5 L 593.0,653.5 L 594.0,652.5 L 629.0,652.5 L 630.0,651.5 L 672.0,651.5 L 673.0,652.5 L 691.0,652.5 L 692.5,651.0 L 692.5,620.0 L 693.5,619.0 L 693.5,612.0 L 690.5,608.0 L 690.5,600.0 L 691.5,599.0 L 691.5,595.0 L 692.5,594.0 L 692.5,590.0 L 693.5,589.0 L 693.5,585.0 L 694.5,584.0 L 694.5,580.0 L 695.5,579.0 L 695.5,574.0 L 696.5,573.0 L 696.5,569.0 L 697.5,568.0 L 697.5,563.0 L 698.5,562.0 L 698.5,557.0 L 699.5,556.0 L 700.5,545.0 L 701.5,544.0 L 701.5,536.0 L 700.5,536.0 L 695.5,545.0 L 687.0,553.5 L 679.0,557.5 L 675.0,557.5 L 674.0,558.5 L 665.0,558.5 L 664.0,557.5 L 660.0,557.5 L 659.0,556.5 L 657.0,556.5 L 653.0,554.5 L 648.0,553.5 L 641.0,549.5 L 637.0,548.5 L 635.0,546.5 L 621.0,539.5 L 613.0,533.5 L 606.0,529.5 L 604.0,529.5 L 603.0,530.5 L 590.0,530.5 L 589.0,529.5 L 583.0,529.5 L 582.0,530.5 L 578.0,530.5 L 577.0,529.5 L 573.0,529.5 L 571.0,528.5 L 566.5,523.0 L 566.5,521.0 L 565.5,520.0 L 565.5,516.0 L 562.5,510.0 L 562.5,502.0 L 563.5,501.0 L 551.0,499.5 L 545.0,496.5 L 542.5,493.0 L 542.5,487.0 L 546.0,483.5 L 550.0,482.5 L 551.0,481.5 L 572.0,481.5 L 573.0,480.5 L 588.0,480.5 L 589.0,481.5 L 597.0,482.5 L 598.0,483.5 L 600.0,483.5 L 604.0,485.5 L 610.0,490.5 L 611.0,490.5 L 616.0,495.5 L 622.0,498.5 L 624.0,498.5 L 629.0,501.5 L 634.0,502.5 L 637.0,504.5 L 642.0,505.5 L 645.0,507.5 L 647.0,507.5 L 648.0,508.5 L 650.0,508.5 L 654.0,510.5 L 659.0,511.5 L 660.0,512.5 L 664.0,512.5 L 665.5,510.0 L 666.5,505.0 L 670.5,497.0 L 666.5,494.0 L 665.5,492.0 L 665.5,488.0 L 668.5,482.0 L 668.5,480.0 L 673.5,471.0 L 673.5,469.0 L 677.5,462.0 L 677.0,460.5 L 479.5,461.0 L 480.5,463.0 L 481.5,473.0 L 482.5,474.0 L 482.5,480.0 L 483.5,481.0 L 483.5,486.0 L 484.5,487.0 L 484.5,492.0 L 485.5,493.0 L 485.5,497.0 L 486.5,498.0 L 487.5,508.0 L 497.0,515.5 L 501.0,517.5 L 506.0,522.5 L 507.0,522.5 L 514.5,530.0 L 514.5,531.0 L 520.5,537.0 L 522.5,541.0 L 525.5,544.0 L 534.5,562.0 L 536.5,570.0 L 538.5,574.0 L 538.5,578.0 L 539.5,579.0 L 539.5,583.0 L 540.5,584.0 L 540.5,590.0 L 541.5,591.0 L 541.5,609.0 L 540.5,610.0 L 540.5,617.0 L 539.5,618.0 L 538.5,626.0 L 537.5,627.0 L 535.5,635.0 L 533.5,638.0 L 533.5,640.0 L 530.5,646.0 L 528.5,648.0 L 527.5,651.0 L 525.5,653.0 L 523.5,657.0 L 519.5,661.0 L 519.5,662.0 L 511.5,670.0 L 511.5,672.0 L 513.5,672.0 Z M 438.5,694.0 L 455.0,692.5 L 456.0,691.5 L 462.0,690.5 L 463.0,689.5 L 466.0,689.5 L 476.0,684.5 L 478.0,684.5 L 482.0,682.5 L 484.0,680.5 L 489.0,678.5 L 491.0,676.5 L 494.0,675.5 L 499.0,671.5 L 500.0,671.5 L 516.5,655.0 L 516.5,654.0 L 522.5,646.0 L 528.5,634.0 L 528.5,632.0 L 530.5,629.0 L 530.5,626.0 L 531.5,625.0 L 531.5,622.0 L 532.5,621.0 L 532.5,618.0 L 533.5,617.0 L 533.5,611.0 L 534.5,610.0 L 534.5,591.0 L 533.5,590.0 L 533.5,584.0 L 532.5,583.0 L 531.5,575.0 L 530.5,574.0 L 529.5,568.0 L 527.5,565.0 L 527.5,563.0 L 521.5,551.0 L 519.5,549.0 L 515.5,542.0 L 511.5,538.0 L 511.5,537.0 L 501.0,526.5 L 500.0,526.5 L 492.0,519.5 L 485.0,515.5 L 476.5,507.0 L 476.5,506.0 L 473.5,503.0 L 469.5,496.0 L 461.0,487.5 L 454.0,483.5 L 452.0,483.5 L 451.0,486.5 L 448.0,486.5 L 436.0,473.5 L 435.0,473.5 L 432.0,470.5 L 428.0,468.5 L 426.0,468.5 L 425.5,489.0 L 424.0,490.5 L 421.0,490.5 L 418.5,487.0 L 418.5,484.0 L 417.0,483.5 L 416.0,484.5 L 412.0,485.5 L 400.5,494.0 L 400.5,495.0 L 394.5,502.0 L 392.5,506.0 L 392.5,508.0 L 390.5,511.0 L 390.5,514.0 L 389.5,515.0 L 389.5,522.0 L 388.5,523.0 L 389.5,524.0 L 389.5,529.0 L 392.0,529.5 L 393.0,530.5 L 399.0,530.5 L 401.5,533.0 L 401.5,534.0 L 399.0,536.5 L 391.5,537.0 L 394.5,543.0 L 402.0,550.5 L 408.0,553.5 L 411.0,553.5 L 412.0,554.5 L 425.0,554.5 L 426.0,553.5 L 431.0,552.5 L 438.0,548.5 L 442.0,548.5 L 443.5,552.0 L 440.0,555.5 L 434.0,558.5 L 432.0,558.5 L 426.0,561.5 L 422.0,561.5 L 421.0,562.5 L 405.0,562.5 L 404.0,561.5 L 401.0,561.5 L 397.0,559.5 L 395.0,559.5 L 392.0,557.5 L 390.0,557.5 L 387.0,555.5 L 385.0,555.5 L 382.0,553.5 L 374.0,553.5 L 371.5,556.0 L 371.5,561.0 L 372.5,563.0 L 377.0,567.5 L 378.0,567.5 L 383.0,571.5 L 388.0,573.5 L 390.0,575.5 L 402.0,581.5 L 404.0,581.5 L 410.0,584.5 L 413.0,584.5 L 414.0,585.5 L 421.0,585.5 L 422.0,586.5 L 424.0,586.5 L 425.0,585.5 L 433.0,585.5 L 434.0,584.5 L 437.0,584.5 L 438.0,583.5 L 442.0,582.5 L 444.5,585.0 L 444.5,587.0 L 442.0,589.5 L 440.0,589.5 L 436.0,591.5 L 433.0,591.5 L 432.0,592.5 L 427.0,592.5 L 425.5,594.0 L 426.0,605.5 L 427.0,605.5 L 431.0,602.5 L 436.0,601.5 L 437.0,600.5 L 452.0,600.5 L 453.0,601.5 L 455.0,601.5 L 461.0,604.5 L 466.5,609.0 L 467.5,611.0 L 467.5,614.0 L 466.0,615.5 L 464.0,615.5 L 458.0,610.5 L 452.0,607.5 L 449.0,607.5 L 448.0,606.5 L 441.0,606.5 L 440.0,607.5 L 437.0,607.5 L 429.0,611.5 L 423.5,617.0 L 420.5,623.0 L 420.5,626.0 L 419.5,627.0 L 419.5,641.0 L 420.5,642.0 L 420.5,644.0 L 417.0,646.5 L 413.5,644.0 L 412.5,639.0 L 405.0,631.5 L 401.0,630.5 L 400.0,629.5 L 396.0,629.5 L 393.5,632.0 L 393.5,637.0 L 394.5,639.0 L 406.5,652.0 L 406.5,653.0 L 411.5,658.0 L 411.5,659.0 L 423.0,670.5 L 427.0,672.5 L 431.0,672.5 L 435.0,669.5 L 440.0,669.5 L 441.0,670.5 L 444.0,670.5 L 445.0,671.5 L 454.0,671.5 L 455.0,670.5 L 460.0,670.5 L 461.5,674.0 L 457.0,677.5 L 454.0,677.5 L 453.0,678.5 L 448.0,678.5 L 447.0,679.5 L 425.0,679.5 L 424.0,678.5 L 419.0,678.5 L 418.0,677.5 L 411.0,676.5 L 405.0,673.5 L 403.0,673.5 L 399.0,671.5 L 397.0,669.5 L 394.0,668.5 L 389.0,664.5 L 388.0,664.5 L 376.5,654.0 L 376.5,653.0 L 372.5,649.0 L 370.5,645.0 L 366.5,640.0 L 366.5,639.0 L 364.0,636.5 L 360.0,634.5 L 356.0,634.5 L 351.5,639.0 L 351.5,647.0 L 355.5,655.0 L 360.5,661.0 L 360.5,662.0 L 374.0,675.5 L 378.0,677.5 L 383.0,681.5 L 393.0,686.5 L 398.0,687.5 L 401.0,689.5 L 404.0,689.5 L 408.0,691.5 L 412.0,691.5 L 413.0,692.5 L 417.0,692.5 L 418.0,693.5 L 427.0,693.5 L 428.0,694.5 L 438.5,694.0 Z M 390.5,496.0 L 397.5,488.0 L 397.5,487.0 L 394.0,486.5 L 393.0,485.5 L 390.0,485.5 L 389.0,484.5 L 385.0,484.5 L 384.5,486.0 L 387.5,491.0 L 387.5,493.0 L 389.0,495.5 L 390.0,496.5 L 390.5,496.0 Z M 675.5,551.0 L 682.0,548.5 L 688.5,543.0 L 688.5,542.0 L 694.5,534.0 L 699.5,524.0 L 699.5,521.0 L 693.5,510.0 L 693.5,508.0 L 691.0,505.5 L 686.0,504.5 L 677.0,499.5 L 675.5,501.0 L 675.5,503.0 L 673.5,506.0 L 673.5,508.0 L 668.5,518.0 L 666.0,520.5 L 664.0,520.5 L 663.0,519.5 L 660.0,519.5 L 659.0,518.5 L 657.0,518.5 L 656.0,517.5 L 654.0,517.5 L 653.0,516.5 L 651.0,516.5 L 647.0,514.5 L 645.0,514.5 L 644.0,513.5 L 642.0,513.5 L 641.0,512.5 L 639.0,512.5 L 636.0,510.5 L 634.0,510.5 L 628.0,507.5 L 626.0,507.5 L 623.0,505.5 L 621.0,505.5 L 612.0,500.5 L 608.0,496.5 L 607.0,496.5 L 601.0,491.5 L 597.0,489.5 L 591.0,488.5 L 590.0,487.5 L 557.0,487.5 L 556.0,488.5 L 550.0,488.5 L 548.5,490.0 L 551.0,492.5 L 554.0,492.5 L 555.0,493.5 L 562.0,493.5 L 563.0,494.5 L 571.0,494.5 L 572.0,495.5 L 577.0,495.5 L 579.0,493.5 L 586.0,489.5 L 591.0,489.5 L 592.5,491.0 L 592.5,492.0 L 591.0,493.5 L 586.0,495.5 L 579.5,502.0 L 579.5,503.0 L 586.0,503.5 L 590.0,501.5 L 594.0,501.5 L 598.0,506.5 L 602.0,507.5 L 604.5,510.0 L 604.5,511.0 L 602.0,513.5 L 600.0,512.5 L 597.0,512.5 L 595.0,510.5 L 593.5,511.0 L 592.5,513.0 L 592.5,515.0 L 593.5,516.0 L 593.5,522.0 L 592.5,523.0 L 593.0,523.5 L 595.0,524.5 L 598.0,524.5 L 599.0,523.5 L 604.0,523.5 L 605.0,522.5 L 607.0,522.5 L 611.0,524.5 L 613.0,526.5 L 616.0,527.5 L 621.0,531.5 L 624.0,532.5 L 626.0,534.5 L 629.0,535.5 L 631.0,537.5 L 651.0,547.5 L 656.0,548.5 L 660.0,550.5 L 663.0,550.5 L 664.0,551.5 L 675.5,551.0 Z M 584.5,513.0 L 587.5,511.0 L 586.0,509.5 L 584.0,510.5 L 579.0,510.5 L 573.5,506.0 L 573.0,501.5 L 571.0,501.5 L 569.5,503.0 L 568.5,507.0 L 573.0,512.5 L 575.0,512.5 L 576.0,513.5 L 584.5,513.0 Z M 822.5,684.0 L 825.5,678.0 L 825.5,676.0 L 826.5,675.0 L 826.5,671.0 L 827.5,670.0 L 827.5,664.0 L 830.0,661.5 L 832.0,661.5 L 833.5,663.0 L 832.5,674.0 L 831.5,675.0 L 830.5,681.0 L 829.5,682.0 L 830.0,683.5 L 831.0,683.5 L 833.5,681.0 L 835.5,677.0 L 835.5,675.0 L 836.5,674.0 L 836.5,670.0 L 837.5,669.0 L 837.5,664.0 L 839.0,662.5 L 842.5,663.0 L 842.5,665.0 L 843.5,666.0 L 842.5,667.0 L 843.0,672.5 L 845.5,668.0 L 845.5,664.0 L 846.5,663.0 L 846.5,650.0 L 845.5,649.0 L 845.5,643.0 L 844.5,642.0 L 844.5,639.0 L 843.5,638.0 L 843.5,635.0 L 842.5,634.0 L 842.5,627.0 L 843.5,626.0 L 843.5,612.0 L 844.5,611.0 L 844.5,596.0 L 845.5,595.0 L 845.5,556.0 L 844.5,555.0 L 844.5,543.0 L 843.5,542.0 L 843.5,533.0 L 842.5,532.0 L 842.5,525.0 L 841.5,524.0 L 840.5,512.0 L 839.0,509.5 L 838.0,510.5 L 830.0,512.5 L 829.0,513.5 L 826.0,513.5 L 825.0,514.5 L 822.0,514.5 L 821.0,515.5 L 817.0,515.5 L 816.0,516.5 L 811.5,517.0 L 811.5,521.0 L 812.5,522.0 L 812.5,526.0 L 813.5,527.0 L 813.5,532.0 L 814.5,533.0 L 814.5,537.0 L 815.5,538.0 L 815.5,544.0 L 816.5,545.0 L 817.5,561.0 L 818.5,562.0 L 818.5,574.0 L 819.5,575.0 L 819.5,593.0 L 820.5,594.0 L 820.5,633.0 L 812.5,646.0 L 812.5,648.0 L 810.5,652.0 L 810.5,655.0 L 809.5,656.0 L 809.5,660.0 L 808.5,661.0 L 808.5,663.0 L 810.0,664.5 L 811.5,663.0 L 811.5,662.0 L 813.5,660.0 L 814.5,655.0 L 818.0,651.5 L 819.0,651.5 L 821.5,654.0 L 821.5,670.0 L 820.5,671.0 L 820.5,675.0 L 819.5,676.0 L 819.5,681.0 L 818.5,683.0 L 820.0,684.5 L 822.5,684.0 Z M 584.5,523.0 L 586.5,522.0 L 586.0,519.5 L 575.0,519.5 L 574.0,518.5 L 572.5,519.0 L 573.5,522.0 L 576.0,523.5 L 584.5,523.0 Z M 422.0,531.5 L 416.0,531.5 L 414.5,529.0 L 414.5,527.0 L 417.0,525.5 L 421.0,525.5 L 426.0,520.5 L 428.0,520.5 L 430.5,523.0 L 429.5,524.0 L 429.5,526.0 L 426.0,529.5 L 422.0,531.5 Z M 409.0,546.5 L 406.0,545.5 L 403.5,543.0 L 403.5,541.0 L 405.0,539.5 L 411.5,540.0 L 412.5,542.0 L 409.0,546.5 Z M 371.5,572.0 L 371.5,571.0 L 368.5,569.0 L 368.5,568.0 L 366.5,566.0 L 365.5,563.0 L 364.0,561.5 L 350.0,561.5 L 349.0,560.5 L 340.0,560.5 L 339.0,559.5 L 332.0,559.5 L 331.0,558.5 L 326.0,558.5 L 325.0,557.5 L 320.0,557.5 L 319.0,556.5 L 314.0,556.5 L 313.0,555.5 L 310.0,555.5 L 309.0,554.5 L 307.5,557.0 L 307.5,563.0 L 306.5,565.0 L 309.0,566.5 L 319.0,567.5 L 320.0,568.5 L 325.0,568.5 L 326.0,569.5 L 332.0,569.5 L 333.0,570.5 L 341.0,570.5 L 342.0,571.5 L 359.0,571.5 L 360.0,572.5 L 371.5,572.0 Z M 338.5,859.0 L 348.0,857.5 L 353.5,854.0 L 353.5,846.0 L 354.5,845.0 L 354.5,834.0 L 355.5,833.0 L 355.5,821.0 L 356.5,820.0 L 356.5,809.0 L 357.5,808.0 L 357.5,797.0 L 358.5,796.0 L 358.5,784.0 L 359.5,783.0 L 359.5,772.0 L 360.5,771.0 L 360.5,761.0 L 361.5,760.0 L 361.5,749.0 L 362.5,748.0 L 362.5,738.0 L 363.5,737.0 L 363.5,727.0 L 364.5,726.0 L 364.5,716.0 L 365.5,715.0 L 365.5,705.0 L 366.5,704.0 L 366.5,694.0 L 367.5,693.0 L 367.5,683.0 L 368.5,682.0 L 368.5,680.0 L 355.5,667.0 L 355.5,666.0 L 352.5,663.0 L 349.5,657.0 L 347.5,655.0 L 346.5,651.0 L 345.5,650.0 L 345.5,648.0 L 344.5,647.0 L 344.5,638.0 L 346.5,634.0 L 351.0,629.5 L 355.0,628.5 L 356.0,627.5 L 360.0,627.5 L 361.0,628.5 L 364.0,628.5 L 366.0,629.5 L 372.0,635.5 L 373.5,633.0 L 373.5,624.0 L 374.5,623.0 L 374.5,619.0 L 376.5,615.0 L 380.0,611.5 L 383.0,610.5 L 385.0,608.5 L 393.0,605.5 L 395.5,608.0 L 395.5,610.0 L 392.0,613.5 L 383.0,617.5 L 381.5,620.0 L 381.5,623.0 L 380.5,624.0 L 380.5,632.0 L 379.5,633.0 L 379.5,646.0 L 380.5,648.0 L 391.0,658.5 L 392.0,658.5 L 397.0,662.5 L 400.0,663.5 L 402.0,665.5 L 410.0,668.5 L 410.5,668.0 L 409.5,666.0 L 403.5,660.0 L 403.5,659.0 L 397.5,653.0 L 397.5,652.0 L 390.5,645.0 L 390.5,644.0 L 388.5,642.0 L 386.5,638.0 L 386.5,631.0 L 390.0,625.5 L 391.0,625.5 L 393.0,623.5 L 396.0,623.5 L 397.0,622.5 L 400.0,622.5 L 401.0,623.5 L 406.0,624.5 L 412.0,628.5 L 413.5,628.0 L 413.5,623.0 L 414.5,622.0 L 414.5,620.0 L 417.5,614.0 L 419.5,612.0 L 419.5,608.0 L 418.5,607.0 L 418.5,593.0 L 414.0,592.5 L 413.0,591.5 L 410.0,591.5 L 406.0,589.5 L 401.0,588.5 L 382.0,578.5 L 374.0,578.5 L 373.0,579.5 L 362.0,579.5 L 361.0,578.5 L 343.0,578.5 L 342.0,577.5 L 334.0,577.5 L 333.0,576.5 L 326.0,576.5 L 325.0,575.5 L 314.0,574.5 L 313.0,573.5 L 309.0,573.5 L 305.0,571.5 L 303.5,573.0 L 303.5,576.0 L 304.5,577.0 L 304.5,584.0 L 302.5,588.0 L 305.5,592.0 L 309.5,600.0 L 309.5,602.0 L 311.5,605.0 L 311.5,608.0 L 312.5,609.0 L 313.5,615.0 L 314.5,616.0 L 314.5,621.0 L 313.5,622.0 L 313.5,624.0 L 309.0,627.5 L 304.0,627.5 L 301.0,625.5 L 300.5,626.0 L 301.5,627.0 L 301.5,630.0 L 302.5,631.0 L 302.5,634.0 L 303.5,635.0 L 304.5,642.0 L 303.5,643.0 L 303.5,645.0 L 297.5,650.0 L 297.5,653.0 L 298.5,654.0 L 298.5,689.0 L 299.5,690.0 L 299.5,739.0 L 300.5,740.0 L 300.5,794.0 L 301.5,795.0 L 301.5,840.0 L 302.5,841.0 L 302.5,854.0 L 304.0,855.5 L 308.0,856.5 L 309.0,857.5 L 312.0,857.5 L 313.0,858.5 L 319.0,858.5 L 320.0,859.5 L 338.5,859.0 Z M 284.5,587.0 L 293.0,585.5 L 297.5,582.0 L 297.5,578.0 L 296.5,577.0 L 296.0,574.5 L 294.0,575.5 L 291.0,575.5 L 290.0,576.5 L 287.0,576.5 L 286.0,577.5 L 279.0,577.5 L 278.0,578.5 L 271.0,578.5 L 270.0,577.5 L 264.0,577.5 L 263.0,576.5 L 262.5,577.0 L 262.5,583.0 L 263.5,584.0 L 263.5,586.0 L 266.0,587.5 L 284.5,587.0 Z M 187.5,812.0 L 187.5,623.0 L 186.5,622.0 L 186.5,617.0 L 185.5,616.0 L 184.5,611.0 L 182.5,607.0 L 178.5,602.0 L 178.5,601.0 L 174.0,596.5 L 173.0,596.5 L 167.0,591.5 L 163.0,589.5 L 161.0,589.5 L 160.0,588.5 L 157.0,588.5 L 156.0,587.5 L 140.0,587.5 L 139.0,588.5 L 134.0,589.5 L 128.0,592.5 L 116.5,603.0 L 112.5,610.0 L 111.5,615.0 L 110.5,616.0 L 110.5,619.0 L 109.5,620.0 L 109.5,801.0 L 110.5,802.0 L 111.5,806.0 L 116.0,810.5 L 120.0,812.5 L 187.5,812.0 Z M 903.5,812.0 L 907.0,810.5 L 911.5,806.0 L 913.5,802.0 L 913.5,619.0 L 912.5,618.0 L 911.5,612.0 L 908.5,606.0 L 898.0,594.5 L 889.0,589.5 L 883.0,588.5 L 882.0,587.5 L 867.0,587.5 L 866.0,588.5 L 861.0,589.5 L 855.0,592.5 L 851.5,596.0 L 851.5,607.0 L 850.5,608.0 L 850.5,621.0 L 849.5,622.0 L 849.5,635.0 L 850.5,636.0 L 850.5,639.0 L 851.5,640.0 L 851.5,644.0 L 852.5,645.0 L 852.5,656.0 L 853.5,657.0 L 852.5,659.0 L 852.5,667.0 L 851.5,668.0 L 850.5,673.0 L 848.5,677.0 L 842.0,683.5 L 839.0,684.5 L 835.0,688.5 L 834.0,688.5 L 832.5,690.0 L 832.5,692.0 L 831.5,693.0 L 831.5,703.0 L 830.5,704.0 L 830.5,713.0 L 829.5,714.0 L 829.5,723.0 L 828.5,724.0 L 828.5,735.0 L 827.5,736.0 L 827.5,746.0 L 826.5,747.0 L 826.5,762.0 L 825.5,763.0 L 825.5,777.0 L 824.5,778.0 L 824.5,793.0 L 823.5,794.0 L 823.5,807.0 L 822.5,808.0 L 822.5,812.0 L 903.5,812.0 Z M 296.5,643.0 L 297.5,642.0 L 297.5,639.0 L 296.5,638.0 L 296.5,635.0 L 295.5,634.0 L 294.5,627.0 L 293.5,626.0 L 293.5,621.0 L 292.5,620.0 L 292.5,611.0 L 293.5,609.0 L 295.0,607.5 L 297.0,607.5 L 298.5,609.0 L 302.5,618.0 L 306.0,620.5 L 307.5,620.0 L 306.5,612.0 L 305.5,611.0 L 303.5,603.0 L 299.5,595.0 L 297.0,591.5 L 294.0,591.5 L 293.0,592.5 L 290.0,592.5 L 289.0,593.5 L 285.0,593.5 L 284.0,594.5 L 266.0,594.5 L 265.5,598.0 L 264.5,599.0 L 264.5,615.0 L 265.5,616.0 L 265.5,621.0 L 266.5,622.0 L 266.5,625.0 L 267.5,626.0 L 267.5,628.0 L 269.5,632.0 L 272.0,634.5 L 272.5,634.0 L 271.5,630.0 L 270.5,629.0 L 270.5,622.0 L 272.0,620.5 L 273.0,620.5 L 275.5,623.0 L 275.5,627.0 L 276.5,628.0 L 277.5,634.0 L 279.5,638.0 L 284.0,642.5 L 286.0,642.5 L 286.5,641.0 L 283.5,636.0 L 282.5,630.0 L 281.5,629.0 L 281.5,622.0 L 283.0,620.5 L 285.0,620.5 L 286.5,622.0 L 287.5,629.0 L 288.5,630.0 L 289.5,635.0 L 292.5,641.0 L 296.0,643.5 L 296.5,643.0 Z M 799.5,863.0 L 807.0,862.5 L 808.0,861.5 L 810.0,861.5 L 812.5,859.0 L 812.5,848.0 L 813.5,847.0 L 813.5,837.0 L 814.5,836.0 L 814.5,826.0 L 815.5,825.0 L 815.5,812.0 L 816.5,811.0 L 816.5,795.0 L 817.5,794.0 L 817.5,780.0 L 818.5,779.0 L 818.5,766.0 L 819.5,765.0 L 819.5,751.0 L 820.5,750.0 L 820.5,738.0 L 821.5,737.0 L 822.5,715.0 L 823.5,714.0 L 823.5,704.0 L 824.5,703.0 L 824.5,694.0 L 825.5,693.0 L 825.0,690.5 L 819.0,691.5 L 815.0,689.5 L 812.5,686.0 L 812.5,679.0 L 813.5,678.0 L 813.5,675.0 L 814.5,674.0 L 814.5,670.0 L 814.0,669.5 L 813.0,670.5 L 806.0,670.5 L 802.5,666.0 L 802.5,658.0 L 803.5,657.0 L 804.5,649.0 L 805.5,648.0 L 806.5,643.0 L 808.5,639.0 L 813.5,633.0 L 813.5,631.0 L 814.5,630.0 L 814.5,615.0 L 809.0,614.5 L 808.0,615.5 L 804.0,615.5 L 803.0,616.5 L 799.0,616.5 L 798.0,617.5 L 793.0,617.5 L 792.0,618.5 L 785.0,618.5 L 784.0,619.5 L 774.0,619.5 L 773.0,620.5 L 738.0,620.5 L 737.0,619.5 L 727.0,619.5 L 726.0,618.5 L 720.0,618.5 L 719.0,617.5 L 714.0,617.5 L 713.0,616.5 L 710.0,616.5 L 709.0,615.5 L 706.0,615.5 L 705.0,614.5 L 701.0,614.5 L 700.5,617.0 L 699.5,618.0 L 699.5,643.0 L 698.5,644.0 L 698.5,661.0 L 699.5,662.0 L 699.5,693.0 L 700.5,694.0 L 700.5,711.0 L 701.5,712.0 L 701.5,726.0 L 702.5,727.0 L 702.5,738.0 L 703.5,739.0 L 703.5,749.0 L 704.5,750.0 L 704.5,760.0 L 705.5,761.0 L 705.5,771.0 L 706.5,772.0 L 706.5,782.0 L 707.5,783.0 L 707.5,792.0 L 708.5,793.0 L 708.5,801.0 L 709.5,802.0 L 709.5,811.0 L 710.5,812.0 L 710.5,821.0 L 711.5,822.0 L 711.5,830.0 L 712.5,831.0 L 712.5,839.0 L 713.5,840.0 L 714.5,855.0 L 719.0,858.5 L 723.0,858.5 L 724.0,859.5 L 740.0,859.5 L 741.0,858.5 L 744.0,858.5 L 746.5,855.0 L 746.5,836.0 L 747.5,835.0 L 747.5,815.0 L 748.5,814.0 L 748.5,794.0 L 749.5,793.0 L 749.5,772.0 L 750.5,771.0 L 750.5,750.0 L 751.5,749.0 L 751.5,731.0 L 752.5,730.0 L 752.5,708.0 L 753.5,707.0 L 753.5,684.0 L 754.5,683.0 L 754.5,679.0 L 753.5,678.0 L 753.5,666.0 L 752.5,665.0 L 752.5,660.0 L 751.0,658.5 L 745.0,655.5 L 741.0,654.5 L 737.5,651.0 L 737.5,649.0 L 739.0,647.5 L 743.0,647.5 L 751.0,651.5 L 755.0,652.5 L 757.5,655.0 L 758.5,659.0 L 759.5,660.0 L 759.5,667.0 L 760.5,668.0 L 760.5,678.0 L 761.5,679.0 L 761.5,689.0 L 762.5,690.0 L 762.5,699.0 L 763.5,700.0 L 764.5,719.0 L 765.5,720.0 L 765.5,729.0 L 766.5,730.0 L 766.5,738.0 L 767.5,739.0 L 767.5,749.0 L 768.5,750.0 L 768.5,759.0 L 769.5,760.0 L 769.5,769.0 L 770.5,770.0 L 770.5,780.0 L 771.5,781.0 L 771.5,790.0 L 772.5,791.0 L 772.5,801.0 L 773.5,802.0 L 773.5,811.0 L 774.5,812.0 L 774.5,821.0 L 775.5,822.0 L 775.5,831.0 L 776.5,832.0 L 776.5,841.0 L 777.5,842.0 L 777.5,851.0 L 778.5,852.0 L 778.5,859.0 L 782.0,861.5 L 785.0,861.5 L 786.0,862.5 L 792.0,862.5 L 793.0,863.5 L 799.5,863.0 Z M 520.5,676.0 L 525.0,675.5 L 526.0,674.5 L 692.0,674.5 L 692.5,664.0 L 691.5,663.0 L 691.5,661.0 L 692.5,660.0 L 681.0,659.5 L 680.0,658.5 L 619.0,658.5 L 618.0,659.5 L 587.0,659.5 L 586.0,660.5 L 572.0,660.5 L 571.0,661.5 L 562.0,661.5 L 561.0,662.5 L 554.0,662.5 L 553.0,663.5 L 548.0,663.5 L 547.0,664.5 L 543.0,664.5 L 542.0,665.5 L 535.0,666.5 L 524.0,671.5 L 518.5,676.0 L 520.5,676.0 Z M 203.5,675.0 L 291.0,674.5 L 291.5,660.0 L 265.0,659.5 L 264.0,660.5 L 249.0,660.5 L 248.0,661.5 L 239.0,661.5 L 238.0,662.5 L 226.0,663.5 L 225.0,664.5 L 222.0,664.5 L 221.0,665.5 L 218.0,665.5 L 217.0,666.5 L 214.0,666.5 L 211.0,668.5 L 209.0,668.5 L 200.5,675.0 L 203.5,675.0 Z M 292.5,736.0 L 292.5,687.0 L 291.5,686.0 L 291.0,681.5 L 203.0,681.5 L 202.0,682.5 L 200.0,682.5 L 195.5,687.0 L 194.5,689.0 L 194.5,727.0 L 196.5,731.0 L 199.0,733.5 L 203.0,735.5 L 205.0,735.5 L 206.0,736.5 L 292.5,736.0 Z M 496.5,736.0 L 503.0,733.5 L 507.5,727.0 L 507.5,689.0 L 506.5,687.0 L 502.0,682.5 L 497.0,681.5 L 491.0,684.5 L 489.0,686.5 L 477.0,692.5 L 475.0,692.5 L 472.0,694.5 L 467.0,695.5 L 466.0,696.5 L 463.0,696.5 L 462.0,697.5 L 459.0,697.5 L 458.0,698.5 L 455.5,699.0 L 455.5,701.0 L 454.5,702.0 L 454.5,725.0 L 453.5,726.0 L 454.0,736.5 L 496.5,736.0 Z M 695.5,736.0 L 694.5,710.0 L 693.5,709.0 L 693.5,691.0 L 692.5,690.0 L 692.0,681.5 L 525.0,681.5 L 524.0,682.5 L 520.0,683.5 L 515.5,689.0 L 515.5,727.0 L 519.0,732.5 L 526.0,736.5 L 695.5,736.0 Z M 380.5,736.0 L 381.5,734.0 L 380.5,733.0 L 380.5,719.0 L 379.5,718.0 L 379.5,701.0 L 378.5,700.0 L 378.5,687.0 L 376.0,684.5 L 375.0,684.5 L 374.5,692.0 L 373.5,693.0 L 373.5,704.0 L 372.5,705.0 L 372.5,714.0 L 371.5,715.0 L 371.5,725.0 L 370.5,726.0 L 370.5,736.0 L 380.5,736.0 Z M 430.5,855.0 L 435.0,854.5 L 436.0,853.5 L 439.0,853.5 L 442.5,849.0 L 442.5,836.0 L 443.5,835.0 L 443.5,809.0 L 444.5,808.0 L 444.5,784.0 L 445.5,783.0 L 445.5,757.0 L 446.5,756.0 L 446.5,733.0 L 447.5,732.0 L 447.5,709.0 L 448.5,708.0 L 448.5,701.0 L 447.0,699.5 L 446.0,700.5 L 419.0,700.5 L 418.0,699.5 L 413.0,699.5 L 412.0,698.5 L 408.0,698.5 L 407.0,697.5 L 401.0,696.5 L 400.0,695.5 L 392.0,693.5 L 386.0,690.5 L 385.5,701.0 L 386.5,702.0 L 387.5,736.0 L 388.5,737.0 L 388.5,756.0 L 389.5,757.0 L 389.5,776.0 L 390.5,777.0 L 390.5,795.0 L 391.5,796.0 L 391.5,814.0 L 392.5,815.0 L 393.5,851.0 L 396.0,853.5 L 398.0,853.5 L 399.0,854.5 L 403.0,854.5 L 404.0,855.5 L 430.5,855.0 Z M 759.5,736.0 L 759.0,728.5 L 758.5,736.0 L 759.5,736.0 Z M 703.5,812.0 L 703.5,809.0 L 702.5,808.0 L 702.5,801.0 L 701.5,800.0 L 701.5,791.0 L 700.5,790.0 L 700.5,781.0 L 699.5,780.0 L 699.5,771.0 L 698.5,770.0 L 697.5,749.0 L 696.5,748.0 L 696.0,743.5 L 527.0,743.5 L 526.0,742.5 L 523.0,742.5 L 522.0,741.5 L 518.0,740.5 L 512.0,734.5 L 511.0,734.5 L 510.5,736.0 L 505.0,740.5 L 501.0,741.5 L 500.0,742.5 L 497.0,742.5 L 496.0,743.5 L 453.5,744.0 L 453.5,753.0 L 452.5,754.0 L 452.5,775.0 L 451.5,776.0 L 451.5,805.0 L 450.5,806.0 L 451.0,812.5 L 703.5,812.0 Z M 294.5,812.0 L 294.5,789.0 L 293.5,788.0 L 293.0,743.5 L 205.0,743.5 L 204.0,742.5 L 201.0,742.5 L 196.0,739.5 L 194.5,740.0 L 195.0,812.5 L 294.5,812.0 Z M 385.5,812.0 L 384.5,810.0 L 384.5,792.0 L 383.5,791.0 L 383.5,774.0 L 382.5,773.0 L 382.5,754.0 L 381.5,753.0 L 381.5,744.0 L 370.0,743.5 L 369.5,747.0 L 368.5,748.0 L 368.5,758.0 L 367.5,759.0 L 367.5,770.0 L 366.5,771.0 L 366.5,783.0 L 365.5,784.0 L 365.5,795.0 L 364.5,796.0 L 364.5,808.0 L 363.5,809.0 L 363.5,812.0 L 385.5,812.0 Z M 767.5,812.0 L 767.5,809.0 L 766.5,808.0 L 766.5,799.0 L 765.5,798.0 L 765.5,790.0 L 764.5,789.0 L 764.5,780.0 L 763.5,779.0 L 763.5,770.0 L 762.5,769.0 L 762.5,760.0 L 761.5,759.0 L 761.5,750.0 L 760.5,749.0 L 760.5,744.0 L 759.0,743.5 L 757.5,746.0 L 757.5,768.0 L 756.5,769.0 L 756.5,789.0 L 755.5,790.0 L 755.5,810.0 L 754.5,812.0 L 767.5,812.0 Z M 754.5,875.0 L 760.0,872.5 L 762.0,870.5 L 769.0,867.5 L 773.5,864.0 L 772.5,863.0 L 772.5,860.0 L 771.5,859.0 L 771.5,851.0 L 770.5,850.0 L 770.5,841.0 L 769.5,840.0 L 769.5,830.0 L 768.5,829.0 L 768.5,821.0 L 767.0,819.5 L 754.5,820.0 L 754.5,832.0 L 753.5,833.0 L 753.5,852.0 L 752.5,853.0 L 752.5,859.0 L 750.5,862.0 L 750.5,864.0 L 751.5,865.0 L 751.5,869.0 L 752.5,870.0 L 752.5,875.0 L 754.5,875.0 Z M 472.5,892.0 L 475.0,891.5 L 477.5,889.0 L 477.5,886.0 L 475.5,882.0 L 470.0,876.5 L 446.0,864.5 L 444.0,862.5 L 440.0,860.5 L 435.0,860.5 L 434.0,861.5 L 430.0,861.5 L 429.0,862.5 L 405.0,862.5 L 404.0,861.5 L 398.5,862.0 L 398.5,868.0 L 397.5,869.0 L 397.5,883.0 L 401.0,887.5 L 403.0,887.5 L 404.0,888.5 L 410.0,888.5 L 411.0,889.5 L 417.0,889.5 L 418.0,890.5 L 436.0,891.5 L 437.0,892.5 L 472.5,892.0 Z M 376.5,897.0 L 380.0,896.5 L 382.5,894.0 L 382.5,889.0 L 381.5,887.0 L 375.0,880.5 L 371.0,878.5 L 369.0,876.5 L 366.0,875.5 L 364.0,873.5 L 359.0,871.5 L 349.0,864.5 L 345.0,864.5 L 344.0,865.5 L 337.0,865.5 L 336.0,866.5 L 321.0,866.5 L 320.0,865.5 L 314.0,865.5 L 313.0,864.5 L 309.0,864.5 L 307.5,866.0 L 307.5,871.0 L 306.5,872.0 L 306.5,888.0 L 307.5,890.0 L 310.0,891.5 L 313.0,891.5 L 314.0,892.5 L 319.0,892.5 L 320.0,893.5 L 325.0,893.5 L 326.0,894.5 L 332.0,894.5 L 333.0,895.5 L 339.0,895.5 L 340.0,896.5 L 348.0,896.5 L 349.0,897.5 L 376.5,897.0 Z M 720.5,892.0 L 729.0,891.5 L 730.0,890.5 L 736.0,890.5 L 737.0,889.5 L 740.5,889.0 L 742.5,885.0 L 746.5,881.0 L 746.5,876.0 L 745.5,875.0 L 745.5,870.0 L 744.5,869.0 L 744.0,865.5 L 740.0,865.5 L 739.0,866.5 L 724.0,866.5 L 723.0,865.5 L 719.0,865.5 L 718.0,864.5 L 716.0,864.5 L 712.0,866.5 L 710.0,868.5 L 706.0,870.5 L 704.0,870.5 L 698.0,873.5 L 696.0,875.5 L 691.0,877.5 L 685.0,882.5 L 684.0,882.5 L 680.5,887.0 L 680.5,890.0 L 682.0,891.5 L 684.0,891.5 L 685.0,892.5 L 720.5,892.0 Z M 778.5,897.0 L 787.0,896.5 L 788.0,895.5 L 795.0,895.5 L 796.0,894.5 L 800.0,894.5 L 801.0,893.5 L 805.0,893.5 L 806.0,892.5 L 809.0,892.5 L 811.0,891.5 L 812.5,890.0 L 812.5,878.0 L 811.5,877.0 L 811.5,872.0 L 810.5,871.0 L 810.5,869.0 L 807.0,868.5 L 806.0,869.5 L 786.0,869.5 L 785.0,868.5 L 780.0,868.5 L 776.0,871.5 L 769.0,874.5 L 767.0,876.5 L 762.0,878.5 L 760.0,880.5 L 754.0,883.5 L 747.5,890.0 L 746.5,892.0 L 747.0,894.5 L 749.0,896.5 L 751.0,896.5 L 752.0,897.5 L 778.5,897.0 Z" fill="black" fill-rule="evenodd" stroke="none" stroke-width="2" stroke-linecap="round" stroke-linejoin="round"/>
    <path d="M 670,120 L 690,180 L 700,120" fill="white" fill-rule="nonzero" stroke="black" stroke-width="8" stroke-linecap="round" stroke-linejoin="round"/>
  </g>
  <g id="bubbles-layer">
    <rect x="50" y="30" width="300" height="90" rx="30" ry="30" stroke="black" stroke-width="8" fill="white"/>
    <path d="M 247.5 116 L 260 180 L 272.5 116" fill="white" stroke="black" stroke-width="8" stroke-linejoin="round"/>
    <rect x="470" y="30" width="530" height="90" rx="30" ry="30" stroke="black" stroke-width="8" fill="white"/>
    <path d="M 616.5 116 L 616.5 116 L 641.5 116" fill="white" stroke="black" stroke-width="8" stroke-linejoin="round"/>
  </g>
  <g id="text-layer">
    <text x="200" y="75" text-anchor="middle" font-family="'Anime Ace 2 BB', sans-serif" font-size="42" font-weight="bold" fill="black"><tspan x="200" dy="14.7">It's Jean.</tspan></text>
    <text x="735" y="75" text-anchor="middle" font-family="'Anime Ace 2 BB', sans-serif" font-size="36" font-weight="bold" fill="black"><tspan x="735" dy="12.6">You haven't even sat down yet.</tspan></text>
  </g>
</svg>