<svg xmlns="http://www.w3.org/2000/svg" viewBox="0 0 1408 1408">
  <g id="art-layer">
    <path d="M 1207.6108323931323 1228.8870806137636 L 221.87414994823507 1228.8870806137636 L 216.57449036519802 1226.237250822245 L 213.92466057367943 1226.237250822245 L 202.66288395972566 1216.3003891040507 L 197.36322437668855 1205.7010699379766 L 197.36322437668855 932.7686014115666 L 198.6881392724478 931.4436865158073 L 198.6881392724478 927.4689418285295 L 200.01305416820708 926.1440269327702 L 201.33796906396634 919.5194524539738 L 211.93728823004056 900.970643913344 L 221.87414994823507 891.0337821951496 L 227.17380953127218 888.3839524036309 L 230.48609677067037 885.0716651642329 L 230.48609677067037 805.5767714186766 L 229.16118187491105 804.2518565229173 L 229.16118187491105 791.0027075653245 L 230.48609677067037 789.6777926695652 L 230.48609677067037 780.4033883992504 L 231.81101166642964 779.0784735034911 L 231.81101166642964 775.1037288162132 L 233.1359265621889 773.778813920454 L 234.46084145794816 765.8293245458983 L 239.76050104098528 755.2300053798242 L 242.4103308325038 752.5801755883056 L 243.73524572826307 748.6054309010278 L 257.6468521337354 733.3689095997961 L 258.9717670294947 733.3689095997961 L 262.94651171677253 729.3941649125184 L 270.8960010913282 725.4194202252405 L 273.5458308828467 722.769590433722 L 278.84549046588376 721.4446755379627 L 286.7949798404394 717.4699308506849 L 290.76972452771724 717.4699308506849 L 292.0946394234765 716.1450159549256 L 300.04412879803215 716.1450159549256 L 301.3690436937914 714.8201010591664 L 521.3049163898311 714.8201010591664 L 533.2291504516645 702.8958669973329 L 534.5540653474238 702.8958669973329 L 538.5288100347016 698.9211223100551 L 565.0271079498871 685.6719733524624 L 567.6769377414057 685.6719733524624 L 571.6516824286834 683.0221435609438 L 576.9513420117205 681.6972286651845 L 578.9387143553595 677.0600265300271 L 584.9008313862762 671.0979094991104 L 588.8755760735539 669.7729946033511 L 590.8629484171929 667.7856222597122 L 590.8629484171929 663.8108775724344 L 577.6137994596002 646.5869839275639 L 570.9892249808038 632.0129200742118 L 566.3520228456464 631.3504626263323 L 565.0271079498871 630.025547730573 L 561.0523632626093 630.025547730573 L 551.7779589922943 624.7258881475359 L 545.8158419613776 617.4388562208599 L 543.1660121698592 612.1391966378228 L 543.1660121698592 608.164451950545 L 541.8410972740999 606.8395370547856 L 541.8410972740999 594.9153029929522 L 543.1660121698592 593.590388097193 L 543.1660121698592 590.9405583056745 L 548.4656717528962 581.6661540353596 L 555.0902462316926 576.3664944523224 L 551.1155015444147 568.4170050777668 L 551.1155015444147 565.7671752862483 L 549.7905866486556 564.442260390489 L 548.4656717528962 553.8429412244149 L 547.1407568571369 552.5180263286555 L 547.1407568571369 528.6695582049887 L 548.4656717528962 527.3446433092294 L 548.4656717528962 520.720068830433 L 549.7905866486556 519.3951539346738 L 552.440416440174 508.79583476859955 L 555.0902462316926 503.4961751855625 L 560.3899058147297 496.8716007067661 L 560.3899058147297 495.5466858110068 L 574.3015122202021 481.6350794055345 L 575.6264271159612 481.6350794055345 L 579.6011718032391 477.66033471825665 L 590.2004909693133 472.3606751352196 L 592.1878633129522 470.3733027915807 L 592.1878633129522 465.07364320854356 L 593.5127782087113 463.74872831278435 L 593.5127782087113 461.0988985212658 L 594.8376931044706 458.4490687297472 L 600.7998101353874 452.48695169883047 L 603.449639926906 451.16203680307126 L 607.4243846141837 451.16203680307126 L 608.7492995099431 449.83712190731194 L 612.7240441972208 449.83712190731194 L 614.0489590929801 451.16203680307126 L 616.6987888844988 451.16203680307126 L 621.9984484675358 453.8118665945898 L 628.6230229463322 461.76135596914537 L 648.4967463827213 461.76135596914537 L 649.8216612784804 463.0862708649047 L 655.1213208615177 463.0862708649047 L 656.4462357572768 464.4111857606639 L 663.0708102360732 465.7361006564232 L 673.6701294021475 471.0357602394603 L 681.619618776703 477.66033471825665 L 682.9445336724623 477.66033471825665 L 691.5564804948976 486.2722815406919 L 694.8687677342957 492.2343985716086 L 698.8435124215735 492.2343985716086 L 700.1684273173328 490.9094836758494 L 716.0674060664442 490.9094836758494 L 717.3923209622035 492.2343985716086 L 722.6919805452405 492.2343985716086 L 724.0168954409999 493.55931346736793 L 726.6667252325183 493.55931346736793 L 734.616214607074 497.5340581546458 L 738.5909592943517 501.5088028419235 L 740.5783316379907 502.1712602898032 L 740.5783316379907 503.4961751855625 L 744.5530763252684 507.47091987284034 L 745.8779912210277 515.4204092473959 L 747.2029061167871 516.7453241431552 L 747.2029061167871 520.720068830433 L 745.8779912210277 522.0449837261923 L 745.8779912210277 526.0197284134701 L 743.2281614295091 531.3193879965072 L 734.616214607074 539.9313348189424 L 717.3923209622035 549.2057390892573 L 714.7424911706848 549.2057390892573 L 712.7551188270459 551.1931114328962 L 712.7551188270459 555.1678561201741 L 714.0800337228052 556.4927710159334 L 714.0800337228052 565.7671752862483 L 715.4049486185645 567.0920901820075 L 715.4049486185645 617.4388562208599 L 714.0800337228052 618.7637711166192 L 714.0800337228052 625.3883455954154 L 712.7551188270459 626.7132604911748 L 712.7551188270459 630.6880051784526 L 711.4302039312868 632.0129200742118 L 711.4302039312868 635.9876647614897 L 710.1052890355274 637.312579657249 L 708.7803741397681 643.9371541360453 L 706.1305443482495 647.9118988233231 L 704.8056294524904 653.2115584063603 L 693.5438528385364 668.4480797075919 L 692.2189379427773 668.4480797075919 L 685.5943634639809 675.0726541863881 L 681.619618776703 676.3975690821475 L 676.9824166415456 679.7098563215457 L 680.2947038809436 684.347058456703 L 685.5943634639809 685.6719733524624 L 689.5691081512587 688.3218031439809 L 692.2189379427773 688.3218031439809 L 709.4428315876478 697.5962074142958 L 723.3544379931202 711.5078138197682 L 723.3544379931202 712.8327287155274 L 725.341810336759 714.8201010591664 L 918.7793851176127 714.8201010591664 L 920.104300013372 716.1450159549256 L 925.4039595964089 716.1450159549256 L 926.7288744921682 717.4699308506849 L 930.7036191794462 717.4699308506849 L 932.0285340752055 718.7948457464443 L 938.6531085540016 720.1197606422035 L 949.2524277200762 725.4194202252405 L 951.9022575115944 728.069250016759 L 957.2019170946317 730.7190798082777 L 961.1766617819096 734.6938244955554 L 972.4384383958634 745.9556011095092 L 983.0377575619377 764.504409650139 L 983.0377575619377 767.1542394416576 L 984.362672457697 768.479154337417 L 984.362672457697 771.1289841289354 L 987.0125022492152 776.4286437119724 L 987.0125022492152 781.7283032950096 L 988.3374171449746 783.0532181907688 L 988.3374171449746 794.9774522526022 L 989.6623320407339 796.3023671483616 L 989.6623320407339 816.1760905847507 L 990.9872469364932 817.50100548051 L 990.9872469364932 834.7248991253805 L 992.3121618322525 836.0498140211398 L 992.3121618322525 853.2737076660103 L 993.6370767280118 854.5986225617696 L 993.6370767280118 871.8225162066401 L 994.9619916237712 873.1474311023994 L 995.6244490716508 879.1095481333161 L 1171.838130207632 879.1095481333161 L 1173.1630451033914 880.4344630290753 L 1178.4627046864282 880.4344630290753 L 1179.7876195821875 881.7593779248346 L 1186.4121940609841 883.0842928205939 L 1199.6613430185769 889.7088672993902 L 1203.6360877058544 893.6836119866681 L 1204.9610026016137 893.6836119866681 L 1217.5476941113268 906.2703034963812 L 1217.5476941113268 907.5952183921404 L 1222.847353694364 914.2197928709368 L 1225.4971834858823 919.5194524539738 L 1225.4971834858823 922.1692822454925 L 1226.8220983816416 923.4941971412517 L 1228.147013277401 930.118771620048 L 1229.4719281731602 931.4436865158073 L 1229.4719281731602 936.7433460988444 L 1230.7968430689195 938.0682609946036 L 1230.7968430689195 1205.7010699379766 L 1229.4719281731602 1207.025984833736 L 1229.4719281731602 1209.6758146252544 L 1226.8220983816416 1214.9754742082916 L 1217.5476941113268 1224.2498784786062 L 1207.6108323931323 1228.8870806137636 Z M 608.0868420620634 465.07364320854356 L 612.7240441972208 464.4111857606639 L 616.0363314366191 462.42381341702503 L 610.0742144057024 460.43644107338616 L 608.7492995099431 461.76135596914537 L 606.0994697184244 461.76135596914537 L 604.1120973747857 463.74872831278435 L 604.7745548226653 465.7361006564232 L 608.0868420620634 465.07364320854356 Z M 600.1373526875077 532.6443028922664 L 602.1247250311467 530.6569305486275 L 606.0994697184244 529.3320156528682 L 608.7492995099431 526.6821858613497 L 612.7240441972208 525.3572709655905 L 619.3486186760172 520.0576113825533 L 645.8469165912027 506.8084624249607 L 648.4967463827213 506.8084624249607 L 659.0960655487954 501.5088028419235 L 669.6953847148695 498.858973050405 L 671.0202996106289 497.5340581546458 L 677.6448740894252 496.20914325888646 L 678.9697889851846 494.88422836312725 L 681.619618776703 494.88422836312725 L 682.2820762245826 492.89685601948827 L 672.3452145063882 482.9599943012937 L 671.0202996106289 482.9599943012937 L 668.3704698191102 480.3101645097752 L 660.4209804445547 476.33541982249744 L 653.7964059657584 475.0105049267381 L 652.471491069999 473.6855900309788 L 647.171831486962 473.6855900309788 L 645.8469165912027 472.3606751352196 L 627.2981080505729 472.3606751352196 L 624.6482782590542 473.6855900309788 L 620.6735335717765 473.6855900309788 L 612.7240441972208 477.66033471825665 L 606.7619271663041 483.62245174917336 L 601.462267583267 492.89685601948827 L 601.462267583267 495.5466858110068 L 598.8124377917486 500.84634539404396 L 598.8124377917486 504.8210900813217 L 597.4875228959893 506.146004977081 L 597.4875228959893 532.6443028922664 L 600.1373526875077 532.6443028922664 Z M 563.0397356062481 560.4675157032111 L 588.2131186256743 540.5937922668221 L 588.2131186256743 533.9692177880257 L 586.8882037299152 532.6443028922664 L 586.8882037299152 520.720068830433 L 585.5632888341559 519.3951539346738 L 585.5632888341559 516.7453241431552 L 586.8882037299152 515.4204092473959 L 586.8882037299152 504.8210900813217 L 588.2131186256743 503.4961751855625 L 588.2131186256743 498.19651560252544 L 589.5380335214336 496.8716007067661 L 589.5380335214336 492.89685601948827 L 594.8376931044706 483.62245174917336 L 594.175235656591 481.6350794055345 L 584.9008313862762 488.2596538843309 L 583.5759164905169 488.2596538843309 L 579.6011718032391 492.2343985716086 L 578.2762569074798 492.2343985716086 L 570.9892249808038 499.52143049828464 L 570.9892249808038 500.84634539404396 L 565.6895653977667 507.47091987284034 L 561.714820710489 515.4204092473959 L 561.714820710489 518.0702390389145 L 559.0649909189704 523.3698986219515 L 559.0649909189704 529.9944731007479 L 557.740076023211 531.3193879965072 L 557.740076023211 549.868196537137 L 559.0649909189704 551.1931114328962 L 559.0649909189704 556.4927710159334 L 560.3899058147297 557.8176859116926 L 560.3899058147297 560.4675157032111 L 563.0397356062481 560.4675157032111 Z M 714.0800337228052 537.9439624753036 L 725.341810336759 533.3067603401461 L 733.9537571591943 524.6948135177108 L 735.2786720549536 522.0449837261923 L 735.2786720549536 514.0954943516366 L 729.3165550240369 506.8084624249607 L 724.0168954409999 504.15863263344215 L 721.3670656494812 504.15863263344215 L 720.0421507537219 502.83371773768283 L 698.8435124215735 502.83371773768283 L 697.5185975258144 504.15863263344215 L 690.894023047018 505.48354752920136 L 680.2947038809436 510.7832071122384 L 676.9824166415456 514.0954943516366 L 682.9445336724623 514.7579517995163 L 684.2694485682216 516.0828666952756 L 686.91927835974 516.0828666952756 L 688.2441932554993 517.4077815910348 L 693.5438528385364 518.7326964867941 L 696.193682630055 521.3825262783126 L 701.4933422130921 524.0323560698312 L 706.1305443482495 528.6695582049887 L 706.1305443482495 529.9944731007479 L 710.1052890355274 535.294132683785 L 710.7677464834071 538.6064199231831 L 714.0800337228052 537.9439624753036 Z M 621.3359910196561 540.5937922668221 L 625.9731931548135 539.9313348189424 L 627.2981080505729 538.6064199231831 L 629.9479378420915 538.6064199231831 L 635.2475974251286 535.9565901316646 L 637.897427216647 533.3067603401461 L 643.197086799684 530.6569305486275 L 651.1465761742397 522.707441174072 L 652.471491069999 522.707441174072 L 659.0960655487954 514.7579517995163 L 661.0834378924344 514.0954943516366 L 659.0960655487954 513.433036903757 L 657.7711506530361 514.7579517995163 L 655.1213208615177 514.7579517995163 L 648.4967463827213 518.7326964867941 L 645.8469165912027 518.7326964867941 L 640.5472570081656 521.3825262783126 L 635.2475974251286 524.0323560698312 L 632.5977676336099 526.6821858613497 L 623.3233633632951 530.6569305486275 L 620.6735335717765 533.3067603401461 L 616.6987888844988 534.6316752359054 L 614.0489590929801 537.2815050274239 L 610.0742144057024 538.6064199231831 L 608.0868420620634 540.5937922668221 L 621.3359910196561 540.5937922668221 Z M 645.184459143323 690.3091754876199 L 648.4967463827213 689.6467180397402 L 653.1339485178787 686.334430800342 L 643.197086799684 685.6719733524624 L 641.8721719039249 684.347058456703 L 636.5725123208879 684.347058456703 L 635.2475974251286 683.0221435609438 L 627.2981080505729 681.6972286651845 L 621.3359910196561 677.0600265300271 L 621.3359910196561 673.0852818427493 L 624.6482782590542 669.7729946033511 L 628.6230229463322 669.7729946033511 L 629.9479378420915 671.0979094991104 L 632.5977676336099 671.0979094991104 L 637.897427216647 673.7477392906289 L 643.197086799684 673.7477392906289 L 644.5220016954434 675.0726541863881 L 657.7711506530361 675.0726541863881 L 659.0960655487954 673.7477392906289 L 663.0708102360732 673.7477392906289 L 664.3957251318325 672.4228243948696 L 667.0455549233511 672.4228243948696 L 668.3704698191102 671.0979094991104 L 671.0202996106289 671.0979094991104 L 676.3199591936659 668.4480797075919 L 686.2568209118606 659.8361328851565 L 692.8813953906567 651.886643510601 L 696.8561400779347 643.9371541360453 L 696.8561400779347 641.2873243445267 L 699.5059698694531 637.312579657249 L 700.8308847652124 629.3630902826933 L 702.1557996609718 628.0381753869341 L 702.1557996609718 622.7385158038969 L 703.4807145567311 621.4136009081377 L 703.4807145567311 613.464111533582 L 704.8056294524904 612.1391966378228 L 704.8056294524904 572.3917497650447 L 703.4807145567311 571.0668348692853 L 703.4807145567311 559.1426008074519 L 702.1557996609718 557.8176859116926 L 702.1557996609718 551.1931114328962 L 700.8308847652124 549.868196537137 L 700.8308847652124 543.2436220583406 L 699.5059698694531 541.9187071625813 L 698.181054973694 536.6190475795443 L 692.2189379427773 530.6569305486275 L 684.2694485682216 526.6821858613497 L 681.619618776703 526.6821858613497 L 680.2947038809436 525.3572709655905 L 674.9950442979066 525.3572709655905 L 673.6701294021475 524.0323560698312 L 665.7206400275918 524.0323560698312 L 649.8216612784804 539.9313348189424 L 632.5977676336099 549.2057390892573 L 628.6230229463322 549.2057390892573 L 627.2981080505729 550.5306539850167 L 623.3233633632951 550.5306539850167 L 621.9984484675358 551.8555688807759 L 598.149980343869 551.8555688807759 L 597.4875228959893 561.7924305989704 L 596.16260800023 563.1173454947298 L 596.16260800023 569.741919973526 L 593.5127782087113 575.0415795565632 L 593.5127782087113 577.6914093480817 L 588.2131186256743 588.2907285141558 L 586.2257462820355 590.2781008577948 L 580.9260866989985 594.2528455450727 L 578.2762569074798 592.9279306493133 L 572.9765973244428 587.6282710662763 L 567.6769377414057 584.9784412747578 L 562.3772781583687 584.9784412747578 L 555.0902462316926 590.9405583056745 L 553.7653313359333 596.2402178887115 L 552.440416440174 597.5651327844707 L 552.440416440174 605.5146221590264 L 553.7653313359333 606.8395370547856 L 553.7653313359333 609.4893668463043 L 561.0523632626093 618.1013136687395 L 566.3520228456464 619.4262285644987 L 567.6769377414057 620.751143460258 L 571.6516824286834 620.751143460258 L 582.2510015947576 614.1265689814617 L 583.5759164905169 615.451483877221 L 586.8882037299152 616.1139413251005 L 588.2131186256743 621.4136009081377 L 581.5885441468779 628.0381753869341 L 581.5885441468779 629.3630902826933 L 582.9134590426372 630.6880051784526 L 582.9134590426372 633.3378349699711 L 586.8882037299152 641.2873243445267 L 593.5127782087113 649.2368137190824 L 593.5127782087113 650.5617286148416 L 598.8124377917486 655.8613881978788 L 601.462267583267 661.1610477809159 L 601.462267583267 671.7603669469901 L 602.7871824790263 674.4101967385086 L 608.7492995099431 680.3723137694253 L 618.0237037802581 685.6719733524624 L 620.6735335717765 685.6719733524624 L 621.9984484675358 686.9968882482217 L 624.6482782590542 686.9968882482217 L 629.9479378420915 689.6467180397402 L 637.897427216647 689.6467180397402 L 639.2223421124063 690.9716329354994 L 645.184459143323 690.3091754876199 Z M 790.2626402289634 607.5019945026653 L 778.33840616713 607.5019945026653 L 775.6885763756113 606.1770796069061 L 771.0513742404539 601.5398774717486 L 769.7264593446946 594.9153029929522 L 771.0513742404539 593.590388097193 L 771.0513742404539 590.9405583056745 L 777.0134912713706 584.9784412747578 L 779.6633210628893 583.6535263789984 L 789.6001827810837 582.9910689311188 L 789.6001827810837 544.5685369541 L 792.9124700204818 541.2562497147018 L 796.8872147077598 541.2562497147018 L 804.8367040823155 550.5306539850167 L 810.1363636653525 553.1804837765352 L 818.7483104877876 561.7924305989704 L 821.3981402793063 571.0668348692853 L 820.073225383547 572.3917497650447 L 820.073225383547 575.0415795565632 L 818.085853039908 577.0289519002021 L 814.1111083526303 578.3538667959614 L 811.4612785611116 577.0289519002021 L 809.4739062174729 573.7166646608039 L 809.4739062174729 567.0920901820075 L 804.8367040823155 562.4548880468501 L 802.1868742907968 561.1299731510908 L 800.1995019471578 561.7924305989704 L 800.1995019471578 598.89004768023 L 795.5622998120004 604.8521647111468 L 790.2626402289634 607.5019945026653 Z M 580.2636292511188 579.0163242438409 L 582.9134590426372 575.0415795565632 L 582.9134590426372 572.3917497650447 L 585.5632888341559 567.0920901820075 L 585.5632888341559 560.4675157032111 L 586.8882037299152 559.1426008074519 L 586.2257462820355 557.155228463813 L 582.2510015947576 558.4801433595723 L 565.6895653977667 572.3917497650447 L 566.3520228456464 574.3791221086835 L 570.3267675329241 574.3791221086835 L 571.6516824286834 575.7040370044429 L 576.9513420117205 577.0289519002021 L 579.6011718032391 579.6787816917206 L 580.2636292511188 579.0163242438409 Z M 637.897427216647 590.2781008577948 L 631.2728527378506 590.2781008577948 L 627.9605654984525 588.2907285141558 L 626.6356506026932 585.6408987226373 L 626.6356506026932 580.3412391396002 L 628.6230229463322 577.0289519002021 L 631.2728527378506 575.7040370044429 L 636.5725123208879 575.7040370044429 L 641.2097144560453 580.3412391396002 L 641.2097144560453 585.6408987226373 L 637.897427216647 590.2781008577948 Z M 690.894023047018 590.2781008577948 L 685.5943634639809 590.2781008577948 L 682.2820762245826 588.2907285141558 L 680.9571613288233 585.6408987226373 L 680.9571613288233 580.3412391396002 L 682.2820762245826 577.6914093480817 L 685.5943634639809 575.7040370044429 L 690.894023047018 575.7040370044429 L 693.5438528385364 577.0289519002021 L 695.5312251821754 580.3412391396002 L 695.5312251821754 585.6408987226373 L 694.206310286416 588.2907285141558 L 690.894023047018 590.2781008577948 Z M 669.6953847148695 611.4767391899431 L 664.3957251318325 611.4767391899431 L 662.4083527881935 609.4893668463043 L 663.0708102360732 603.5272498153876 L 668.3704698191102 602.2023349196282 L 673.0076719542678 605.5146221590264 L 673.0076719542678 608.164451950545 L 669.6953847148695 611.4767391899431 Z M 735.9411295028333 628.7006328348136 L 730.641469919796 628.7006328348136 L 728.6540975761573 626.7132604911748 L 727.3291826803979 622.7385158038969 L 729.3165550240369 619.4262285644987 L 750.5151933561851 608.8269093984246 L 755.8148529392222 608.8269093984246 L 759.1271401786205 612.1391966378228 L 759.1271401786205 614.7890264293413 L 757.1397678349815 618.1013136687395 L 735.9411295028333 628.7006328348136 Z M 677.6448740894252 645.9245264796842 L 673.6701294021475 645.9245264796842 L 669.0329272669899 641.2873243445267 L 669.0329272669899 632.0129200742118 L 670.3578421627492 629.3630902826933 L 674.9950442979066 626.0508030432951 L 677.6448740894252 626.0508030432951 L 680.9571613288233 629.3630902826933 L 680.9571613288233 632.0129200742118 L 678.3073315373049 634.6627498657303 L 680.9571613288233 639.9624094487675 L 680.9571613288233 642.612239240286 L 677.6448740894252 645.9245264796842 Z M 647.8342889348417 708.8579840282497 L 653.7964059657584 708.19552658037 L 661.7458953403138 704.2207818930922 L 667.7080123712308 699.5835797579348 L 671.6827570585085 691.6340903833791 L 667.0455549233511 685.6719733524624 L 659.0960655487954 696.2712925185366 L 651.1465761742397 700.2460372058143 L 647.171831486962 700.2460372058143 L 645.8469165912027 701.5709521015737 L 637.897427216647 701.5709521015737 L 636.5725123208879 700.2460372058143 L 628.6230229463322 700.2460372058143 L 627.2981080505729 698.9211223100551 L 618.0237037802581 697.5962074142958 L 604.7745548226653 690.9716329354994 L 592.8503207608319 680.3723137694253 L 590.2004909693133 680.3723137694253 L 588.2131186256743 682.3596861130642 L 588.2131186256743 687.6593456961012 L 596.8250654481096 696.2712925185366 L 614.0489590929801 705.5456967888515 L 621.9984484675358 706.8706116846107 L 623.3233633632951 708.19552658037 L 629.9479378420915 708.19552658037 L 631.2728527378506 709.5204414761292 L 647.8342889348417 708.8579840282497 Z M 593.5127782087113 899.6457290175848 L 602.1247250311467 898.9832715697052 L 603.449639926906 897.658356673946 L 610.0742144057024 897.658356673946 L 611.3991293014617 896.3334417781866 L 616.6987888844988 896.3334417781866 L 618.0237037802581 895.0085268824273 L 620.6735335717765 895.0085268824273 L 621.9984484675358 893.6836119866681 L 624.6482782590542 893.6836119866681 L 625.9731931548135 892.3586970909089 L 628.6230229463322 892.3586970909089 L 635.9100548730082 889.0464098515106 L 634.5851399772489 883.7467502684735 L 633.2602250814896 882.4218353727142 L 633.2602250814896 878.4470906854365 L 631.9353101857303 877.1221757896772 L 631.9353101857303 865.1979417278437 L 633.2602250814896 863.8730268320844 L 634.5851399772489 855.9235374575288 L 637.2349697687673 851.948792770251 L 635.2475974251286 849.9614204266121 L 632.5977676336099 849.9614204266121 L 631.2728527378506 848.6365055308529 L 625.9731931548135 848.6365055308529 L 624.6482782590542 847.3115906350936 L 611.3991293014617 847.3115906350936 L 610.0742144057024 845.9866757393343 L 583.5759164905169 845.9866757393343 L 582.2510015947576 844.6617608435749 L 562.3772781583687 844.6617608435749 L 561.0523632626093 843.3368459478157 L 547.8032143050166 843.3368459478157 L 543.1660121698592 840.0245587084175 L 543.1660121698592 834.7248991253805 L 546.4782994092573 832.7375267817415 L 560.3899058147297 832.075069333862 L 560.3899058147297 822.8006650635471 L 561.714820710489 821.4757501677877 L 561.714820710489 812.2013458974728 L 563.0397356062481 810.8764310017136 L 563.0397356062481 802.9269416271579 L 564.3646505020074 801.6020267313986 L 564.3646505020074 793.652537356843 L 565.6895653977667 792.3276224610838 L 565.6895653977667 784.3781330865281 L 567.014480293526 783.0532181907688 L 567.014480293526 776.4286437119724 L 570.3267675329241 771.791441576815 L 574.3015122202021 771.791441576815 L 577.6137994596002 775.1037288162132 L 576.2888845638408 794.9774522526022 L 574.9639696680815 796.3023671483616 L 573.6390547723224 813.526260793232 L 572.3141398765631 814.8511756889914 L 572.3141398765631 824.1255799593064 L 570.9892249808038 825.4504948550656 L 571.6516824286834 834.0624416775008 L 588.8755760735539 834.0624416775008 L 590.2004909693133 835.3873565732601 L 610.0742144057024 835.3873565732601 L 611.3991293014617 836.7122714690195 L 625.9731931548135 836.7122714690195 L 627.2981080505729 838.0371863647787 L 633.9226825293692 838.0371863647787 L 635.2475974251286 839.3621012605379 L 637.897427216647 839.3621012605379 L 643.197086799684 842.0119310520565 L 645.8469165912027 844.6617608435749 L 651.1465761742397 843.3368459478157 L 652.471491069999 842.0119310520565 L 656.4462357572768 842.0119310520565 L 657.7711506530361 840.6870161562972 L 663.0708102360732 840.6870161562972 L 664.3957251318325 839.3621012605379 L 682.9445336724623 839.3621012605379 L 684.2694485682216 840.6870161562972 L 690.894023047018 840.6870161562972 L 692.2189379427773 842.0119310520565 L 698.8435124215735 843.3368459478157 L 706.7930017961291 847.3115906350936 L 709.4428315876478 849.9614204266121 L 717.3923209622035 847.3115906350936 L 718.0547784100831 838.6996438126582 L 716.7298635143238 837.374728916899 L 715.4049486185645 825.4504948550656 L 712.7551188270459 820.1508352720284 L 712.7551188270459 814.8511756889914 L 711.4302039312868 813.526260793232 L 711.4302039312868 809.5515161059543 L 710.1052890355274 808.226601210195 L 710.1052890355274 802.9269416271579 L 708.7803741397681 801.6020267313986 L 708.7803741397681 796.3023671483616 L 707.4554592440088 794.9774522526022 L 707.4554592440088 788.352877773806 L 706.1305443482495 787.0279628780468 L 706.1305443482495 779.0784735034911 L 704.8056294524904 777.7535586077317 L 704.8056294524904 768.479154337417 L 703.4807145567311 767.1542394416576 L 703.4807145567311 764.504409650139 L 706.7930017961291 759.8672075149816 L 710.7677464834071 759.8672075149816 L 715.4049486185645 765.8293245458983 L 715.4049486185645 775.1037288162132 L 716.7298635143238 776.4286437119724 L 718.0547784100831 792.3276224610838 L 719.3796933058422 793.652537356843 L 720.7046082016016 805.5767714186766 L 722.0295230973609 806.9016863144358 L 722.0295230973609 812.2013458974728 L 723.3544379931202 813.526260793232 L 723.3544379931202 817.50100548051 L 724.6793528888793 818.8259203762692 L 726.0042677846386 828.1003246465841 L 727.3291826803979 829.4252395423434 L 728.6540975761573 840.0245587084175 L 730.641469919796 840.6870161562972 L 731.9663848155553 839.3621012605379 L 734.616214607074 839.3621012605379 L 743.8906188773888 834.0624416775008 L 746.5404486689074 834.0624416775008 L 750.5151933561851 831.4126118859823 L 753.1650231477038 831.4126118859823 L 755.1523954913428 829.4252395423434 L 755.1523954913428 826.7754097508248 L 753.8274805955834 825.4504948550656 L 752.5025656998241 818.8259203762692 L 751.1776508040648 817.50100548051 L 751.1776508040648 813.526260793232 L 749.8527359083055 812.2013458974728 L 749.8527359083055 809.5515161059543 L 747.2029061167871 804.2518565229173 L 747.2029061167871 800.2771118356394 L 745.8779912210277 798.9521969398802 L 744.5530763252684 792.3276224610838 L 743.2281614295091 791.0027075653245 L 743.2281614295091 788.352877773806 L 740.5783316379907 783.0532181907688 L 740.5783316379907 780.4033883992504 L 739.2534167422314 779.0784735034911 L 739.2534167422314 775.1037288162132 L 737.928501846472 773.778813920454 L 736.603586950713 767.1542394416576 L 733.9537571591943 763.1794947543798 L 731.3039273676757 752.5801755883056 L 726.0042677846386 741.9808564222315 L 726.0042677846386 739.3310266307128 L 716.7298635143238 720.782218090083 L 706.1305443482495 708.8579840282497 L 704.1431720046107 708.19552658037 L 700.1684273173328 704.2207818930922 L 689.5691081512587 698.9211223100551 L 681.619618776703 697.5962074142958 L 673.6701294021475 709.5204414761292 L 672.3452145063882 709.5204414761292 L 668.3704698191102 713.4951861634071 L 660.4209804445547 717.4699308506849 L 652.471491069999 718.7948457464443 L 651.1465761742397 720.1197606422035 L 627.2981080505729 720.1197606422035 L 625.9731931548135 718.7948457464443 L 620.6735335717765 718.7948457464443 L 619.3486186760172 717.4699308506849 L 615.3738739887394 717.4699308506849 L 614.0489590929801 716.1450159549256 L 607.4243846141837 714.8201010591664 L 599.4748952396283 710.8453563718886 L 596.8250654481096 708.19552658037 L 591.5254058650726 705.5456967888515 L 578.2762569074798 692.2965478312587 L 574.3015122202021 694.9463776227773 L 567.6769377414057 696.2712925185366 L 542.5035547219795 709.5204414761292 L 527.2670334207478 724.756962777361 L 523.2922887334701 732.7064521519166 L 520.6424589419514 735.3562819434351 L 519.3175440461921 740.6559415264721 L 516.6677142546737 744.63068621375 L 516.6677142546737 747.2805160052685 L 514.017884463155 751.2552606925464 L 512.692969567396 757.8798351713426 L 511.36805467163657 759.2047500671019 L 510.04313977587725 768.479154337417 L 508.71822488011793 769.8040692331762 L 508.71822488011793 773.778813920454 L 507.39330998435867 775.1037288162132 L 506.0683950885996 784.3781330865281 L 504.74348019284025 785.7030479822874 L 503.41856529708093 797.6272820441209 L 502.0936504013216 798.9521969398802 L 500.76873550556223 813.526260793232 L 499.44382060980314 814.8511756889914 L 498.1189057140439 833.3999842296212 L 496.79399081828456 834.7248991253805 L 496.79399081828456 861.223197040566 L 498.1189057140439 862.5481119363252 L 499.44382060980314 870.4976013108808 L 504.74348019284025 881.096920476955 L 510.7055972237569 887.0590375078717 L 512.0305121195163 887.0590375078717 L 518.6550865983127 892.3586970909089 L 521.3049163898311 892.3586970909089 L 525.279661077109 895.0085268824273 L 527.9294908686275 895.0085268824273 L 533.2291504516645 897.658356673946 L 546.4782994092573 898.9832715697052 L 547.8032143050166 900.3081864654644 L 593.5127782087113 899.6457290175848 Z M 243.73524572826307 881.096920476955 L 248.37244786342052 880.4344630290753 L 249.69736275917978 879.1095481333161 L 324.55505436957867 878.4470906854365 L 324.55505436957867 865.1979417278437 L 323.2301394738194 863.8730268320844 L 323.2301394738194 845.3242182914546 L 321.9052245780601 843.9993033956954 L 321.9052245780601 822.8006650635471 L 320.5803096823009 821.4757501677877 L 320.5803096823009 780.4033883992504 L 321.9052245780601 779.0784735034911 L 321.9052245780601 775.1037288162132 L 323.2301394738194 773.778813920454 L 324.55505436957867 767.1542394416576 L 327.2048841610972 763.1794947543798 L 327.2048841610972 760.5296649628613 L 331.179628848375 755.2300053798242 L 332.5045437441343 751.2552606925464 L 336.4792884314121 747.2805160052685 L 336.4792884314121 745.9556011095092 L 350.39089483688446 732.0439947040369 L 351.7158097326438 732.0439947040369 L 355.69055441992157 728.069250016759 L 357.01546931568083 728.069250016759 L 359.0028416593197 726.0818776731202 L 358.3403842114401 725.4194202252405 L 304.01887348530994 725.4194202252405 L 302.6939585895507 726.7443351209998 L 296.0693841107543 726.7443351209998 L 294.74446921499504 728.069250016759 L 290.76972452771724 728.069250016759 L 289.444809631958 729.3941649125184 L 282.8202351531616 730.7190798082777 L 270.8960010913282 737.3436542870741 L 260.9591393731336 745.9556011095092 L 253.00964999857797 755.2300053798242 L 245.06016062402233 769.8040692331762 L 245.06016062402233 772.4538990246947 L 242.4103308325038 777.7535586077317 L 242.4103308325038 783.0532181907688 L 241.08541593674454 784.3781330865281 L 241.08541593674454 881.096920476955 L 243.73524572826307 881.096920476955 Z M 580.2636292511188 1001.6641759910488 L 574.3015122202021 998.3518887516506 L 561.714820710489 987.0901121376968 L 561.714820710489 985.7651972419375 L 553.7653313359333 976.4907929716226 L 548.4656717528962 964.5665589097891 L 539.8537249304609 961.254271670391 L 535.2165227953035 956.6170695352334 L 531.2417781080258 948.6675801606779 L 531.2417781080258 944.6928354734 L 529.9168632122664 943.3679205776408 L 529.9168632122664 935.4184312030852 L 528.5919483165071 934.0935163073259 L 528.5919483165071 907.5952183921404 L 525.279661077109 905.6078460485015 L 518.6550865983127 904.2829311527423 L 510.7055972237569 900.3081864654644 L 501.4311929534419 892.3586970909089 L 500.1062780576828 892.3586970909089 L 494.14416102676614 885.0716651642329 L 488.84450144372886 874.4723459981586 L 487.51958654796977 866.522856623603 L 486.19467165221045 865.1979417278437 L 486.19467165221045 853.2737076660103 L 484.86975675645107 851.948792770251 L 484.86975675645107 845.3242182914546 L 486.19467165221045 843.9993033956954 L 486.19467165221045 830.7501544381026 L 487.51958654796977 829.4252395423434 L 487.51958654796977 820.1508352720284 L 488.84450144372886 818.8259203762692 L 488.84450144372886 810.8764310017136 L 490.1694163394882 809.5515161059543 L 490.1694163394882 804.2518565229173 L 491.49433123524744 802.9269416271579 L 491.49433123524744 796.3023671483616 L 492.81924613100676 794.9774522526022 L 494.14416102676614 783.0532181907688 L 495.46907592252524 781.7283032950096 L 495.46907592252524 777.7535586077317 L 496.79399081828456 776.4286437119724 L 496.79399081828456 772.4538990246947 L 498.1189057140439 771.1289841289354 L 498.1189057140439 767.1542394416576 L 499.44382060980314 765.8293245458983 L 499.44382060980314 761.8545798586206 L 500.76873550556223 760.5296649628613 L 502.0936504013216 753.9050904840649 L 503.41856529708093 752.5801755883056 L 503.41856529708093 748.6054309010278 L 506.0683950885996 744.63068621375 L 507.39330998435867 738.0061117349536 L 512.692969567396 728.7317074646387 L 512.692969567396 726.0818776731202 L 394.11308639694045 725.4194202252405 L 392.78817150118124 726.7443351209998 L 386.16359702238486 726.7443351209998 L 384.83868212662554 728.069250016759 L 376.8891927520699 729.3941649125184 L 372.9144480647921 732.0439947040369 L 370.2646182732736 732.0439947040369 L 367.614788481755 734.6938244955554 L 359.66529910719936 738.6685691828333 L 344.42877780596774 753.9050904840649 L 344.42877780596774 755.2300053798242 L 339.1291182229307 761.8545798586206 L 336.4792884314121 767.1542394416576 L 336.4792884314121 769.8040692331762 L 335.15437353565284 771.1289841289354 L 333.8294586398936 777.7535586077317 L 332.5045437441343 779.0784735034911 L 332.5045437441343 783.0532181907688 L 331.179628848375 784.3781330865281 L 331.179628848375 812.2013458974728 L 332.5045437441343 813.526260793232 L 332.5045437441343 834.7248991253805 L 333.8294586398936 836.0498140211398 L 333.8294586398936 857.248452353288 L 335.15437353565284 858.5733672490474 L 335.15437353565284 877.1221757896772 L 337.1417458792917 879.1095481333161 L 456.38408649762647 879.1095481333161 L 457.709001393386 880.4344630290753 L 465.6584907679416 881.7593779248346 L 473.6079801424973 885.7341226121125 L 476.25780993401577 888.3839524036309 L 477.5827248297751 888.3839524036309 L 490.1694163394882 900.970643913344 L 491.49433123524744 904.9453886006219 L 495.46907592252524 910.245048183659 L 495.46907592252524 912.8948779751775 L 498.1189057140439 916.8696226624554 L 498.1189057140439 920.8443673497331 L 499.44382060980314 922.1692822454925 L 499.44382060980314 927.4689418285295 L 500.76873550556223 928.7938567242888 L 500.76873550556223 1001.6641759910488 L 580.2636292511188 1001.6641759910488 Z M 992.3121618322525 1001.6641759910488 L 992.3121618322525 987.0901121376968 L 990.9872469364932 985.7651972419375 L 990.9872469364932 968.5413035970669 L 989.6623320407339 967.2163887013077 L 989.6623320407339 949.9924950564371 L 988.3374171449746 948.6675801606779 L 987.0125022492152 916.8696226624554 L 985.6875873534564 915.5447077666961 L 985.6875873534564 896.9958992260663 L 984.362672457697 895.670984330307 L 984.362672457697 879.7720055811958 L 983.0377575619377 878.4470906854365 L 983.0377575619377 861.223197040566 L 981.7128426661784 859.8982821448067 L 981.7128426661784 841.3494736041769 L 980.3879277704191 840.0245587084175 L 980.3879277704191 824.1255799593064 L 979.0630128746598 822.8006650635471 L 979.0630128746598 805.5767714186766 L 977.7380979789004 804.2518565229173 L 977.7380979789004 785.7030479822874 L 976.4131830831411 784.3781330865281 L 976.4131830831411 779.0784735034911 L 973.7633532916227 773.778813920454 L 973.7633532916227 771.1289841289354 L 971.1135235001041 767.1542394416576 L 971.1135235001041 764.504409650139 L 968.4636937085854 761.8545798586206 L 967.1387788128261 757.8798351713426 L 963.1640341255481 753.9050904840649 L 963.1640341255481 752.5801755883056 L 950.577342615835 739.9934840785925 L 949.2524277200762 739.9934840785925 L 942.6278532412796 734.6938244955554 L 928.0537893879275 728.069250016759 L 924.07904470065 728.069250016759 L 922.7541298048907 726.7443351209998 L 914.804640430335 726.7443351209998 L 913.4797255345757 725.4194202252405 L 733.2912997113147 725.4194202252405 L 732.628842263435 728.7317074646387 L 736.603586950713 735.3562819434351 L 736.603586950713 738.0061117349536 L 739.2534167422314 741.9808564222315 L 740.5783316379907 748.6054309010278 L 741.90324653375 749.9303457967872 L 741.90324653375 752.5801755883056 L 744.5530763252684 756.5549202755834 L 744.5530763252684 759.2047500671019 L 745.8779912210277 760.5296649628613 L 745.8779912210277 763.1794947543798 L 747.2029061167871 764.504409650139 L 747.2029061167871 767.1542394416576 L 748.5278210125464 768.479154337417 L 748.5278210125464 771.1289841289354 L 749.8527359083055 772.4538990246947 L 749.8527359083055 775.1037288162132 L 751.1776508040648 776.4286437119724 L 751.1776508040648 779.0784735034911 L 753.8274805955834 784.3781330865281 L 753.8274805955834 788.352877773806 L 755.1523954913428 789.6777926695652 L 756.4773103871019 796.3023671483616 L 757.8022252828612 797.6272820441209 L 757.8022252828612 801.6020267313986 L 759.1271401786205 802.9269416271579 L 760.4520550743798 809.5515161059543 L 761.7769699701389 810.8764310017136 L 761.7769699701389 814.8511756889914 L 763.1018848658982 816.1760905847507 L 763.1018848658982 818.8259203762692 L 764.4267997616575 820.1508352720284 L 764.4267997616575 822.8006650635471 L 765.7517146574169 824.1255799593064 L 766.4141721052965 827.4378671987045 L 790.2626402289634 827.4378671987045 L 795.5622998120004 830.0876969902231 L 799.5370444992782 830.0876969902231 L 810.1363636653525 835.3873565732601 L 812.7861934568709 838.0371863647787 L 814.1111083526303 838.0371863647787 L 832.6599168932601 851.2863353223713 L 833.9848317890194 851.2863353223713 L 848.5588956423712 863.2105693842047 L 853.8585552254085 865.8603991757234 L 857.8332999126862 869.8351438630011 L 859.1582148084456 869.8351438630011 L 863.1329594957233 873.8098885502791 L 864.4578743914826 873.8098885502791 L 873.7322786617974 881.7593779248346 L 875.0571935575567 881.7593779248346 L 879.0319382448347 885.7341226121125 L 880.356853140594 885.7341226121125 L 884.3315978278717 889.7088672993902 L 885.6565127236311 889.7088672993902 L 890.9561723066681 895.0085268824273 L 892.2810872024274 895.0085268824273 L 896.2558318897052 898.9832715697052 L 897.5807467854645 898.9832715697052 L 902.8804063685016 904.2829311527423 L 904.2053212642609 904.2829311527423 L 921.4292149091314 918.8569950060942 L 922.7541298048907 918.8569950060942 L 933.3534489709648 930.7812290679277 L 954.552087303113 918.8569950060942 L 962.5015766776685 917.532080110335 L 963.8264915734278 916.2071652145758 L 971.7759809479837 916.2071652145758 L 973.100895843743 917.532080110335 L 975.7507256352612 917.532080110335 L 978.4005554267801 918.8569950060942 L 984.362672457697 924.819112037011 L 985.6875873534564 927.4689418285295 L 985.6875873534564 936.7433460988444 L 980.3879277704191 946.0177503691593 L 976.4131830831411 949.9924950564371 L 976.4131830831411 951.3174099521964 L 972.4384383958634 955.2921546394742 L 972.4384383958634 956.6170695352334 L 968.4636937085854 960.5918142225114 L 968.4636937085854 961.9167291182706 L 963.1640341255481 967.2163887013077 L 963.1640341255481 968.5413035970669 L 957.8643745425113 973.840963180104 L 957.8643745425113 975.1658780758632 L 932.6909915230851 1001.6641759910488 L 992.3121618322525 1001.6641759910488 Z M 635.9100548730082 1001.6641759910488 L 643.197086799684 1001.0017185431691 L 644.5220016954434 999.6768036474099 L 648.4967463827213 999.6768036474099 L 649.8216612784804 998.3518887516506 L 653.7964059657584 998.3518887516506 L 655.1213208615177 997.0269738558914 L 661.7458953403138 995.702058960132 L 668.3704698191102 991.7273142728542 L 671.0202996106289 991.7273142728542 L 678.9697889851846 987.7525695855763 L 681.619618776703 985.1027397940578 L 694.8687677342957 978.4781653152615 L 717.3923209622035 962.5791865661502 L 722.6919805452405 959.9293567746317 L 726.6667252325183 955.9546120873539 L 735.9411295028333 950.6549525043167 L 745.2155337731481 942.7054631297611 L 750.5151933561851 940.0556333382426 L 754.4899380434631 936.0808886509648 L 763.7643423137779 930.7812290679277 L 771.7138316883336 924.1566545891313 L 777.0134912713706 921.5068247976128 L 779.6633210628893 921.5068247976128 L 780.9882359586484 920.1819099018535 L 816.7609381441489 920.1819099018535 L 818.085853039908 921.5068247976128 L 824.7104275187044 921.5068247976128 L 826.0353424144637 922.8317396933721 L 830.0100871017414 922.8317396933721 L 831.3350019975007 924.1566545891313 L 837.9595764762971 925.4815694848905 L 845.9090658508528 929.4563141721685 L 848.5588956423712 932.1061439636869 L 849.8838105381305 932.1061439636869 L 862.4705020478436 944.6928354734 L 871.7449063181587 961.9167291182706 L 873.0698212139177 968.5413035970669 L 889.6312574109088 981.1279951067801 L 892.2810872024274 981.1279951067801 L 894.9309169939459 978.4781653152615 L 896.2558318897052 978.4781653152615 L 907.517608503659 965.8914738055485 L 907.517608503659 964.5665589097891 L 914.1421829824553 956.6170695352334 L 923.4165872527703 936.7433460988444 L 922.091672357011 934.0935163073259 L 913.4797255345757 925.4815694848905 L 912.1548106388166 925.4815694848905 L 906.8551510557793 920.1819099018535 L 905.5302361600202 920.1819099018535 L 900.2305765769829 914.8822503188164 L 898.9056616812238 914.8822503188164 L 886.9814276193904 904.2829311527423 L 885.6565127236311 904.2829311527423 L 865.7827892872419 888.3839524036309 L 860.4831297042049 885.7341226121125 L 855.1834701211676 880.4344630290753 L 853.8585552254085 880.4344630290753 L 844.5841509550935 872.4849736545198 L 839.2844913720564 869.8351438630011 L 835.3097466847787 865.8603991757234 L 830.0100871017414 863.2105693842047 L 826.0353424144637 859.235824696927 L 820.7356828314266 856.5859949054085 L 816.7609381441489 852.6112502181306 L 815.4360232483896 852.6112502181306 L 808.8114487695932 847.3115906350936 L 804.8367040823155 845.9866757393343 L 799.5370444992782 842.0119310520565 L 796.8872147077598 842.0119310520565 L 795.5622998120004 840.6870161562972 L 792.9124700204818 840.6870161562972 L 787.6128104374448 838.0371863647787 L 767.7390870010556 838.0371863647787 L 766.4141721052965 839.3621012605379 L 762.4394274180186 839.3621012605379 L 761.1145125222595 840.6870161562972 L 750.5151933561851 843.3368459478157 L 731.9663848155553 852.6112502181306 L 729.3165550240369 852.6112502181306 L 708.1179166918885 863.2105693842047 L 705.4680869003698 865.8603991757234 L 682.9445336724623 876.4597183417975 L 680.2947038809436 879.1095481333161 L 673.6701294021475 881.7593779248346 L 671.0202996106289 884.4092077163532 L 664.3957251318325 887.0590375078717 L 655.1213208615177 893.6836119866681 L 641.8721719039249 900.3081864654644 L 635.2475974251286 905.6078460485015 L 631.2728527378506 906.9327609442607 L 624.6482782590542 912.2324205272979 L 620.6735335717765 913.5573354230571 L 618.0237037802581 916.2071652145758 L 612.7240441972208 918.8569950060942 L 588.2131186256743 943.3679205776408 L 588.2131186256743 944.6928354734 L 582.2510015947576 950.6549525043167 L 580.9260866989985 950.6549525043167 L 574.3015122202021 957.2795269831131 L 572.9765973244428 957.2795269831131 L 566.3520228456464 962.5791865661502 L 563.7021930541277 962.5791865661502 L 560.3899058147297 964.5665589097891 L 567.014480293526 976.4907929716226 L 571.6516824286834 981.1279951067801 L 578.2762569074798 987.7525695855763 L 579.6011718032391 987.7525695855763 L 582.2510015947576 990.402399377095 L 591.5254058650726 995.702058960132 L 598.149980343869 997.0269738558914 L 603.449639926906 999.6768036474099 L 607.4243846141837 999.6768036474099 L 608.7492995099431 1001.0017185431691 L 618.0237037802581 1001.0017185431691 L 619.3486186760172 1002.3266334389284 L 635.9100548730082 1001.6641759910488 Z M 649.159203830601 883.7467502684735 L 653.7964059657584 881.7593779248346 L 656.4462357572768 879.1095481333161 L 660.4209804445547 877.7846332375568 L 663.0708102360732 875.1348034460383 L 669.6953847148695 872.4849736545198 L 672.3452145063882 869.8351438630011 L 696.193682630055 857.9109098011677 L 698.181054973694 855.9235374575288 L 696.193682630055 853.93616511389 L 688.2441932554993 852.6112502181306 L 686.91927835974 851.2863353223713 L 682.9445336724623 851.2863353223713 L 681.619618776703 849.9614204266121 L 667.0455549233511 849.9614204266121 L 665.7206400275918 851.2863353223713 L 659.0960655487954 851.2863353223713 L 653.7964059657584 853.93616511389 L 647.171831486962 855.2610800096493 L 643.8595442475637 861.223197040566 L 643.8595442475637 865.1979417278437 L 642.5346293518046 866.522856623603 L 642.5346293518046 875.7972608939178 L 643.8595442475637 877.1221757896772 L 645.184459143323 882.4218353727142 L 647.171831486962 884.4092077163532 L 649.159203830601 883.7467502684735 Z M 400.07520342785716 1217.62530399981 L 396.1004587405793 1212.325644416773 L 394.7755438448201 1207.025984833736 L 393.4506289490608 1205.7010699379766 L 393.4506289490608 931.4436865158073 L 394.7755438448201 930.118771620048 L 394.7755438448201 923.4941971412517 L 396.1004587405793 922.1692822454925 L 398.75028853209795 911.5699630794182 L 402.7250332193757 903.6204737048627 L 405.3748630108942 900.970643913344 L 405.3748630108942 899.6457290175848 L 414.6492672812091 890.3713247472699 L 253.67210744645763 889.7088672993902 L 252.34719255069837 891.0337821951496 L 247.04753296766125 891.0337821951496 L 245.722618071902 892.3586970909089 L 243.07278828038346 892.3586970909089 L 241.74787338462414 893.6836119866681 L 239.09804359310561 893.6836119866681 L 233.79838401006856 896.3334417781866 L 231.14855421854998 898.9832715697052 L 229.8236393227907 898.9832715697052 L 219.88677760459615 908.9201332878997 L 219.88677760459615 910.245048183659 L 214.5871180215591 916.8696226624554 L 213.26220312579983 922.1692822454925 L 210.61237333428124 926.1440269327702 L 209.28745843852198 936.7433460988444 L 207.96254354276272 938.0682609946036 L 207.96254354276272 1203.0512401464582 L 210.61237333428124 1208.3508997294953 L 217.89940526095728 1215.637931656171 L 223.19906484399434 1216.9628465519304 L 224.5239797397536 1218.2877614476897 L 400.07520342785716 1217.62530399981 Z M 475.5953524861363 1217.62530399981 L 482.8823844128121 1214.313016760412 L 486.19467165221045 1211.0007295210137 L 488.84450144372886 1205.7010699379766 L 488.84450144372886 1203.0512401464582 L 490.1694163394882 1201.726325250699 L 490.1694163394882 934.0935163073259 L 488.84450144372886 932.7686014115666 L 488.84450144372886 926.1440269327702 L 487.51958654796977 924.819112037011 L 486.19467165221045 916.8696226624554 L 482.2199269649324 908.9201332878997 L 476.9202673818954 903.6204737048627 L 476.25780993401577 901.6331013612237 L 474.9328950382566 901.6331013612237 L 469.63323545521945 896.3334417781866 L 459.0339162891452 891.0337821951496 L 453.73425670610794 891.0337821951496 L 452.4093418103486 889.7088672993902 L 441.8100226442743 889.7088672993902 L 440.4851077485151 891.0337821951496 L 435.1854481654779 891.0337821951496 L 433.86053326971904 892.3586970909089 L 428.56087368668153 893.6836119866681 L 425.911043895163 896.3334417781866 L 424.5861289994037 896.3334417781866 L 413.3243523854499 907.5952183921404 L 406.69977790665354 922.1692822454925 L 406.69977790665354 926.1440269327702 L 405.3748630108942 927.4689418285295 L 405.3748630108942 935.4184312030852 L 404.049948115135 936.7433460988444 L 404.049948115135 1201.726325250699 L 409.34960769817206 1212.325644416773 L 411.33698004181105 1214.313016760412 L 416.6366396248481 1216.9628465519304 L 419.28646941636663 1216.9628465519304 L 420.61138431212584 1218.2877614476897 L 475.5953524861363 1217.62530399981 Z M 1091.6807790141982 1014.9133249486415 L 1091.6807790141982 938.0682609946036 L 1093.0056939099575 936.7433460988444 L 1094.3306088057168 927.4689418285295 L 1102.2800981802723 910.245048183659 L 1106.2548428675502 906.2703034963812 L 1106.2548428675502 904.9453886006219 L 1116.1917045857451 895.0085268824273 L 1117.5166194815044 895.0085268824273 L 1121.4913641687815 891.0337821951496 L 1123.4787365124205 890.3713247472699 L 996.9493639674101 889.7088672993902 L 996.2869065195305 908.9201332878997 L 997.6118214152898 910.245048183659 L 998.9367363110491 946.0177503691593 L 1000.261651206808 947.3426652649187 L 1000.261651206808 963.2416440140298 L 1001.5865661025673 964.5665589097891 L 1001.5865661025673 980.4655376589004 L 1002.9114809983266 981.7904525546596 L 1002.9114809983266 997.6894313037709 L 1004.236395894086 999.0143461995302 L 1004.236395894086 1001.6641759910488 L 1067.1698534426516 1002.3266334389284 L 1068.494768338411 1003.6515483346876 L 1072.469513025689 1003.6515483346876 L 1073.7944279214478 1004.9764632304469 L 1076.4442577129664 1004.9764632304469 L 1081.7439172960037 1007.6262930219655 L 1091.0183215663185 1015.5757823965212 L 1091.6807790141982 1014.9133249486415 Z M 1204.298545153734 1217.62530399981 L 1210.9231196325306 1214.9754742082916 L 1217.5476941113268 1208.3508997294953 L 1218.872609007086 1203.0512401464582 L 1220.1975239028454 1201.726325250699 L 1220.1975239028454 942.0430056818816 L 1218.872609007086 940.7180907861223 L 1218.872609007086 934.0935163073259 L 1216.2227792155675 928.7938567242888 L 1216.2227792155675 926.1440269327702 L 1213.5729494240493 920.8443673497331 L 1208.273289841012 914.2197928709368 L 1208.273289841012 912.8948779751775 L 1197.0115132270582 901.6331013612237 L 1195.686598331299 901.6331013612237 L 1189.0620238525028 896.3334417781866 L 1183.7623642694655 895.0085268824273 L 1179.7876195821875 892.3586970909089 L 1169.1883004161134 891.0337821951496 L 1167.863385520354 889.7088672993902 L 1155.9391514585207 889.7088672993902 L 1154.6142365627613 891.0337821951496 L 1146.6647471882059 891.0337821951496 L 1138.7152578136504 895.0085268824273 L 1136.0654280221322 895.0085268824273 L 1133.4155982306136 897.658356673946 L 1129.440853543336 898.9832715697052 L 1115.529247137865 911.5699630794182 L 1115.529247137865 912.8948779751775 L 1110.2295875548282 919.5194524539738 L 1106.2548428675502 927.4689418285295 L 1106.2548428675502 930.118771620048 L 1103.6050130760316 935.4184312030852 L 1103.6050130760316 942.0430056818816 L 1102.2800981802723 943.3679205776408 L 1102.2800981802723 1201.726325250699 L 1105.5923854196706 1209.013357177375 L 1112.2169598984663 1215.637931656171 L 1117.5166194815044 1216.9628465519304 L 1118.8415343772629 1218.2877614476897 L 1204.298545153734 1217.62530399981 Z M 557.740076023211 953.967239743715 L 569.0018526371648 948.0051227127983 L 590.8629484171929 926.1440269327702 L 590.8629484171929 924.819112037011 L 604.7745548226653 910.9075056315387 L 606.7619271663041 910.245048183659 L 598.149980343869 909.5825907357794 L 596.8250654481096 910.9075056315387 L 582.2510015947576 910.9075056315387 L 580.9260866989985 912.2324205272979 L 555.7527036795723 912.2324205272979 L 554.427788783813 910.9075056315387 L 543.8284696177388 910.9075056315387 L 542.5035547219795 909.5825907357794 L 539.8537249304609 909.5825907357794 L 539.1912674825812 930.118771620048 L 540.5161823783405 931.4436865158073 L 540.5161823783405 940.7180907861223 L 541.8410972740999 942.0430056818816 L 541.8410972740999 946.0177503691593 L 547.8032143050166 953.3047822958354 L 550.453044096535 954.6296971915946 L 557.740076023211 953.967239743715 Z M 922.091672357011 995.0396015122524 L 926.7288744921682 993.0522291686135 L 943.2903106891592 975.1658780758632 L 943.2903106891592 973.840963180104 L 951.2398000637147 965.8914738055485 L 951.2398000637147 964.5665589097891 L 955.2145447509927 960.5918142225114 L 955.2145447509927 959.2668993267521 L 960.51420433403 953.967239743715 L 960.51420433403 952.6423248479557 L 972.4384383958634 938.0682609946036 L 975.0882681873816 931.4436865158073 L 971.7759809479837 928.1313992764092 L 961.1766617819096 928.1313992764092 L 959.8517468861503 929.4563141721685 L 957.2019170946317 929.4563141721685 L 951.9022575115944 932.1061439636869 L 949.2524277200762 934.7559737552056 L 945.2776830327982 936.0808886509648 L 931.3660766273258 946.0177503691593 L 926.0664170442885 957.9419844309928 L 920.7667574612517 964.5665589097891 L 918.1169276697333 969.8662184928262 L 906.1926936078996 983.115367450419 L 916.1295553260943 993.0522291686135 L 917.4544702218536 993.0522291686135 L 920.104300013372 995.702058960132 L 922.091672357011 995.0396015122524 Z M 841.2718637156954 1185.8273465015875 L 853.8585552254085 1185.1648890537078 L 855.1834701211676 1183.8399741579487 L 864.4578743914826 1183.8399741579487 L 865.7827892872419 1182.5150592621894 L 872.4073637660383 1182.5150592621894 L 873.7322786617974 1181.19014436643 L 876.382108453316 1181.19014436643 L 877.7070233490754 1179.8652294706708 L 883.0066829321124 1178.5403145749115 L 887.6438850672698 1172.5781975439947 L 886.3189701715107 1148.7297294203279 L 884.9940552757514 1147.4048145245686 L 884.9940552757514 1138.1304102542538 L 883.6691403799921 1136.8054953584945 L 883.6691403799921 1127.5310910881797 L 882.3442254842328 1126.2061761924203 L 882.3442254842328 1116.9317719221053 L 881.0193105884737 1115.6068570263462 L 881.0193105884737 1106.3324527560312 L 879.6943956927144 1105.007537860272 L 879.6943956927144 1095.733133589957 L 878.369480796955 1094.4082186941978 L 878.369480796955 1085.1338144238828 L 877.0445659011957 1083.8088995281237 L 877.0445659011957 1074.5344952578087 L 875.7196510054364 1073.2095803620496 L 875.7196510054364 1062.6102611959752 L 874.3947361096771 1061.285346300216 L 874.3947361096771 1052.0109420299011 L 873.0698212139177 1050.6860271341418 L 873.0698212139177 1040.0867079680677 L 871.7449063181587 1038.7617930723084 L 871.7449063181587 1029.4873888019933 L 870.4199914223993 1028.1624739062343 L 870.4199914223993 1020.2129845316786 L 869.09507652664 1018.8880696359192 L 869.09507652664 1009.6136653656044 L 867.7701616308807 1008.2887504698451 L 867.7701616308807 999.0143461995302 L 866.4452467351216 997.6894313037709 L 866.4452467351216 989.7399419292153 L 865.1203318393623 988.415027033456 L 865.1203318393623 980.4655376589004 L 863.795416943603 979.1406227631411 L 863.795416943603 973.840963180104 L 861.1455871520843 968.5413035970669 L 861.1455871520843 965.8914738055485 L 858.4957573605659 961.9167291182706 L 858.4957573605659 959.2668993267521 L 855.8459275690473 956.6170695352334 L 854.5210126732879 952.6423248479557 L 847.8964381944918 946.0177503691593 L 847.2339807466121 944.0303780255203 L 845.9090658508528 944.0303780255203 L 841.9343211635751 940.0556333382426 L 837.9595764762971 938.7307184424833 L 835.3097466847787 936.0808886509648 L 832.6599168932601 936.0808886509648 L 827.360257310223 933.4310588594462 L 823.3855126229453 933.4310588594462 L 822.060597727186 932.1061439636869 L 814.1111083526303 932.1061439636869 L 812.7861934568709 930.7812290679277 L 782.3131508544077 930.7812290679277 L 769.064001896815 940.0556333382426 L 767.7390870010556 940.0556333382426 L 754.4899380434631 950.6549525043167 L 749.1902784604258 953.3047822958354 L 745.2155337731481 957.2795269831131 L 735.9411295028333 962.5791865661502 L 731.9663848155553 966.5539312534281 L 722.6919805452405 971.8535908364652 L 718.7172358579626 975.8283355237429 L 717.3923209622035 975.8283355237429 L 698.8435124215735 989.0774844813357 L 692.2189379427773 991.7273142728542 L 689.5691081512587 994.3771440643727 L 677.6448740894252 999.6768036474099 L 675.6575017457862 1001.6641759910488 L 778.33840616713 1002.3266334389284 L 781.650693406528 1005.6389206783266 L 782.9756083022874 1016.2382398444007 L 784.3005231980467 1017.56315474016 L 784.3005231980467 1022.8628143231971 L 785.625438093806 1024.1877292189565 L 785.625438093806 1030.8123036977527 L 786.9503529895651 1032.137218593512 L 786.9503529895651 1037.436878176549 L 788.2752678853244 1038.7617930723084 L 788.2752678853244 1045.3863675511047 L 789.6001827810837 1046.711282446864 L 789.6001827810837 1052.0109420299011 L 790.925097676843 1053.3358569256604 L 792.2500125726024 1067.9099207790123 L 793.5749274683615 1069.2348356747716 L 793.5749274683615 1074.5344952578087 L 794.8998423641208 1075.859410153568 L 794.8998423641208 1082.4839846323644 L 796.2247572598801 1083.8088995281237 L 796.2247572598801 1090.43347400692 L 797.5496721556394 1091.7583889026794 L 798.8745870513985 1106.3324527560312 L 800.1995019471578 1107.6573676517905 L 800.1995019471578 1112.9570272348276 L 801.5244168429172 1114.281942130587 L 801.5244168429172 1119.581601713624 L 802.8493317386765 1120.9065166093833 L 802.8493317386765 1127.5310910881797 L 804.1742466344358 1128.856005983939 L 804.1742466344358 1134.155665566976 L 805.4991615301949 1135.4805804627351 L 806.8240764259542 1147.4048145245686 L 808.1489913217135 1148.7297294203279 L 808.1489913217135 1155.3543038991243 L 809.4739062174729 1156.6792187948836 L 809.4739062174729 1161.9788783779206 L 810.7988211132322 1163.30379327368 L 810.7988211132322 1168.603452856717 L 812.1237360089913 1169.9283677524763 L 812.1237360089913 1175.2280273355134 L 813.4486509047506 1176.5529422312727 L 814.7735658005099 1181.8526018143098 L 819.4107679356673 1185.1648890537078 L 826.0353424144637 1185.1648890537078 L 827.360257310223 1186.4898039494672 L 841.2718637156954 1185.8273465015875 Z M 910.1674382951776 1001.6641759910488 L 897.5807467854645 990.402399377095 L 896.2558318897052 991.7273142728542 L 885.6565127236311 991.7273142728542 L 879.0319382448347 986.4276546898171 L 877.0445659011957 987.0901121376968 L 877.0445659011957 993.714686616493 L 878.369480796955 995.0396015122524 L 879.0319382448347 1002.3266334389284 L 910.1674382951776 1001.6641759910488 Z M 782.9756083022874 1075.859410153568 L 782.9756083022874 1071.8846654662902 L 781.650693406528 1070.559750570531 L 781.650693406528 1063.9351760917345 L 780.3257785107687 1062.6102611959752 L 780.3257785107687 1055.9856867171789 L 779.0008636150096 1054.6607718214198 L 779.0008636150096 1049.3611122383825 L 777.6759487192503 1048.0361973426234 L 777.6759487192503 1041.411622863827 L 776.351033823491 1040.0867079680677 L 776.351033823491 1034.7870483850306 L 775.0261189277317 1033.4621334892713 L 775.0261189277317 1028.1624739062343 L 773.7012040319726 1026.837559010475 L 772.3762891362132 1014.9133249486415 L 770.3889167925743 1012.9259526050025 L 500.76873550556223 1013.5884100528822 L 500.76873550556223 1074.5344952578087 L 502.75610784920127 1076.5218676014476 L 782.9756083022874 1075.859410153568 Z M 1061.2077364117347 1075.859410153568 L 1068.494768338411 1075.1969527056883 L 1069.8196832341703 1073.872037809929 L 1072.469513025689 1073.872037809929 L 1077.7691726087257 1071.2222080184106 L 1087.7060343269202 1059.9604314044566 L 1090.3558641184388 1054.6607718214198 L 1090.3558641184388 1049.3611122383825 L 1091.6807790141982 1048.0361973426234 L 1090.3558641184388 1034.7870483850306 L 1086.3811194311609 1026.837559010475 L 1077.7691726087257 1018.2256121880397 L 1069.8196832341703 1014.2508675007618 L 1064.520023651133 1014.2508675007618 L 1063.1951087553737 1012.9259526050025 L 881.6817680363531 1012.9259526050025 L 879.6943956927144 1014.9133249486415 L 881.0193105884737 1016.2382398444007 L 882.3442254842328 1034.7870483850306 L 883.6691403799921 1036.1119632807897 L 883.6691403799921 1046.711282446864 L 884.9940552757514 1048.0361973426234 L 886.3189701715107 1067.9099207790123 L 887.6438850672698 1069.2348356747716 L 887.6438850672698 1074.5344952578087 L 889.6312574109088 1076.5218676014476 L 1061.2077364117347 1075.859410153568 Z M 1098.3053534929943 1217.62530399981 L 1095.655523701476 1212.325644416773 L 1093.0056939099575 1209.6758146252544 L 1093.0056939099575 1207.025984833736 L 1091.6807790141982 1205.7010699379766 L 1091.0183215663185 1073.872037809929 L 1087.0435768790405 1077.846782497207 L 1085.7186619832817 1077.846782497207 L 1080.4190024002444 1081.8215271844847 L 1075.119342817207 1084.4713569760033 L 1072.469513025689 1084.4713569760033 L 1071.1445981299296 1085.7962718717624 L 1065.8449385468923 1085.7962718717624 L 1064.520023651133 1087.1211867675217 L 888.9687999630291 1087.7836442154014 L 888.9687999630291 1090.43347400692 L 890.2937148587885 1091.7583889026794 L 890.2937148587885 1101.0327931729942 L 891.6186297545478 1102.3577080687535 L 892.9435446503071 1123.5563464009017 L 894.2684595460662 1124.881261296661 L 894.2684595460662 1134.155665566976 L 895.5933744418255 1135.4805804627351 L 895.5933744418255 1144.7549847330502 L 896.9182893375848 1146.0798996288095 L 896.9182893375848 1155.3543038991243 L 898.2432042333442 1156.6792187948836 L 898.2432042333442 1165.9536230651984 L 899.5681191291035 1167.2785379609577 L 898.2432042333442 1176.5529422312727 L 892.9435446503071 1184.5024316058282 L 896.2558318897052 1185.1648890537078 L 897.5807467854645 1186.4898039494672 L 900.2305765769829 1186.4898039494672 L 916.1295553260943 1194.4392933240229 L 926.0664170442885 1204.3761550422173 L 927.3913319400478 1209.6758146252544 L 928.7162468358072 1211.0007295210137 L 929.3787042836868 1218.2877614476897 L 1098.3053534929943 1217.62530399981 Z M 817.4233955920283 1217.62530399981 L 817.4233955920283 1214.9754742082916 L 816.0984806962692 1213.6505593125323 L 816.0984806962692 1199.0764954591803 L 817.4233955920283 1196.4266656676618 L 812.7861934568709 1194.4392933240229 L 806.8240764259542 1189.8020911888655 L 806.8240764259542 1188.4771762931061 L 804.1742466344358 1185.8273465015875 L 802.8493317386765 1179.2027720227911 L 801.5244168429172 1177.877857127032 L 801.5244168429172 1172.5781975439947 L 800.1995019471578 1171.2532826482357 L 800.1995019471578 1165.9536230651984 L 798.8745870513985 1164.6287081694393 L 798.8745870513985 1159.3290485864022 L 797.5496721556394 1158.004133690643 L 796.2247572598801 1146.0798996288095 L 794.8998423641208 1144.7549847330502 L 794.8998423641208 1138.1304102542538 L 793.5749274683615 1136.8054953584945 L 792.2500125726024 1124.881261296661 L 790.925097676843 1123.5563464009017 L 790.925097676843 1116.9317719221053 L 789.6001827810837 1115.6068570263462 L 789.6001827810837 1108.9822825475499 L 788.2752678853244 1107.6573676517905 L 788.2752678853244 1102.3577080687535 L 786.9503529895651 1101.0327931729942 L 786.9503529895651 1094.4082186941978 L 785.625438093806 1093.0833037984385 L 784.9629806459263 1087.1211867675217 L 500.76873550556223 1087.7836442154014 L 500.76873550556223 1205.7010699379766 L 495.46907592252524 1216.3003891040507 L 496.1315333704049 1218.2877614476897 L 817.4233955920283 1217.62530399981 Z M 916.792012773974 1217.62530399981 L 918.1169276697333 1216.3003891040507 L 916.792012773974 1211.0007295210137 L 910.8298957430573 1203.7136975943376 L 897.5807467854645 1197.0891231155413 L 894.9309169939459 1197.0891231155413 L 893.6060020981868 1195.7642082197822 L 883.0066829321124 1193.1143784282635 L 881.6817680363531 1191.7894635325042 L 868.4326190787604 1193.1143784282635 L 867.107704183001 1194.4392933240229 L 859.1582148084456 1194.4392933240229 L 857.8332999126862 1195.7642082197822 L 847.2339807466121 1195.7642082197822 L 845.9090658508528 1197.0891231155413 L 826.6977998623433 1197.751580563421 L 828.0227147581027 1199.0764954591803 L 826.6977998623433 1200.4014103549396 L 828.0227147581027 1203.0512401464582 L 828.0227147581027 1214.9754742082916 L 832.6599168932601 1218.2877614476897 L 916.792012773974 1217.62530399981 Z" fill="black" fill-rule="evenodd" stroke="none" stroke-width="2.649829791518544" stroke-linecap="round" stroke-linejoin="round"/>
  </g>
  <g id="bubbles-layer">
    <rect x="558" y="140" width="700" height="110" rx="30" ry="30" stroke="black" stroke-width="12" fill="white"/>
    <path d="M 1258 204.5 L 1318 215 L 1258 229.5" fill="white" stroke="black" stroke-width="12" stroke-linejoin="round"/>
    <rect x="1251" y="210" width="14" height="14" fill="white"/>
  </g>
  <g id="text-layer">
    <text x="908" y="195" text-anchor="middle" dominant-baseline="middle" font-family="'Anime Ace 2 BB', sans-serif" font-size="48" font-weight="bold" fill="black">I'm almost ready!</text>
  </g>
</svg>